<svg width="24" height="24" viewBox="0 0 24 24" fill="none" xmlns="http://www.w3.org/2000/svg">
<path d="M17.7128 12.9521H12.9521V17.7128C12.9521 18.2365 12.5236 18.665 12 18.665C11.4763 18.665 11.0478 18.2365 11.0478 17.7128V12.9521H6.2871C5.76343 12.9521 5.33496 12.5236 5.33496 12C5.33496 11.4763 5.76343 11.0478 6.2871 11.0478H11.0478V6.2871C11.0478 5.76343 11.4763 5.33496 12 5.33496C12.5236 5.33496 12.9521 5.76343 12.9521 6.2871V11.0478H17.7128C18.2365 11.0478 18.665 11.4763 18.665 12C18.665 12.5236 18.2365 12.9521 17.7128 12.9521Z" fill="black"/>
</svg>
