<svg width="24" height="24" viewBox="0 0 24 24" fill="none" xmlns="http://www.w3.org/2000/svg">
<path d="M12 22C10.2333 22 8.79167 21.721 7.675 21.163C6.55833 20.605 6 19.884 6 19C6 18.6 6.121 18.2293 6.363 17.888C6.605 17.5467 6.942 17.2507 7.374 17L8.949 18.475C8.799 18.5417 8.63633 18.6167 8.461 18.7C8.28567 18.7833 8.14833 18.8833 8.049 19C8.26567 19.2667 8.76567 19.5 9.549 19.7C10.3323 19.9 11.1493 20 12 20C12.8507 20 13.6717 19.9 14.463 19.7C15.2543 19.5 15.7583 19.2667 15.975 19C15.8583 18.8667 15.7083 18.7583 15.525 18.675C15.3417 18.5917 15.1667 18.5167 15 18.45L16.55 16.95C17.0167 17.2167 17.375 17.521 17.625 17.863C17.875 18.205 18 18.584 18 19C18 19.8833 17.4417 20.6043 16.325 21.163C15.2083 21.7217 13.7667 22.0007 12 22ZM12 19C9.65 17.2667 7.896 15.5833 6.738 13.95C5.58 12.3167 5.00067 10.7167 5 9.15C5 7.96667 5.21267 6.929 5.638 6.037C6.06333 5.145 6.609 4.39934 7.275 3.8C7.941 3.20067 8.691 2.75067 9.525 2.45C10.359 2.14934 11.184 1.99934 12 2C12.816 2.00067 13.641 2.15067 14.475 2.45C15.309 2.74934 16.059 3.19934 16.725 3.8C17.391 4.40067 17.937 5.14667 18.363 6.038C18.789 6.92934 19.0013 7.96667 19 9.15C19 10.7167 18.421 12.3167 17.263 13.95C16.105 15.5833 14.3507 17.2667 12 19ZM12 11C12.55 11 13.021 10.8043 13.413 10.413C13.805 10.0217 14.0007 9.55067 14 9C13.9993 8.44934 13.8037 7.97867 13.413 7.588C13.0223 7.19734 12.5513 7.00134 12 7C11.4487 6.99867 10.978 7.19467 10.588 7.588C10.198 7.98134 10.002 8.452 10 9C9.998 9.548 10.194 10.019 10.588 10.413C10.982 10.807 11.4527 11.0027 12 11Z" fill="black"/>
</svg>
