<svg width="24" height="24" viewBox="0 0 24 24" fill="none" xmlns="http://www.w3.org/2000/svg">
<path d="M17.9999 12C17.9999 11.7348 17.8946 11.4804 17.707 11.2929C17.5195 11.1054 17.2652 11 16.9999 11H9.07993L11.7066 8.37333C11.8832 8.18376 11.9794 7.93304 11.9748 7.67397C11.9703 7.4149 11.8653 7.16772 11.6821 6.9845C11.4989 6.80129 11.2517 6.69634 10.9926 6.69176C10.7336 6.68719 10.4828 6.78336 10.2933 6.96L5.95993 11.2933C5.77267 11.4808 5.66748 11.735 5.66748 12C5.66748 12.265 5.77267 12.5192 5.95993 12.7067L10.2933 17.04C10.3848 17.1382 10.4952 17.2171 10.6179 17.2717C10.7405 17.3264 10.873 17.3558 11.0072 17.3581C11.1415 17.3605 11.2749 17.3358 11.3994 17.2855C11.5239 17.2352 11.637 17.1603 11.732 17.0654C11.8269 16.9704 11.9018 16.8573 11.9521 16.7328C12.0024 16.6083 12.0271 16.4749 12.0247 16.3406C12.0224 16.2064 11.993 16.0739 11.9383 15.9513C11.8837 15.8286 11.8049 15.7182 11.7066 15.6267L9.07993 13H16.9999C17.5519 13 17.9999 12.552 17.9999 12Z" fill="black"/>
</svg>
