<svg width="24" height="24" viewBox="0 0 24 24" fill="none" xmlns="http://www.w3.org/2000/svg">
<path d="M11.4523 10.4289L7.95974 13.9187L4.46722 10.4289C3.77686 9.73821 3.30679 8.85833 3.11644 7.90052C2.9261 6.9427 3.02402 5.94995 3.39784 5.04778C3.77165 4.14561 4.40457 3.37454 5.21657 2.83204C6.02857 2.28955 6.98319 2 7.95974 2C8.93629 2 9.89091 2.28955 10.7029 2.83204C11.5149 3.37454 12.1478 4.14561 12.5216 5.04778C12.8955 5.94995 12.9934 6.9427 12.803 7.90052C12.6127 8.85833 12.1426 9.73821 11.4523 10.4289ZM7.95974 8.73201C8.43598 8.73201 8.8927 8.54283 9.22945 8.20608C9.5662 7.86933 9.75538 7.41261 9.75538 6.93637C9.75538 6.46014 9.5662 6.00341 9.22945 5.66666C8.8927 5.32991 8.43598 5.14073 7.95974 5.14073C7.48351 5.14073 7.02678 5.32991 6.69003 5.66666C6.35328 6.00341 6.1641 6.46014 6.1641 6.93637C6.1641 7.41261 6.35328 7.86933 6.69003 8.20608C7.02678 8.54283 7.48351 8.73201 7.95974 8.73201ZM19.5326 18.5093L16.0401 22L12.5476 18.5084C11.8572 17.8177 11.3872 16.9378 11.1968 15.98C11.0065 15.0222 11.1044 14.0294 11.4782 13.1273C11.852 12.2251 12.485 11.454 13.297 10.9115C14.109 10.369 15.0636 10.0795 16.0401 10.0795C17.0167 10.0795 17.9713 10.369 18.7833 10.9115C19.5953 11.454 20.2282 12.2251 20.602 13.1273C20.9758 14.0294 21.0738 15.0222 20.8834 15.98C20.6931 16.9378 20.223 17.8186 19.5326 18.5093ZM16.0401 16.8124C16.5164 16.8124 16.9731 16.6232 17.3098 16.2865C17.6466 15.9497 17.8358 15.493 17.8358 15.0168C17.8358 14.5405 17.6466 14.0838 17.3098 13.747C16.9731 13.4103 16.5164 13.2211 16.0401 13.2211C15.5639 13.2211 15.1072 13.4103 14.7704 13.747C14.4337 14.0838 14.2445 14.5405 14.2445 15.0168C14.2445 15.493 14.4337 15.9497 14.7704 16.2865C15.1072 16.6232 15.5639 16.8124 16.0401 16.8124Z" fill="black"/>
</svg>
