<svg width="24" height="24" viewBox="0 0 24 24" fill="none" xmlns="http://www.w3.org/2000/svg">
<path d="M12 2C9.9169 2.00236 7.91976 2.83093 6.44676 4.30394C4.97376 5.77694 4.14519 7.77408 4.14282 9.85722C4.14282 16.5805 11.2858 21.6582 11.5902 21.8707C11.7103 21.9549 11.8534 22 12 22C12.1467 22 12.2898 21.9549 12.4099 21.8707C12.7143 21.6582 19.8573 16.5805 19.8573 9.85722C19.8549 7.77408 19.0263 5.77694 17.5533 4.30394C16.0803 2.83093 14.0832 2.00236 12 2ZM12 7.00005C12.5651 7.00005 13.1175 7.16762 13.5874 7.48157C14.0573 7.79552 14.4235 8.24175 14.6397 8.76383C14.856 9.28591 14.9126 9.86039 14.8023 10.4146C14.6921 10.9689 14.42 11.478 14.0204 11.8775C13.6208 12.2771 13.1117 12.5492 12.5575 12.6595C12.0032 12.7697 11.4287 12.7132 10.9067 12.4969C10.3846 12.2807 9.93834 11.9144 9.62439 11.4446C9.31044 10.9747 9.14287 10.4223 9.14287 9.85722C9.14287 9.09945 9.4439 8.37272 9.97972 7.8369C10.5155 7.30107 11.2423 7.00005 12 7.00005Z" fill="black"/>
</svg>
