<svg width="139" height="22" viewBox="0 0 139 22" fill="none" xmlns="http://www.w3.org/2000/svg">
<path d="M130.224 21.9718C128.68 21.9718 127.287 21.6423 126.045 20.9833C124.821 20.3243 123.851 19.383 123.136 18.1592C122.439 16.9354 122.091 15.5045 122.091 13.8665C122.091 12.2473 122.449 10.8258 123.164 9.60205C123.879 8.35943 124.858 7.40864 126.101 6.74968C127.344 6.09071 128.737 5.76123 130.281 5.76123C131.825 5.76123 133.218 6.09071 134.461 6.74968C135.703 7.40864 136.682 8.35943 137.398 9.60205C138.113 10.8258 138.471 12.2473 138.471 13.8665C138.471 15.4857 138.104 16.9166 137.369 18.1592C136.654 19.383 135.665 20.3243 134.404 20.9833C133.161 21.6423 131.768 21.9718 130.224 21.9718ZM130.224 17.792C131.147 17.792 131.928 17.4531 132.568 16.7753C133.227 16.0976 133.557 15.1279 133.557 13.8665C133.557 12.605 133.237 11.6354 132.597 10.9576C131.975 10.2798 131.203 9.94095 130.281 9.94095C129.339 9.94095 128.558 10.2798 127.937 10.9576C127.315 11.6166 127.005 12.5862 127.005 13.8665C127.005 15.1279 127.306 16.0976 127.909 16.7753C128.53 17.4531 129.302 17.792 130.224 17.792Z" fill="black"/>
<path d="M114.7 8.18999C114.342 7.53103 113.824 7.0321 113.146 6.6932C112.487 6.33548 111.706 6.15662 110.802 6.15662C109.24 6.15662 107.988 6.67438 107.046 7.70989C106.105 8.72658 105.634 10.0916 105.634 11.8049C105.634 13.6312 106.124 15.0621 107.103 16.0976C108.101 17.1143 109.466 17.6226 111.198 17.6226C112.384 17.6226 113.382 17.3214 114.191 16.7189C115.02 16.1164 115.622 15.2503 115.999 14.1207H109.87V10.5623H120.376V15.0526C120.018 16.2576 119.407 17.3778 118.54 18.4134C117.693 19.4489 116.611 20.2867 115.293 20.9268C113.975 21.567 112.487 21.887 110.831 21.887C108.873 21.887 107.122 21.4634 105.578 20.6162C104.053 19.7501 102.857 18.5546 101.991 17.0295C101.144 15.5045 100.72 13.7629 100.72 11.8049C100.72 9.84682 101.144 8.10527 101.991 6.58024C102.857 5.03638 104.053 3.84083 105.578 2.99359C107.103 2.12752 108.844 1.69449 110.802 1.69449C113.175 1.69449 115.17 2.26873 116.79 3.41721C118.428 4.56569 119.51 6.15662 120.037 8.18999H114.7Z" fill="black"/>
<path d="M91.4019 13.5841C91.4019 14.1677 91.3643 14.6949 91.289 15.1656H79.3994C79.4935 16.4082 79.9548 17.4061 80.7832 18.1592C81.6116 18.9123 82.6283 19.2888 83.8333 19.2888C85.5654 19.2888 86.7892 18.564 87.5046 17.1143H90.9783C90.5076 18.5452 89.651 19.7219 88.4084 20.6444C87.1846 21.5481 85.6595 22 83.8333 22C82.3459 22 81.0091 21.6705 79.823 21.0116C78.6557 20.3338 77.7331 19.3924 77.0553 18.1874C76.3964 16.9636 76.0669 15.5516 76.0669 13.9512C76.0669 12.3509 76.387 10.9482 77.0271 9.74327C77.6861 8.51948 78.5992 7.5781 79.7665 6.91914C80.9526 6.26018 82.3082 5.93069 83.8333 5.93069C85.3018 5.93069 86.6103 6.25076 87.7588 6.8909C88.9073 7.53104 89.8016 8.43476 90.4417 9.60207C91.0819 10.7505 91.4019 12.0779 91.4019 13.5841ZM88.0412 12.5674C88.0224 11.3813 87.5988 10.4305 86.7704 9.71503C85.9419 8.99958 84.9158 8.64186 83.6921 8.64186C82.5812 8.64186 81.6304 8.99958 80.8397 9.71503C80.0489 10.4117 79.5782 11.3624 79.4276 12.5674H88.0412Z" fill="black"/>
<path d="M71.3311 4.12323C70.7475 4.12323 70.258 3.92555 69.8626 3.53017C69.4672 3.13479 69.2695 2.64527 69.2695 2.06162C69.2695 1.47796 69.4672 0.988446 69.8626 0.593068C70.258 0.197689 70.7475 0 71.3311 0C71.896 0 72.3761 0.197689 72.7715 0.593068C73.1668 0.988446 73.3645 1.47796 73.3645 2.06162C73.3645 2.64527 73.1668 3.13479 72.7715 3.53017C72.3761 3.92555 71.896 4.12323 71.3311 4.12323ZM72.9127 6.18485V21.7458H69.6932V6.18485H72.9127Z" fill="black"/>
<path d="M49.4805 13.8948C49.4805 12.3321 49.8005 10.9482 50.4407 9.74328C51.0996 8.53832 51.9845 7.60635 53.0954 6.94739C54.225 6.26959 55.477 5.9307 56.8515 5.9307C57.8681 5.9307 58.866 6.15663 59.845 6.60849C60.8429 7.04152 61.6337 7.62518 62.2173 8.35945V0.84726H65.4651V21.7458H62.2173V19.4018C61.6901 20.1549 60.9559 20.7762 60.0145 21.2657C59.0919 21.7553 58.0282 22 56.8232 22C55.4676 22 54.225 21.6611 53.0954 20.9833C51.9845 20.2867 51.0996 19.3265 50.4407 18.1027C49.8005 16.8601 49.4805 15.4574 49.4805 13.8948ZM62.2173 13.9512C62.2173 12.8781 61.9914 11.9461 61.5395 11.1553C61.1065 10.3646 60.5322 9.76211 59.8168 9.3479C59.1013 8.93369 58.3294 8.72659 57.501 8.72659C56.6726 8.72659 55.9007 8.93369 55.1852 9.3479C54.4698 9.74328 53.8861 10.3363 53.4343 11.1271C53.0012 11.899 52.7847 12.8216 52.7847 13.8948C52.7847 14.9679 53.0012 15.9093 53.4343 16.7189C53.8861 17.5285 54.4698 18.1498 55.1852 18.5828C55.9195 18.997 56.6914 19.2041 57.501 19.2041C58.3294 19.2041 59.1013 18.997 59.8168 18.5828C60.5322 18.1686 61.1065 17.5661 61.5395 16.7754C61.9914 15.9658 62.2173 15.0244 62.2173 13.9512Z" fill="black"/>
<path d="M39.2931 22C37.8246 22 36.4973 21.6705 35.3111 21.0116C34.125 20.3338 33.193 19.3924 32.5152 18.1874C31.8374 16.9636 31.4985 15.5516 31.4985 13.9512C31.4985 12.3697 31.8468 10.9671 32.5435 9.74327C33.2401 8.51948 34.1909 7.5781 35.3958 6.91914C36.6008 6.26018 37.947 5.93069 39.4344 5.93069C40.9217 5.93069 42.2679 6.26018 43.4729 6.91914C44.6778 7.5781 45.6286 8.51948 46.3252 9.74327C47.0219 10.9671 47.3702 12.3697 47.3702 13.9512C47.3702 15.5327 47.0124 16.9354 46.297 18.1592C45.5815 19.383 44.6025 20.3338 43.3599 21.0116C42.1361 21.6705 40.7805 22 39.2931 22ZM39.2931 19.2041C40.1216 19.2041 40.8935 19.0064 41.6089 18.6111C42.3432 18.2157 42.9363 17.6226 43.3881 16.8318C43.84 16.0411 44.0659 15.0809 44.0659 13.9512C44.0659 12.8216 43.8494 11.8708 43.4164 11.0989C42.9833 10.3081 42.4091 9.71503 41.6937 9.31965C40.9782 8.92427 40.2063 8.72659 39.3779 8.72659C38.5495 8.72659 37.7775 8.92427 37.0621 9.31965C36.3655 9.71503 35.81 10.3081 35.3958 11.0989C34.9816 11.8708 34.7745 12.8216 34.7745 13.9512C34.7745 15.6269 35.1981 16.926 36.0454 17.8485C36.9115 18.7523 37.994 19.2041 39.2931 19.2041Z" fill="black"/>
<path d="M21.2839 22C19.8153 22 18.488 21.6705 17.3018 21.0116C16.1157 20.3338 15.1837 19.3924 14.5059 18.1874C13.8282 16.9636 13.4893 15.5516 13.4893 13.9512C13.4893 12.3697 13.8376 10.9671 14.5342 9.74327C15.2308 8.51948 16.1816 7.5781 17.3866 6.91914C18.5915 6.26018 19.9377 5.93069 21.4251 5.93069C22.9125 5.93069 24.2586 6.26018 25.4636 6.91914C26.6685 7.5781 27.6193 8.51948 28.316 9.74327C29.0126 10.9671 29.3609 12.3697 29.3609 13.9512C29.3609 15.5327 29.0032 16.9354 28.2877 18.1592C27.5723 19.383 26.5932 20.3338 25.3506 21.0116C24.1268 21.6705 22.7712 22 21.2839 22ZM21.2839 19.2041C22.1123 19.2041 22.8842 19.0064 23.5997 18.6111C24.3339 18.2157 24.927 17.6226 25.3789 16.8318C25.8307 16.0411 26.0567 15.0809 26.0567 13.9512C26.0567 12.8216 25.8401 11.8708 25.4071 11.0989C24.9741 10.3081 24.3998 9.71503 23.6844 9.31965C22.9689 8.92427 22.197 8.72659 21.3686 8.72659C20.5402 8.72659 19.7682 8.92427 19.0528 9.31965C18.3562 9.71503 17.8008 10.3081 17.3866 11.0989C16.9724 11.8708 16.7653 12.8216 16.7653 13.9512C16.7653 15.6269 17.1889 16.926 18.0361 17.8485C18.9022 18.7523 19.9848 19.2041 21.2839 19.2041Z" fill="black"/>
<path d="M11.5507 2.1181V4.74455H3.21951V10.534H9.71502V13.1605H3.21951V21.7458H0V2.1181H11.5507Z" fill="black"/>
</svg>
