<svg width="24" height="24" viewBox="0 0 24 24" fill="none" xmlns="http://www.w3.org/2000/svg">
<path d="M2 5.33337C2 5.00185 2.1317 4.68391 2.36612 4.44949C2.60054 4.21507 2.91848 4.08337 3.25 4.08337L20.75 4.08337C21.0815 4.08337 21.3995 4.21507 21.6339 4.44949C21.8683 4.68391 22 5.00185 22 5.33337C22 5.66489 21.8683 5.98284 21.6339 6.21726C21.3995 6.45168 21.0815 6.58337 20.75 6.58337L3.25 6.58337C2.91848 6.58337 2.60054 6.45168 2.36612 6.21726C2.1317 5.98284 2 5.66489 2 5.33337ZM2 12C2 11.6685 2.1317 11.3506 2.36612 11.1162C2.60054 10.8817 2.91848 10.75 3.25 10.75H20.75C21.0815 10.75 21.3995 10.8817 21.6339 11.1162C21.8683 11.3506 22 11.6685 22 12C22 12.3316 21.8683 12.6495 21.6339 12.8839C21.3995 13.1183 21.0815 13.25 20.75 13.25L3.25 13.25C2.91848 13.25 2.60054 13.1183 2.36612 12.8839C2.1317 12.6495 2 12.3316 2 12ZM2 18.6667C2 18.3352 2.1317 18.0172 2.36612 17.7828C2.60054 17.5484 2.91848 17.4167 3.25 17.4167H20.75C21.0815 17.4167 21.3995 17.5484 21.6339 17.7828C21.8683 18.0172 22 18.3352 22 18.6667C22 18.9982 21.8683 19.3162 21.6339 19.5506C21.3995 19.785 21.0815 19.9167 20.75 19.9167H3.25C2.91848 19.9167 2.60054 19.785 2.36612 19.5506C2.1317 19.3162 2 18.9982 2 18.6667Z" fill="black"/>
</svg>
