<svg width="24" height="24" viewBox="0 0 24 24" fill="none" xmlns="http://www.w3.org/2000/svg">
<path d="M8.59341 3.42859H20.9011V11.7802H19.1429V5.18683H10.3516V10.022H8.59341V3.42859ZM9.41538 13.3187C9.27104 13.3183 9.12803 13.3464 8.99454 13.4013C8.86104 13.4562 8.73967 13.5369 8.63736 13.6387L6.83516 15.4409V18.8132H11.782L16.8835 17.5385L19.9886 16.2128C20.0943 16.1556 20.1753 16.0614 20.2159 15.9483C20.2564 15.8351 20.2538 15.7109 20.2085 15.5996C20.1632 15.4882 20.0783 15.3975 19.9703 15.3449C19.8622 15.2922 19.7385 15.2814 19.6229 15.3143L19.6053 15.3187L13.9684 16.6154H10.7912V14.8572H13.5385C13.7425 14.8572 13.9381 14.7761 14.0824 14.6319C14.2266 14.4876 14.3077 14.2919 14.3077 14.0879C14.3077 13.8839 14.2266 13.6883 14.0824 13.544C13.9381 13.3997 13.7425 13.3187 13.5385 13.3187H9.41538ZM16.0545 14.3314L19.1771 13.6132C19.5097 13.5258 19.8579 13.5157 20.195 13.5838C20.5321 13.6518 20.8491 13.7963 21.1216 14.0059C21.3942 14.2156 21.6151 14.4849 21.7674 14.7933C21.9196 15.1016 21.9992 15.4408 22 15.7846C21.9996 16.2021 21.8832 16.6112 21.6637 16.9663C21.4441 17.3213 21.1302 17.6083 20.7569 17.7952L20.7332 17.8075L17.4453 19.2097L11.9982 20.5714H2V14.1978H5.59209L7.39604 12.3939C7.66183 12.129 7.9772 11.919 8.32414 11.776C8.67107 11.633 9.04277 11.5598 9.41802 11.5605H13.5385C13.8909 11.5604 14.2395 11.6341 14.5618 11.7768C14.8841 11.9194 15.173 12.1279 15.41 12.3889C15.6469 12.6498 15.8267 12.9575 15.9377 13.292C16.0487 13.6266 16.0885 13.9806 16.0545 14.3314ZM5.07692 15.9561H3.75824V18.8132H5.07692V15.9561Z" fill="black"/>
</svg>
