<svg width="24" height="24" viewBox="0 0 24 24" fill="none" xmlns="http://www.w3.org/2000/svg">
<g clip-path="url(#clip0_109_16473)">
<path d="M10.9506 2.77518C11.0576 2.58634 11.2108 2.42965 11.395 2.32075C11.5792 2.21185 11.7879 2.15454 12.0004 2.15454C12.2128 2.15454 12.4215 2.21185 12.6057 2.32075C12.7899 2.42965 12.9432 2.58634 13.0501 2.77518L15.7669 7.57318L21.043 8.74918C21.2505 8.79557 21.4426 8.89713 21.6001 9.04371C21.7576 9.19029 21.875 9.37679 21.9406 9.5846C22.0062 9.79241 22.0177 10.0143 21.974 10.2281C21.9302 10.4419 21.8328 10.6402 21.6913 10.8032L18.0949 14.9442L18.6392 20.4692C18.6607 20.6867 18.6263 20.9063 18.5395 21.1059C18.4527 21.3055 18.3165 21.4782 18.1446 21.6067C17.9726 21.7353 17.7709 21.8151 17.5595 21.8384C17.3482 21.8616 17.1346 21.8274 16.9401 21.7392L12.0004 19.4992L7.0606 21.7392C6.86612 21.8274 6.65254 21.8616 6.44119 21.8384C6.22984 21.8151 6.02811 21.7353 5.85615 21.6067C5.68419 21.4782 5.54802 21.3055 5.46122 21.1059C5.37443 20.9063 5.34005 20.6867 5.36152 20.4692L5.90585 14.9442L2.30941 10.8042C2.16771 10.6412 2.07005 10.4428 2.02618 10.2289C1.9823 10.015 1.99374 9.79291 2.05935 9.58493C2.12496 9.37696 2.24246 9.19033 2.4001 9.04367C2.55774 8.89702 2.75002 8.79548 2.95774 8.74918L8.23382 7.57318L10.9506 2.77518Z" fill="black"/>
</g>
<defs>
<clipPath id="clip0_109_16473">
<rect width="24" height="24" fill="white"/>
</clipPath>
</defs>
</svg>
