<svg width="24" height="24" viewBox="0 0 24 24" fill="none" xmlns="http://www.w3.org/2000/svg">
<path fill-rule="evenodd" clip-rule="evenodd" d="M15.7669 7.69703L13.0501 3.03332C12.9432 2.84976 12.7899 2.69746 12.6057 2.59161C12.4215 2.48576 12.2128 2.43005 12.0004 2.43005C11.7879 2.43005 11.5792 2.48576 11.395 2.59161C11.2108 2.69746 11.0576 2.84976 10.9506 3.03332L8.23382 7.69703L2.95774 8.84012C2.75002 8.88512 2.55774 8.98382 2.4001 9.12637C2.24246 9.26892 2.12496 9.45033 2.05935 9.65248C1.99374 9.85464 1.9823 10.0705 2.02618 10.2784C2.07005 10.4864 2.16771 10.6792 2.30941 10.8376L5.90585 14.8617L5.36152 20.2321C5.34005 20.4436 5.37443 20.657 5.46122 20.851C5.54802 21.045 5.68419 21.2129 5.85615 21.3378C6.02811 21.4627 6.22984 21.5404 6.44119 21.563C6.65254 21.5856 6.86612 21.5523 7.0606 21.4666L12.0004 19.2892L16.9401 21.4666C17.1346 21.5523 17.3482 21.5856 17.5595 21.563C17.7709 21.5404 17.9726 21.4627 18.1446 21.3378C18.3165 21.2129 18.4527 21.045 18.5395 20.851C18.6263 20.657 18.6607 20.4436 18.6392 20.2321L18.0949 14.8617L21.6913 10.8366C21.8328 10.6782 21.9302 10.4855 21.974 10.2776C22.0177 10.0698 22.0062 9.85416 21.9406 9.65216C21.875 9.45016 21.7576 9.26889 21.6001 9.12641C21.4426 8.98393 21.2505 8.88521 21.043 8.84012L15.7669 7.69703ZM20.2465 10.2024L14.8034 9.02309L12.0004 4.21124L9.1973 9.02309L3.75356 10.2025L7.46488 14.3552L6.90321 19.8967L12.0004 17.65L17.0975 19.8967L16.5359 14.3553L20.2465 10.2024ZM17.5447 20.0938C17.5444 20.0937 17.5449 20.0939 17.5447 20.0938V20.0938ZM6.45533 20.0941C6.45508 20.0942 6.45557 20.094 6.45533 20.0941V20.0941Z" fill="black"/>
</svg>
