<svg width="60" height="40" viewBox="0 0 60 40" fill="none" xmlns="http://www.w3.org/2000/svg">
<g clip-path="url(#clip0_109_10363)">
<path d="M5.19434 12.0693C5.66351 25.3644 16.5894 36 30.0011 36C43.4129 36 54.3362 25.3644 54.8079 12.0693H5.19434Z" fill="#1A292D"/>
<path d="M29.9986 20.1387C43.7076 20.1387 54.821 16.5259 54.821 12.0693C54.821 7.61277 43.7076 4 29.9986 4C16.2896 4 5.17627 7.61277 5.17627 12.0693C5.17627 16.5259 16.2896 20.1387 29.9986 20.1387Z" fill="#D78D2E"/>
<path d="M29.9986 4C16.2888 4 5.17627 7.61345 5.17627 12.0693C5.17627 16.5252 16.2888 20.1387 29.9986 20.1387C43.7085 20.1387 54.821 16.5252 54.821 12.0693C54.821 7.61345 43.7085 4 29.9986 4ZM29.9986 18.5704C17.0898 18.5704 6.62787 15.6284 6.62787 11.9968C6.62787 8.36517 17.0924 5.42568 29.9986 5.42568C42.9049 5.42568 53.3694 8.36776 53.3694 11.9994C53.3694 15.6309 42.9049 18.573 29.9986 18.573V18.5704Z" fill="#304044"/>
<path d="M29.9987 6.99393C41.9614 6.99393 51.8168 9.52127 53.1984 12.7822C53.3072 12.5256 53.3694 12.2638 53.3694 11.9968C53.3694 8.36777 42.905 5.4231 29.9987 5.4231C17.0924 5.4231 6.62793 8.36777 6.62793 11.9968C6.62793 12.2638 6.69014 12.5256 6.79901 12.7822C8.18062 9.52387 18.036 6.99393 29.9987 6.99393Z" fill="#1A292D"/>
<path d="M47.2182 9.66638C46.2513 9.31903 44.9423 9.10388 43.4958 9.10388C42.0494 9.10388 40.7404 9.31903 39.7735 9.66638H38.1094V11.1232C38.1094 12.2378 40.5201 13.1424 43.4958 13.1424C46.4716 13.1424 48.8823 12.2378 48.8823 11.1232V9.66638H47.2182Z" fill="#E8E8DF"/>
<path d="M43.4958 11.7608C46.4707 11.7608 48.8823 10.8568 48.8823 9.74157C48.8823 8.62635 46.4707 7.72229 43.4958 7.72229C40.521 7.72229 38.1094 8.62635 38.1094 9.74157C38.1094 10.8568 40.521 11.7608 43.4958 11.7608Z" fill="#FFFFF4"/>
<path d="M46.5988 9.345C46.5988 11.0714 40.3491 11.0714 40.3491 9.345C40.3491 7.61863 41.7489 6.21887 43.4752 6.21887C45.2016 6.21887 46.6014 7.61863 46.6014 9.345H46.5988Z" fill="#FCB712"/>
<path d="M44.5095 7.06909C44.6987 7.11057 44.8802 7.17796 45.0461 7.27128L44.7713 7.57974C44.5847 7.48643 44.3825 7.42681 44.1699 7.41125L44.5095 7.06909Z" fill="#FFCE6C"/>
<path d="M46.0492 8.38593L45.5956 8.58034C45.5178 8.31594 45.3727 8.07746 45.186 7.88823L45.4789 7.57458C45.7252 7.79492 45.9222 8.07228 46.0492 8.38593Z" fill="#FFCE6C"/>
<path d="M39.5245 14.3686C38.5758 14.0291 37.2953 13.8191 35.88 13.8191C34.4647 13.8191 33.1816 14.0291 32.2354 14.3686H30.605V15.7969C30.605 16.8908 32.9664 17.7747 35.88 17.7747C38.7936 17.7747 41.155 16.8882 41.155 15.7969V14.3686H39.5245Z" fill="#E8E8DF"/>
<path d="M35.88 16.419C38.7933 16.419 41.155 15.5335 41.155 14.4412C41.155 13.3489 38.7933 12.4634 35.88 12.4634C32.9667 12.4634 30.605 13.3489 30.605 14.4412C30.605 15.5335 32.9667 16.419 35.88 16.419Z" fill="#FFFFF4"/>
<path d="M38.918 14.055C38.918 15.745 32.7954 15.745 32.7954 14.055C32.7954 12.3649 34.1667 10.9937 35.8567 10.9937C37.5468 10.9937 38.918 12.3649 38.918 14.055Z" fill="#FCB712"/>
<path d="M36.8704 11.8257C37.0544 11.8672 37.2333 11.932 37.3966 12.0227L37.127 12.326C36.9455 12.2353 36.7459 12.1782 36.5386 12.1601L36.873 11.8231L36.8704 11.8257Z" fill="#FFCE6C"/>
<path d="M38.3792 13.114L37.936 13.3033C37.8582 13.044 37.7182 12.8107 37.5342 12.6267L37.8193 12.3182C38.0604 12.5334 38.2548 12.8056 38.3792 13.114Z" fill="#FFCE6C"/>
<path d="M36.2821 9.66897C36.2821 10.7369 31.8262 10.7369 31.8262 9.66897C31.8262 8.60101 32.8241 7.73523 34.0528 7.73523C35.2815 7.73523 36.2795 8.60101 36.2795 9.66897H36.2821Z" fill="#5EDD7C"/>
<path d="M25.4027 14.3842C25.4027 15.4521 20.9468 15.4521 20.9468 14.3842C20.9468 13.3162 21.9448 12.4504 23.1734 12.4504C24.4021 12.4504 25.4001 13.3162 25.4001 14.3842H25.4027Z" fill="#5EDD7C"/>
<path d="M46.1607 15.4884C46.1607 16.2324 43.0527 16.2324 43.0527 15.4884C43.0527 14.7445 43.7474 14.1405 44.6054 14.1405C45.4634 14.1405 46.1581 14.7445 46.1581 15.4884H46.1607Z" fill="#5EDD7C"/>
<path d="M51.2388 12.7356C51.2388 13.2462 49.1055 13.2462 49.1055 12.7356C49.1055 12.2249 49.5824 11.8102 50.1708 11.8102C50.7593 11.8102 51.2362 12.2249 51.2362 12.7356H51.2388Z" fill="#5EDD7C"/>
<path d="M28.5547 16.6911C28.5547 17.2018 26.4214 17.2018 26.4214 16.6911C26.4214 16.1805 26.8983 15.7657 27.4868 15.7657C28.0752 15.7657 28.5521 16.1805 28.5521 16.6911H28.5547Z" fill="#5EDD7C"/>
<path d="M30.1646 13.0543C30.1646 13.565 28.0312 13.565 28.0312 13.0543C28.0312 12.5436 28.5082 12.1289 29.0966 12.1289C29.685 12.1289 30.162 12.5436 30.162 13.0543H30.1646Z" fill="#5EDD7C"/>
<path d="M17.9195 16.0664C17.9195 16.577 15.7861 16.577 15.7861 16.0664C15.7861 15.5557 16.2631 15.141 16.8515 15.141C17.4399 15.141 17.9169 15.5557 17.9169 16.0664H17.9195Z" fill="#5EDD7C"/>
<path d="M29.0992 10.4545C29.0992 13.0155 18.4092 13.0155 18.4092 10.4545C18.4092 7.89344 20.8017 5.81714 23.7542 5.81714C26.7066 5.81714 29.0992 7.89344 29.0992 10.4545Z" fill="#F7AA9C"/>
<path d="M18.7178 13.2022C18.7178 15.7632 8.02783 15.7632 8.02783 13.2022C8.02783 10.6411 10.4204 8.56482 13.3728 8.56482C16.3253 8.56482 18.7178 10.6411 18.7178 13.2022Z" fill="#F7AA9C"/>
<g opacity="0.3">
<path d="M18.7178 13.2021C18.7178 13.2384 18.7152 13.2747 18.7101 13.3084C18.5545 10.8666 16.2242 8.92769 13.3728 8.92769C10.5215 8.92769 8.19114 10.8666 8.03561 13.3084C8.03042 13.2747 8.02783 13.241 8.02783 13.2021C8.02783 10.6385 10.4178 8.56738 13.3728 8.56738C16.3279 8.56738 18.7178 10.6411 18.7178 13.2021Z" fill="white"/>
<path d="M34.0556 8.10081C35.1884 8.10081 36.1215 8.83698 36.2641 9.78571C36.2771 9.74942 36.2848 9.71054 36.2848 9.67165C36.2848 8.60369 35.2869 7.73792 34.0582 7.73792C32.8295 7.73792 31.8315 8.60369 31.8315 9.67165C31.8315 9.71054 31.8393 9.74942 31.8523 9.78571C31.9923 8.83439 32.9254 8.10081 34.0608 8.10081H34.0556Z" fill="white"/>
<path d="M23.1762 12.8133C24.309 12.8133 25.2421 13.5495 25.3847 14.4982C25.3977 14.4619 25.4054 14.4231 25.4054 14.3842C25.4054 13.3162 24.4075 12.4504 23.1788 12.4504C21.9501 12.4504 20.9521 13.3162 20.9521 14.3842C20.9521 14.4231 20.9599 14.4619 20.9729 14.4982C21.1129 13.5469 22.046 12.8133 23.1814 12.8133H23.1762Z" fill="white"/>
<path d="M44.6082 14.5034C45.3677 14.5034 46.0002 14.9778 46.135 15.6025C46.1531 15.5662 46.1635 15.5299 46.1635 15.4884C46.1635 14.7445 45.4688 14.1405 44.6108 14.1405C43.7528 14.1405 43.0581 14.7445 43.0581 15.4884C43.0581 15.5273 43.0685 15.5662 43.0866 15.6025C43.2214 14.9778 43.8539 14.5034 44.6134 14.5034H44.6082Z" fill="white"/>
<path d="M50.1708 12.1731C50.6608 12.1731 51.0677 12.4608 51.1921 12.8496C51.2181 12.8159 51.2362 12.7771 51.2362 12.7356C51.2362 12.2249 50.7593 11.8102 50.1708 11.8102C49.5824 11.8102 49.1055 12.2249 49.1055 12.7356C49.1055 12.7771 49.1236 12.8133 49.1495 12.8496C49.2765 12.4608 49.6835 12.1731 50.1708 12.1731Z" fill="white"/>
<path d="M27.4897 16.1286C27.9796 16.1286 28.3866 16.4164 28.511 16.8052C28.5369 16.7715 28.5551 16.7326 28.5551 16.6911C28.5551 16.1805 28.0781 15.7657 27.4897 15.7657C26.9013 15.7657 26.4243 16.1805 26.4243 16.6911C26.4243 16.7326 26.4425 16.7689 26.4684 16.8052C26.5954 16.4164 27.0024 16.1286 27.4897 16.1286Z" fill="white"/>
<path d="M29.0996 12.4919C29.5895 12.4919 29.9964 12.7797 30.1209 13.1685C30.1468 13.1348 30.1649 13.0959 30.1649 13.0544C30.1649 12.5438 29.688 12.129 29.0996 12.129C28.5111 12.129 28.0342 12.5438 28.0342 13.0544C28.0342 13.0959 28.0523 13.1322 28.0782 13.1685C28.2053 12.7797 28.6122 12.4919 29.0996 12.4919Z" fill="white"/>
<path d="M16.8515 15.5039C17.3414 15.5039 17.7484 15.7916 17.8728 16.1804C17.8987 16.1467 17.9169 16.1079 17.9169 16.0664C17.9169 15.5557 17.4399 15.141 16.8515 15.141C16.2631 15.141 15.7861 15.5557 15.7861 16.0664C15.7861 16.1079 15.8043 16.1442 15.8302 16.1804C15.9572 15.7916 16.3642 15.5039 16.8515 15.5039Z" fill="white"/>
<path d="M23.7542 6.1826C26.6081 6.1826 28.9333 8.12412 29.0836 10.5685C29.0888 10.5322 29.0992 10.4959 29.0992 10.457C29.0992 7.89601 26.7066 5.8197 23.7542 5.8197C20.8017 5.8197 18.4092 7.89601 18.4092 10.457C18.4092 10.4959 18.4195 10.5322 18.4247 10.5685C18.5751 8.12671 20.9002 6.1826 23.7542 6.1826Z" fill="white"/>
</g>
</g>
<defs>
<clipPath id="clip0_109_10363">
<rect width="49.6473" height="32" fill="white" transform="translate(5.17627 4)"/>
</clipPath>
</defs>
</svg>
