<svg width="60" height="40" viewBox="0 0 60 40" fill="none" xmlns="http://www.w3.org/2000/svg">
<path d="M5.67465 27.5781C5.67465 27.5781 3.17266 36.0001 20.9746 36.0001C22.2786 36.0001 31.3086 35.9721 32.4546 35.9201C51.2325 35.0541 49.5305 27.5221 49.5305 27.5221C49.5345 29.9901 5.68065 30.0501 5.67665 27.5801L5.67465 27.5781Z" fill="#FFB749"/>
<path d="M49.5282 27.52C49.5282 27.534 49.5282 27.548 49.5242 27.562C49.3442 29.05 39.5982 30.25 27.6022 30.25C15.6063 30.25 6.77231 29.16 5.76632 27.768C5.70632 27.688 5.67432 27.602 5.67432 27.52C5.67432 26.804 7.89431 26.15 11.5283 25.664C15.5323 25.126 21.2523 24.79 27.6022 24.79C38.8822 24.79 48.1722 25.852 49.3902 27.214C49.4802 27.316 49.5282 27.416 49.5282 27.52Z" fill="#C46E00"/>
<g style="mix-blend-mode:darken">
<path d="M49.3906 27.2141C47.9986 27.8361 46.2106 28.3921 43.9206 28.8141C42.0246 29.1621 39.7806 29.4181 37.1286 29.5401C35.9826 29.5921 26.9527 29.6201 25.6487 29.6201C23.6147 29.6201 21.8447 29.5101 20.3067 29.3141C15.3887 28.6921 12.8347 27.1981 11.5327 25.6621C15.5367 25.1241 21.2567 24.7881 27.6067 24.7881C38.8866 24.7881 48.1766 25.8501 49.3946 27.2121L49.3906 27.2141Z" fill="black" fill-opacity="0.16"/>
</g>
<path d="M10.5506 19.784C10.5506 19.784 8.04864 28.206 25.8506 28.206C27.1546 28.206 36.1845 28.178 37.3305 28.126C56.1085 27.26 54.4065 19.728 54.4065 19.728C54.4105 22.196 10.5566 22.256 10.5526 19.786L10.5506 19.784Z" fill="#FFB749"/>
<path d="M54.4046 19.7261C54.4046 21.2321 44.5887 22.4561 32.4787 22.4561C20.3688 22.4561 10.5508 21.2321 10.5508 19.7261C10.5508 19.3681 11.1008 19.0281 12.1048 18.7141C15.3308 17.7061 23.2367 16.9961 32.4787 16.9961C39.5207 16.9961 45.7867 17.4081 49.7987 18.0521C52.6847 18.5161 54.4026 19.0961 54.4026 19.7261H54.4046Z" fill="#C46E00"/>
<g style="mix-blend-mode:darken">
<path d="M49.7984 18.0521C47.3624 19.5301 43.1824 20.8261 36.0305 21.1561C34.8865 21.2081 25.8545 21.2361 24.5525 21.2361C18.0905 21.2361 14.3065 20.1281 12.1025 18.7141C15.3285 17.7061 23.2345 16.9961 32.4765 16.9961C39.5184 16.9961 45.7844 17.4081 49.7964 18.0521H49.7984Z" fill="black" fill-opacity="0.16"/>
</g>
<path d="M9.45639 11.4001C9.45639 11.4001 6.9544 19.8221 24.7563 19.8221C26.0603 19.8221 35.0903 19.7941 36.2363 19.7421C55.0142 18.8761 53.3122 11.3441 53.3122 11.3441C53.3162 13.8121 9.46239 13.8721 9.45839 11.4021L9.45639 11.4001Z" fill="#FFB749"/>
<path d="M53.3084 11.3421C53.3084 12.8501 43.4904 14.0721 31.3825 14.0721C19.2745 14.0721 9.45654 12.8501 9.45654 11.3421C9.45654 9.83407 19.2325 6.71008 31.3425 6.71008C43.4524 6.71008 53.3104 9.83407 53.3104 11.3421H53.3084Z" fill="#C46E00"/>
<g style="mix-blend-mode:darken">
<path d="M37.0082 8.39012C36.7522 9.44411 35.6162 10.2101 34.4382 10.9601C31.1802 11.1121 27.9742 10.9021 24.8402 10.1981C24.3102 10.0801 23.9142 9.63811 23.8522 9.09811C23.7642 8.33812 23.7642 7.64412 23.9862 7.12412C23.9982 7.08612 24.0202 7.04412 24.0482 7.00012C25.8522 6.67412 30.3802 6.08412 37.0542 6.74012C37.1422 7.41012 37.1722 8.00812 37.0102 8.39012H37.0082Z" fill="black" fill-opacity="0.16"/>
</g>
<path d="M35.1367 10.2261C36.3167 9.47606 37.4507 8.71006 37.7067 7.65607C37.9307 7.12607 37.7887 6.17607 37.6267 5.20007L34.9067 7.43407L35.1387 10.2261H35.1367Z" fill="#FCCF61"/>
<path d="M24.5506 8.36408C24.4626 7.60409 24.4606 6.91209 24.6826 6.39209L35.1366 7.54009C35.3986 8.26408 35.4126 9.15008 35.1366 10.2281C31.8786 10.3801 28.6726 10.1701 25.5386 9.46608C25.0086 9.34608 24.6126 8.90408 24.5486 8.36408H24.5506Z" fill="#FDE77A"/>
<path d="M27.7541 4.20608C27.7541 4.20608 24.9141 5.68608 24.6841 6.39208C27.9641 7.37007 31.4701 7.68807 35.138 7.54007L37.626 5.20208C36.662 3.92608 28.5921 3.80008 27.7541 4.20608Z" fill="#F8C73B"/>
<path d="M30.7145 5.20207C30.7145 5.20207 29.3425 5.00608 29.4765 5.41007C29.6105 5.81407 29.1905 5.91407 30.0905 6.15007C30.9905 6.38607 31.6285 6.15007 32.1345 6.15007C32.6405 6.15007 33.0105 5.23007 32.4385 5.20207C31.8665 5.17407 30.7145 5.20207 30.7145 5.20207Z" fill="#FFDA88"/>
</svg>
