<svg width="60" height="40" viewBox="0 0 60 40" fill="none" xmlns="http://www.w3.org/2000/svg">
<g clip-path="url(#clip0_109_10289)">
<path d="M45.1757 20.1035H14.8087C12.9061 20.1035 11.3638 18.5612 11.3638 16.6586V15.772C11.3638 -0.522161 48.6206 -0.522161 48.6206 15.772V16.6586C48.6206 18.5612 47.0783 20.1035 45.1757 20.1035Z" fill="#EFAD60"/>
<path d="M45.8833 29.0075C47.3737 29.0075 48.6283 27.8203 48.6361 26.3298C48.6361 26.3195 48.6361 26.3091 48.6361 26.3013V25.0752C48.6361 23.634 47.0938 22.4675 45.1912 22.4675H14.8268C12.9242 22.4675 11.3818 23.6366 11.3818 25.0752V26.3013C11.3818 26.3013 11.3818 26.322 11.3818 26.3298C11.3896 27.8203 12.6442 29.0075 14.1347 29.0075H45.8858H45.8833Z" fill="#9E5528"/>
<path d="M45.8833 35.5501C47.3737 35.5501 48.6283 34.3629 48.6361 32.8724C48.6361 32.8621 48.6361 32.8517 48.6361 32.8439V31.6178C48.6361 30.1766 47.0938 29.0101 45.1912 29.0101H14.8268C12.9242 29.0101 11.3818 30.1792 11.3818 31.6178V32.8439C11.3818 32.8439 11.3818 32.8646 11.3818 32.8724C11.3896 34.3629 12.6442 35.5501 14.1347 35.5501H45.8858H45.8833Z" fill="#EFAD60"/>
<path d="M43.6592 22.4623L24.7107 26.1302L16.3562 22.4623H43.6592Z" fill="#FEE45A"/>
<path d="M20.9859 13.0684C20.9859 13.0684 17.4243 14.2556 18.7566 15.5853C20.0864 16.9151 20.9859 13.0684 20.9859 13.0684Z" fill="#EFC9A3"/>
<path d="M26.3387 6.8446C26.3387 6.8446 22.777 8.03181 24.1094 9.36158C25.4392 10.6913 26.3387 6.8446 26.3387 6.8446Z" fill="#EFC9A3"/>
<path d="M24.8765 12.5033C24.8765 12.5033 22.9558 15.8627 24.8377 15.8653C26.7196 15.8679 24.8765 12.5033 24.8765 12.5033Z" fill="#EFC9A3"/>
<path d="M35.1544 12.5033C35.1544 12.5033 33.2336 15.8627 35.1155 15.8653C36.9974 15.8679 35.1544 12.5033 35.1544 12.5033Z" fill="#EFC9A3"/>
<path d="M29.9159 12.5033C29.9159 12.5033 27.9951 15.8627 29.877 15.8653C31.7589 15.8679 29.9159 12.5033 29.9159 12.5033Z" fill="#EFC9A3"/>
<path d="M29.9159 6.56213C29.9159 6.56213 27.9951 9.92155 29.877 9.92414C31.8263 9.92673 29.9159 6.56213 29.9159 6.56213Z" fill="#EFC9A3"/>
<path d="M39.0142 13.0684C39.0142 13.0684 42.5758 14.2556 41.2434 15.5853C39.9136 16.9151 39.0142 13.0684 39.0142 13.0684Z" fill="#EFC9A3"/>
<path d="M33.4644 6.8446C33.4644 6.8446 37.026 8.03181 35.6936 9.36158C34.3612 10.6913 33.4644 6.8446 33.4644 6.8446Z" fill="#EFC9A3"/>
<path d="M47.4646 20.119H12.6133C11.9963 20.119 11.439 20.5701 11.3846 21.187C11.325 21.8817 11.8693 22.4623 12.5511 22.4623H12.7429C13.8108 22.4623 14.5081 23.481 14.2541 24.5179C14.1919 24.7667 14.2593 25.0078 14.3785 25.2178C14.7544 25.8736 15.7264 25.9047 16.0712 25.2333C16.1308 25.1193 16.1619 24.9948 16.1515 24.8626C16.0349 23.564 17.1055 22.4623 18.4093 22.4623H47.405C48.0219 22.4623 48.5793 22.0113 48.6337 21.3944C48.6933 20.6997 48.149 20.119 47.4672 20.119H47.4646Z" fill="#E94444"/>
</g>
<defs>
<clipPath id="clip0_109_10289">
<rect width="37.2724" height="32" fill="white" transform="translate(11.3638 3.55005)"/>
</clipPath>
</defs>
</svg>
