<svg width="60" height="40" viewBox="0 0 60 40" fill="none" xmlns="http://www.w3.org/2000/svg">
<g clip-path="url(#clip0_109_10511)">
<path d="M13.8379 36V27.8092V21.0187L46.1626 12.2963V28.6372L13.8379 36Z" fill="#9A663E"/>
<path d="M13.8379 26.1329L46.1626 18.5063V23.4338L13.8379 30.9467V26.1329Z" fill="#E2D9C9"/>
<path d="M13.8379 21.0187L23.7821 7.77062C24.606 6.67473 25.8683 5.99284 27.2362 5.89137C36.7501 5.18107 43.0738 7.30791 46.1585 12.3003L13.8379 21.0187Z" fill="#7F5332"/>
<path d="M46.1627 12.2963C45.0019 11.8945 42.1079 11.0705 41.8319 11.3871C41.4138 11.8661 19.4108 18.9812 19.4108 18.9812C19.4108 18.9812 15.2302 20.6291 13.8421 21.0147C13.7731 21.104 13.7122 22.8493 15.5265 22.48C16.2571 22.3298 16.3829 20.3328 17.9699 19.9026C18.9765 19.6306 20.0967 21.9158 21.0709 21.7494C22.4549 21.514 22.8527 18.7621 24.6792 18.9163C26.5057 19.0746 24.2611 26.896 28.5554 26.068C32.8497 25.24 28.4255 17.7879 31.3398 17.5485C34.1769 17.313 32.1597 21.1121 35.4108 20.6819C37.7487 20.3694 36.3078 17.9787 37.1115 16.6312C37.1277 16.6068 37.1399 16.5824 37.1561 16.5581C37.1602 16.554 37.1642 16.5459 37.1683 16.5419C37.1845 16.5175 37.2008 16.4972 37.217 16.4729C37.2211 16.4647 37.2251 16.4607 37.2332 16.4566C37.2495 16.4363 37.2698 16.412 37.2901 16.3917C37.2941 16.3876 37.2982 16.3795 37.3063 16.3754C37.3266 16.3552 37.3469 16.3308 37.3712 16.3105C37.3712 16.3105 37.3793 16.3064 37.3793 16.3024C37.3996 16.2821 37.424 16.2618 37.4483 16.2456C37.4524 16.2456 37.4565 16.2374 37.4605 16.2334C37.4849 16.2131 37.5133 16.1928 37.5376 16.1766C37.5458 16.1725 37.5498 16.1684 37.5579 16.1644C37.5863 16.1441 37.6148 16.1279 37.6432 16.1116C37.6513 16.1116 37.6553 16.1035 37.6635 16.0994C37.6919 16.0832 37.7244 16.0629 37.7568 16.0467C37.7609 16.0467 37.769 16.0426 37.7731 16.0386C37.8055 16.0223 37.838 16.0061 37.8745 15.9899C37.8745 15.9899 37.8786 15.9899 37.8826 15.9899C37.9192 15.9736 37.9557 15.9574 37.9963 15.9452C38.0044 15.9452 38.0085 15.9411 38.0166 15.9371C38.0531 15.9249 38.0937 15.9087 38.1343 15.8965C38.1424 15.8965 38.1505 15.8924 38.1586 15.8884C38.1992 15.8762 38.2439 15.864 38.2885 15.8519C38.2966 15.8519 38.3048 15.8519 38.3129 15.8478C38.3575 15.8356 38.4062 15.8275 38.4549 15.8153C38.459 15.8153 38.4631 15.8153 38.4671 15.8153C38.5158 15.8072 38.5645 15.795 38.6173 15.7869C38.6214 15.7869 38.6295 15.7869 38.6335 15.7869C38.6863 15.7788 38.7391 15.7707 38.7959 15.7666C38.804 15.7666 38.8162 15.7666 38.8243 15.7666C38.8771 15.7585 38.9339 15.7544 38.9907 15.7504C39.0029 15.7504 39.011 15.7504 39.0232 15.7504C39.0841 15.7463 39.1409 15.7423 39.2058 15.7382C39.214 15.7382 39.2221 15.7382 39.2302 15.7382C39.2951 15.7382 39.3641 15.7341 39.4331 15.7301C39.4697 15.7301 39.5021 15.7301 39.5346 15.7301C39.5427 15.7301 39.5468 15.7301 39.5549 15.7301C39.5874 15.7301 39.6158 15.7301 39.6442 15.7341C39.6482 15.7341 39.6564 15.7341 39.6604 15.7341C39.6888 15.7341 39.7172 15.7423 39.7457 15.7463C39.7741 15.7504 39.7984 15.7544 39.8268 15.7626C39.8309 15.7626 39.835 15.7626 39.839 15.7626C39.8634 15.7666 39.8877 15.7747 39.908 15.7829C39.908 15.7829 39.9161 15.7829 39.9202 15.7829C39.9445 15.791 39.9648 15.7991 39.9851 15.8072C40.0054 15.8153 40.0257 15.8234 40.046 15.8356C40.046 15.8356 40.0541 15.8356 40.0541 15.8397C40.0744 15.8478 40.0907 15.86 40.1069 15.8721C40.1069 15.8721 40.111 15.8721 40.115 15.8762C40.1515 15.9006 40.184 15.9249 40.2124 15.9493C40.2124 15.9493 40.2165 15.9493 40.2205 15.9533C40.2368 15.9655 40.249 15.9817 40.2611 15.9939C40.2895 16.0264 40.318 16.0589 40.3423 16.0913C40.3545 16.1076 40.3667 16.1238 40.3748 16.14C40.3991 16.1725 40.4194 16.209 40.4397 16.2456C40.6711 16.6555 40.7807 17.1547 41.7426 17.1385C42.4773 17.1263 42.7492 16.5297 42.9724 15.9736C42.9887 15.9371 43.0009 15.9006 43.0171 15.864C43.0293 15.8397 43.0374 15.8113 43.0496 15.7869C43.0536 15.7747 43.0577 15.7666 43.0617 15.7544C43.0699 15.7341 43.078 15.7139 43.0861 15.6936C43.0902 15.6814 43.0942 15.6692 43.1023 15.657C43.1105 15.6408 43.1186 15.6205 43.1267 15.6043C43.1307 15.5921 43.1389 15.5799 43.1429 15.5677C43.151 15.5515 43.1592 15.5353 43.1673 15.519C43.1713 15.5068 43.1795 15.4947 43.1835 15.4825C43.1916 15.4663 43.1997 15.4541 43.2079 15.4378C43.2119 15.4257 43.22 15.4135 43.2282 15.4054C43.2363 15.3932 43.2444 15.377 43.2525 15.3648C43.2606 15.3526 43.2647 15.3445 43.2728 15.3323C43.2809 15.3201 43.289 15.308 43.2972 15.2958C43.3053 15.2836 43.3093 15.2755 43.3175 15.2674C43.3256 15.2552 43.3337 15.243 43.3418 15.2349C43.3499 15.2268 43.358 15.2187 43.3621 15.2065C43.3702 15.1943 43.3824 15.1862 43.3905 15.174C43.3986 15.1659 43.4067 15.1578 43.4149 15.1497C43.423 15.1416 43.4352 15.1334 43.4473 15.1253C43.4555 15.1172 43.4636 15.1131 43.4717 15.105C43.4839 15.0969 43.496 15.0888 43.5042 15.0847C43.5123 15.0807 43.5204 15.0726 43.5285 15.0685C43.5407 15.0604 43.5529 15.0563 43.565 15.0523C43.5732 15.0523 43.5813 15.0441 43.5894 15.0401C43.6056 15.036 43.6219 15.032 43.634 15.0279C43.6422 15.0279 43.6503 15.0238 43.6584 15.0238C43.6827 15.0198 43.7071 15.0157 43.7355 15.0157C44.6 14.9995 44.6934 15.795 45.6066 15.6286C45.6229 15.6286 45.6432 15.6205 45.6594 15.6124H45.6675C45.6838 15.6043 45.7 15.6002 45.7162 15.5921C45.7162 15.5921 45.7203 15.5921 45.7244 15.588C45.7406 15.5799 45.7528 15.5677 45.769 15.5596C45.7852 15.5474 45.7974 15.5353 45.8096 15.5231C45.8096 15.5231 45.8136 15.519 45.8177 15.515C45.8299 15.5028 45.8421 15.4866 45.8542 15.4703C45.8542 15.4703 45.8542 15.4663 45.8583 15.4622C45.8705 15.446 45.8826 15.4297 45.8908 15.4135C45.8908 15.4135 45.8908 15.4135 45.8908 15.4094C45.9029 15.3891 45.9111 15.3729 45.9232 15.3526C45.9232 15.3526 45.9232 15.3445 45.9273 15.3404C45.9395 15.3201 45.9476 15.2998 45.9557 15.2755C45.9557 15.2755 45.9557 15.2755 45.9557 15.2714C45.9638 15.2471 45.976 15.2268 45.9841 15.2024C45.9841 15.2024 45.9841 15.1984 45.9841 15.1943C45.9922 15.17 46.0004 15.1456 46.0085 15.1172C46.0085 15.1172 46.0085 15.1091 46.0085 15.105C46.0247 15.0523 46.0409 14.9954 46.0531 14.9346C46.0531 14.9346 46.0531 14.9346 46.0531 14.9305C46.0612 14.9021 46.0653 14.8696 46.0734 14.8412C46.0734 14.8412 46.0734 14.8371 46.0734 14.8331C46.0856 14.7681 46.0937 14.7032 46.1059 14.6383C46.2155 13.8184 46.1384 12.3166 46.1384 12.3166L46.1627 12.2963Z" fill="#7F5332"/>
<path d="M33.3325 6.28919C33.3325 6.28919 33.8764 4.88483 32.2934 4C32.2934 4 31.6724 5.62354 33.3325 6.28919Z" fill="#57AD6B"/>
<path d="M32.6668 6.31354C32.6668 6.31354 32.7277 4.80771 30.9377 4.48706C30.9377 4.48706 30.8769 6.22425 32.6668 6.31354Z" fill="#57AD6B"/>
<path d="M32.752 5.95631C32.752 5.95631 33.6855 4.77518 35.2522 5.69248C35.2522 5.69248 34.1685 7.0522 32.752 5.95631Z" fill="#57AD6B"/>
<path d="M33.0688 6.54081C33.0688 6.54081 34.3352 5.72904 35.5204 7.10499C35.5204 7.10499 34.0551 8.03852 33.0688 6.54081Z" fill="#57AD6B"/>
<path d="M33.1135 5.99696C32.0907 5.41249 30.2318 4.3166 28.8152 6.7925C27.695 8.75293 28.3241 10.758 28.8436 11.8377C29.0993 12.3694 29.6554 12.686 30.2399 12.6372C31.4332 12.5358 33.4829 12.0649 34.6031 10.1045C36.0197 7.63268 34.1364 6.58144 33.1095 5.99696H33.1135Z" fill="#EA0738"/>
<path d="M25.58 8.39173C25.58 8.39173 25.0361 6.98737 26.619 6.10254C26.619 6.10254 27.24 7.72608 25.58 8.39173Z" fill="#64C37D"/>
<path d="M26.2459 8.41608C26.2459 8.41608 26.185 6.91025 27.9749 6.5896C27.9749 6.5896 28.0358 8.32679 26.2459 8.41608Z" fill="#64C37D"/>
<path d="M26.1604 8.05885C26.1604 8.05885 25.2269 6.87772 23.6602 7.79502C23.6602 7.79502 24.7439 9.15474 26.1604 8.05885Z" fill="#64C37D"/>
<path d="M25.8441 8.64335C25.8441 8.64335 24.5778 7.83158 23.3926 9.20753C23.3926 9.20753 24.8578 10.1411 25.8441 8.64335Z" fill="#64C37D"/>
<path d="M25.7992 8.10353C26.8221 7.51906 28.681 6.42317 30.0976 8.89907C31.2178 10.8595 30.5887 12.8646 30.0692 13.9442C29.8134 14.4759 29.2574 14.7925 28.6729 14.7438C27.4796 14.6423 25.4299 14.1715 24.3096 12.2111C22.8931 9.73925 24.7764 8.68801 25.8033 8.10353H25.7992Z" fill="#FF0C38"/>
</g>
<defs>
<clipPath id="clip0_109_10511">
<rect width="32.3734" height="32" fill="white" transform="translate(13.8135 4)"/>
</clipPath>
</defs>
</svg>
