<svg width="60" height="40" viewBox="0 0 60 40" fill="none" xmlns="http://www.w3.org/2000/svg">
<g clip-path="url(#clip0_109_10305)">
<path d="M36.4507 24.6541L40.637 17.0229L41.8372 10.0811C41.889 9.71562 41.6376 9.37605 41.2721 9.32421L39.4939 9.065C39.1284 9.01315 38.7888 9.26459 38.737 9.63008L36.4507 24.6541Z" fill="#FFE170"/>
<path d="M29.9806 4C30.8438 4 31.5463 4.70247 31.5463 5.56565V28.3247H28.4124V5.56565C28.4124 4.70247 29.1148 4 29.9806 4Z" fill="#FFCD70"/>
<path d="M26.8468 5.52673C27.7126 5.52673 28.4125 6.2292 28.4125 7.09239V29.8514H25.2786V7.09239C25.2786 6.22661 25.981 5.52673 26.8442 5.52673H26.8468Z" fill="#FFB65C"/>
<path d="M23.2039 7.06242C24.0658 6.97989 24.8294 7.61245 24.9117 8.4717L27.0812 31.1271L23.9616 31.4258L21.7923 8.77302C21.7098 7.91119 22.3423 7.14753 23.2016 7.06525L23.2039 7.06242Z" fill="#FFE170"/>
<path d="M27.912 8.6814C28.7778 8.6814 29.4777 9.38387 29.4777 10.2471V25.1234H26.3438V10.2496C26.3438 9.38387 27.0462 8.68399 27.9094 8.68399L27.912 8.6814Z" fill="#FFE170"/>
<path d="M23.4537 10.746C24.3155 10.6635 25.0792 11.296 25.1615 12.1553L26.5795 26.9639L23.4599 27.2626L22.0418 12.454C21.9593 11.5922 22.5918 10.8285 23.4511 10.7463L23.4537 10.746Z" fill="#FFCD70"/>
<path d="M23.508 24.6541L19.3632 17.0229L18.163 10.0811C18.1112 9.71562 18.3626 9.37605 18.7281 9.32421L20.5063 9.065C20.8718 9.01315 21.2114 9.26459 21.2632 9.63008L23.508 24.6541Z" fill="#FFCD70"/>
<path d="M34.6802 29.8514H31.5463L31.5463 7.09243C31.5463 6.22665 32.2487 5.52677 33.1119 5.52677C33.9777 5.52677 34.6776 6.22924 34.6776 7.09243V29.8514H34.6802Z" fill="#FFE170"/>
<path d="M35.9983 31.4314L32.8787 31.1327L35.0482 8.47729C35.1307 7.61545 35.8967 6.98572 36.7559 7.06801C37.6178 7.15053 38.2475 7.91652 38.1652 8.77578L35.9957 31.4311L35.9983 31.4314Z" fill="#FFB65C"/>
<path d="M32.3591 27.2634L29.2395 26.9647L30.6576 12.1561C30.7401 11.2943 31.5061 10.6646 32.3653 10.7468C33.2272 10.8294 33.8569 11.5954 33.7746 12.4546L32.3565 27.2632L32.3591 27.2634Z" fill="#FFB65C"/>
<path d="M36.0002 27.8729L32.8806 27.5742L34.2987 12.7656C34.3812 11.9038 35.1472 11.2741 36.0065 11.3563C36.8683 11.4389 37.498 12.2049 37.4157 13.0641L35.9977 27.8727L36.0002 27.8729Z" fill="#FFCD70"/>
<path d="M38.33 17.0229C37.3864 17.0229 36.531 17.5595 36.1007 18.3968C34.955 20.626 32.6325 22.1502 29.9548 22.1502C27.2771 22.1502 24.9545 20.626 23.8088 18.3968C23.3785 17.5569 22.5231 17.0229 21.5796 17.0229H19.3633L22.9041 33.7475C23.0156 35.0202 24.0836 36 25.3615 36H34.6388C35.9167 36 36.9847 35.0228 37.0961 33.7475L40.637 17.0229H38.33Z" fill="#CE2A19"/>
<path d="M34.6387 36C35.9166 36 36.9846 35.0228 37.0961 33.7475L40.6369 17.0229H38.3299C37.3864 17.0229 36.531 17.5595 36.1007 18.3968L33.5759 36H34.6387Z" fill="#B21A12"/>
<path d="M28.4123 30.6861C29.8683 30.6861 31.0485 29.5058 31.0485 28.0499C31.0485 26.594 29.8683 25.4137 28.4123 25.4137C26.9564 25.4137 25.7761 26.594 25.7761 28.0499C25.7761 29.5058 26.9564 30.6861 28.4123 30.6861Z" fill="white"/>
</g>
<defs>
<clipPath id="clip0_109_10305">
<rect width="23.6896" height="32" fill="white" transform="translate(18.1553 4)"/>
</clipPath>
</defs>
</svg>
