<svg width="60" height="40" viewBox="0 0 60 40" fill="none" xmlns="http://www.w3.org/2000/svg">
<g clip-path="url(#clip0_109_10400)">
<path d="M48.9601 16.3982C48.8953 18.109 45.9869 19.6306 41.5025 20.6026C38.2701 21.3025 34.2186 21.7225 29.8197 21.7225C28.9462 21.7225 28.0882 21.7043 27.2431 21.6732C17.9581 21.3233 10.783 19.0992 10.6768 16.3982H48.9601Z" fill="#1A292D"/>
<path d="M29.8171 23.0081C41.0466 23.0081 50.1499 20.0488 50.1499 16.3982C50.1499 12.7476 41.0466 9.78821 29.8171 9.78821C18.5877 9.78821 9.48438 12.7476 9.48438 16.3982C9.48438 20.0488 18.5877 23.0081 29.8171 23.0081Z" fill="#1A292D"/>
<path d="M45.3728 13.2021C44.6055 12.9014 43.7319 12.624 42.7651 12.3752C42.6536 11.919 42.5136 11.5276 42.3633 11.1984C43.312 11.4394 44.1907 11.709 44.9943 12.0019C44.9943 12.0071 44.9995 12.0175 45.0021 12.0227L45.015 12.0538C45.1447 12.3804 45.2665 12.764 45.3728 13.1995V13.2021Z" fill="#304044"/>
<path d="M29.8173 12.243C39.6156 12.243 47.6901 14.3141 48.8203 16.984C48.9084 16.774 48.9603 16.5589 48.9603 16.3412C48.9603 13.368 40.3906 10.9573 29.8173 10.9573C19.2439 10.9573 10.6743 13.3654 10.6743 16.3386C10.6743 16.5563 10.7262 16.7715 10.8143 16.9814C11.9445 14.3115 20.019 12.2404 29.8173 12.2404V12.243Z" fill="#1A292D"/>
<path d="M50.1189 16.7715C49.5487 27.4875 40.6784 36.0001 29.8173 36.0001C18.9562 36.0001 10.0885 27.4875 9.51562 16.7715C9.9848 19.5244 15.6383 21.8288 23.3577 22.6687C25.2033 22.8709 27.1655 22.9875 29.2055 23.0056C29.3455 23.0056 29.4855 23.0056 29.6255 23.0056H29.8173C32.7905 23.0056 35.6133 22.7983 38.1588 22.425C39.0298 22.3006 39.867 22.1502 40.6654 21.9869C42.2129 21.6681 43.6204 21.2845 44.8491 20.8438C47.9001 19.7577 49.8494 18.3346 50.1164 16.7664L50.1189 16.7715Z" fill="#1A292D"/>
<path d="M49.1338 14.3348C49.1338 14.3348 49.1234 14.3245 49.1182 14.3193C49.0482 14.2493 48.9731 14.1819 48.8953 14.1145C48.859 14.0808 48.8253 14.0497 48.7864 14.016C48.7139 13.9564 48.6361 13.8968 48.5609 13.8371C48.5169 13.8034 48.478 13.7697 48.4313 13.736C48.3691 13.692 48.3043 13.6453 48.2369 13.5987C48.1851 13.5624 48.1306 13.5261 48.0736 13.4898C48.0529 13.4742 48.0321 13.4613 48.0088 13.4457C47.9284 13.3939 47.8481 13.342 47.7651 13.2902C47.7133 13.2617 47.664 13.228 47.6096 13.1969C47.467 13.1139 47.3193 13.031 47.1664 12.9506C47.1041 12.9169 47.0393 12.8858 46.9771 12.8547C46.8994 12.8158 46.8242 12.7744 46.7438 12.7381C46.7335 12.7329 46.7231 12.7277 46.7127 12.7251C46.6453 12.6914 46.5753 12.6603 46.5079 12.6292C46.4172 12.5877 46.3265 12.5463 46.2332 12.5048C46.1632 12.4737 46.0932 12.4426 46.0232 12.4141C45.9195 12.37 45.8133 12.3259 45.707 12.2819C45.6448 12.2559 45.5826 12.23 45.5177 12.2067C45.3467 12.1393 45.1704 12.0719 44.9915 12.0071C44.9915 12.0123 44.9967 12.0226 44.9993 12.0278L45.0123 12.0589C45.1419 12.3855 45.2637 12.7692 45.37 13.2047C45.6422 13.3109 45.8988 13.4198 46.1425 13.5313C46.1736 13.5442 46.2021 13.5598 46.2332 13.5727C46.3084 13.609 46.3809 13.6427 46.4535 13.679C46.5054 13.7049 46.5572 13.7309 46.6065 13.7568C46.6402 13.7749 46.6739 13.7931 46.7075 13.8112C46.7801 13.8475 46.8501 13.8864 46.9175 13.9253C47.0134 13.9771 47.1041 14.0316 47.1949 14.086C47.1949 14.086 47.2001 14.0886 47.2026 14.0912C47.283 14.1404 47.3608 14.1923 47.4385 14.2415C47.4774 14.2674 47.5163 14.2934 47.5552 14.3193C47.6226 14.3659 47.69 14.4126 47.7522 14.4618C47.8325 14.5215 47.9077 14.5837 47.9803 14.6433C47.9829 14.6433 47.9855 14.6485 47.9881 14.6511C48.0451 14.7003 48.0995 14.7496 48.1514 14.7988C48.1695 14.817 48.1903 14.8325 48.2084 14.8507C48.2395 14.8818 48.268 14.9103 48.2965 14.9414C48.3276 14.9751 48.3613 15.0088 48.3898 15.0425C48.4158 15.071 48.4391 15.1021 48.465 15.1332C48.4935 15.1669 48.522 15.2032 48.548 15.2369C48.5713 15.2654 48.592 15.2965 48.6128 15.325C48.6361 15.3613 48.6594 15.3976 48.6828 15.4339C48.7009 15.4624 48.719 15.4935 48.7346 15.522C48.7553 15.5609 48.7735 15.5972 48.7916 15.6361C48.8046 15.6646 48.8201 15.6931 48.8305 15.7216C48.8487 15.7631 48.8616 15.8072 48.8772 15.8512C48.8849 15.8746 48.8953 15.9005 48.9005 15.9238C48.9186 15.9886 48.9316 16.0508 48.942 16.1156C48.9472 16.1519 48.9497 16.1908 48.9523 16.2271C48.9549 16.2686 48.9601 16.31 48.9601 16.3489C48.9601 16.3671 48.9601 16.3904 48.9601 16.4085C48.916 17.5854 47.5293 18.6689 45.2119 19.5476C44.1569 19.9494 42.9049 20.3071 41.4999 20.6104C40.6212 20.8022 39.6777 20.9707 38.6875 21.1185C36.0357 21.5099 33.0184 21.7302 29.8171 21.7302C29.519 21.7302 29.2235 21.7302 28.9306 21.725C28.3604 21.7198 27.7979 21.7043 27.2406 21.6836C25.6464 21.6239 24.1118 21.5073 22.6706 21.344C15.7003 20.556 10.7649 18.6482 10.6768 16.4085C10.6768 16.3904 10.6768 16.3671 10.6768 16.3489C10.6768 13.9875 16.0788 11.9812 23.5934 11.2554C25.5453 11.0661 27.6397 10.965 29.8197 10.965C34.8122 10.965 39.3614 11.5016 42.7701 12.3829C42.6586 11.9267 42.5186 11.5353 42.3683 11.2061C38.913 10.3248 34.5556 9.79858 29.8197 9.79858C27.6216 9.79858 25.5064 9.91264 23.5234 10.1226C15.3711 10.9754 9.48438 13.4639 9.48438 16.3982C9.48438 16.5226 9.49474 16.647 9.51548 16.7689C9.98466 19.5217 15.6381 21.8261 23.3575 22.666C25.2031 22.8682 27.1654 22.9848 29.2054 23.003C29.3454 23.003 29.4853 23.003 29.6253 23.003H29.8171C32.7903 23.003 35.6132 22.7956 38.1587 22.4223C39.0296 22.2979 39.8669 22.1475 40.6653 21.9842C42.2128 21.6654 43.6203 21.2818 44.849 20.8411C47.8999 19.755 49.8492 18.3319 50.1162 16.7637C50.137 16.6392 50.1473 16.5174 50.1473 16.393C50.1473 15.6724 49.7896 14.9777 49.1312 14.3271L49.1338 14.3348Z" fill="#304044"/>
<path d="M36.2584 17.8783C36.1962 18.3423 36.1106 18.8348 36.0044 19.3533C35.8773 19.9598 35.7089 20.5456 35.5119 21.1081C33.3008 21.4348 30.833 21.6421 28.215 21.7017C27.6965 21.7147 27.1729 21.7199 26.6415 21.7199C26.3434 21.7199 26.0479 21.7199 25.755 21.7147C25.7369 21.6732 25.7136 21.6343 25.6954 21.5929C24.6534 21.5307 23.6398 21.4425 22.6704 21.3311C21.4676 21.1963 20.3297 21.0252 19.2617 20.8282C18.3752 18.8426 17.4083 15.929 17.1984 12.2897C17.1776 11.9423 17.1647 11.5872 17.1595 11.2269C17.1543 11.0999 17.1543 10.9729 17.1543 10.8433C17.1543 9.60421 17.4498 8.46108 18.2767 8.41183C22.1157 8.1889 20.8974 4 23.1655 4C24.4978 4 25.2547 4.39401 25.6799 4.82689C26.105 5.25978 26.7297 5.32458 27.2429 5.04204C27.4918 4.90466 27.8028 4.67914 28.1476 4.54176C28.4846 4.40178 28.8552 4.34475 29.2285 4.53398C30.7579 5.30903 30.3976 6.70879 31.2374 7.66529C32.0643 8.60624 33.1737 9.42017 33.941 9.92823C34.011 9.97489 34.0784 10.019 34.1432 10.0604C34.5916 10.3482 34.9856 10.7292 35.2993 11.1828C35.4782 11.4394 35.6311 11.722 35.7503 12.0253C35.7555 12.0356 35.7581 12.046 35.7633 12.0564C35.911 12.4271 36.051 12.8625 36.1599 13.3732C36.4035 14.4982 36.5124 15.9835 36.2584 17.8809V17.8783Z" fill="#258C38"/>
<path d="M42.3347 17.8784C42.2699 18.3424 42.187 18.8349 42.0781 19.3533C42.0729 19.3844 42.0703 19.9469 42.0677 20.4731C41.8811 20.5146 41.6919 20.5586 41.5 20.6001C40.6213 20.7919 39.6778 20.9604 38.6876 21.1082C36.0358 21.4996 33.0186 21.7199 29.8173 21.7199C29.5192 21.7199 29.2237 21.7199 28.9307 21.7147C28.6897 21.7147 28.4512 21.7095 28.2127 21.7018C27.6943 21.7147 27.1707 21.7199 26.6393 21.7199C26.3412 21.7199 26.0457 21.7199 25.7528 21.7147C25.7346 21.6733 25.7113 21.6344 25.6932 21.5929C24.6537 19.4725 23.3136 15.9109 23.2332 11.2788C23.2332 11.1336 23.228 10.9884 23.228 10.8407C23.228 10.5996 23.2384 10.3663 23.2617 10.1408C23.3602 9.20246 23.6842 8.45074 24.3504 8.40926C27.3288 8.23818 27.264 5.67455 28.1479 4.5366C28.3994 4.2074 28.7337 3.99744 29.2418 3.99744C30.5768 3.99744 31.3311 4.39144 31.7562 4.82433C32.1839 5.25722 32.806 5.32202 33.3218 5.03948C33.8169 4.76471 34.5557 4.15037 35.3048 4.52883C36.8368 5.30388 36.4739 6.70363 37.3163 7.66013C38.221 8.68662 39.4574 9.56536 40.2221 10.0553C40.5798 10.2834 40.9013 10.5763 41.1786 10.9159C41.4404 11.2373 41.6582 11.6002 41.8215 12.002C41.8215 12.0072 41.8267 12.0175 41.8292 12.0227L41.8422 12.0538C41.8552 12.0875 41.8681 12.1212 41.8837 12.1549C41.9977 12.4582 42.1066 12.8055 42.1999 13.1995C42.2129 13.254 42.2258 13.311 42.2388 13.3706C42.4825 14.4956 42.5913 15.9809 42.3399 17.8784H42.3347Z" fill="#44C660"/>
<path d="M43.5194 12.9533L42.2829 7.59012C42.1896 6.21887 43.9263 6.09963 44.0197 7.47088L43.5194 12.9533Z" fill="#44C660"/>
<path d="M43.6357 12.7511L45.8961 7.73271C46.653 6.58439 48.1072 7.54089 47.3503 8.68921L43.6357 12.7511Z" fill="#44C660"/>
<path d="M43.9132 11.5017L44.3695 6.0167C44.6987 4.68175 46.3887 5.09908 46.0595 6.43403L43.9106 11.5017H43.9132Z" fill="#44C660"/>
<path d="M42.599 20.346C43.1718 19.4362 43.7188 18.5315 44.2372 17.6269C44.6364 16.9322 45.0174 16.2401 45.3803 15.5506C45.4918 15.3432 45.5981 15.1332 45.7044 14.9259C45.9273 14.4904 46.1424 14.0575 46.3472 13.6272C46.4872 13.3343 46.6246 13.0414 46.7594 12.7485C46.8579 12.5307 46.9538 12.3182 47.0471 12.1004C47.4333 10.6359 41.2433 9.00023 40.8571 10.4674C40.8389 10.5918 40.8234 10.7136 40.8052 10.8381C40.756 11.188 40.7067 11.5431 40.6575 11.9008C40.5927 12.3933 40.5279 12.891 40.4631 13.3965C40.4294 13.6557 40.3982 13.9175 40.3645 14.1819C40.2246 15.3017 40.0924 16.4526 39.9654 17.6269C39.8461 18.7156 39.7321 19.8276 39.6206 20.963L42.5912 20.346H42.599Z" fill="#E89E0C"/>
<path d="M19.6742 20.906C19.1662 20.8178 18.6763 20.7219 18.2019 20.6182C17.8209 20.5353 17.4476 20.4497 17.0899 20.3616C15.9752 20.0817 14.9773 19.768 14.1219 19.4233L12.9269 16.1079L12.621 15.2629L12.24 14.2079L11.9056 13.2747L10.8843 10.4518L15.5009 8.79028L15.7601 9.53682L15.9934 10.2108L16.4133 11.4291L16.7477 12.4037L17.051 13.2902L17.3413 14.1275L19.6768 20.906H19.6742Z" fill="white"/>
<path d="M15.4954 8.78769L14.1086 8.58032L9.89893 9.99304L10.8788 10.4518L15.4954 8.78769Z" fill="#F6F7F0"/>
<path d="M14.1189 19.4207C14.1189 19.4207 14.1008 19.4155 14.093 19.4103L12.9291 18.8763L12.2785 16.9659L11.9078 15.8824L11.5216 14.7496L11.1794 13.7542L9.89893 9.99304L10.8788 10.4493L11.9001 13.2721L12.2344 14.2053L12.6155 15.2603L12.9214 16.1053L14.1163 19.4207H14.1189Z" fill="#E4E5DF"/>
<path d="M23.5026 21.4218C23.2226 21.3933 22.9453 21.3648 22.6679 21.3337C21.6181 21.2144 20.6201 21.0693 19.6714 20.906C19.1633 20.8178 18.6734 20.7219 18.199 20.6182L15.9983 14.5267L15.7054 13.7205L15.3736 12.8029L15.034 11.862L14.6167 10.7059L15.9828 10.2134L19.2307 9.04431L19.7854 10.6514L20.1431 11.6935L20.4309 12.5282L20.7419 13.4328L23.4948 21.4244L23.5026 21.4218Z" fill="white"/>
<path d="M19.2362 9.04172L17.8494 8.83435L13.6372 10.2471L14.6196 10.7059L19.2362 9.04172Z" fill="#F6F7F0"/>
<path d="M18.2016 20.6182C17.8206 20.5353 17.4473 20.4497 17.0896 20.3616L15.1973 14.817L14.9226 14.0212L14.5986 13.0725L14.2771 12.1367L13.6343 10.2496L14.6167 10.7033L15.034 11.8619L15.3736 12.8029L15.7054 13.7205L15.9983 14.5267L18.199 20.6182H18.2016Z" fill="#E4E5DF"/>
<path d="M28.2124 21.7043C27.694 21.7173 27.1704 21.7225 26.639 21.7225C26.3409 21.7225 26.0454 21.7225 25.7525 21.7173C25.7343 21.6758 25.711 21.6369 25.6929 21.5955C26.2009 21.6292 26.7168 21.6551 27.2378 21.6732C27.5618 21.6862 27.8832 21.6966 28.2098 21.7017L28.2124 21.7043Z" fill="#304044"/>
<path d="M46.4121 15.8513L46.8528 11.7505C47.1249 10.7551 48.3821 11.0999 48.1126 12.0926L46.4121 15.8513Z" fill="#44C660"/>
<path d="M50.1705 13.7724L49.1336 14.3323L48.4286 14.7134L48.2031 14.8352L46.5415 15.7321L47.752 14.4516L47.9102 14.2831L48.4286 13.7335L49.3721 12.733C50.1886 12.1057 50.987 13.1399 50.1653 13.7698L50.1705 13.7724Z" fill="#44C660"/>
<path d="M47.0469 14.9181L48.7188 11.1465C49.2813 10.2808 50.3752 10.9936 49.8127 11.8568L47.0469 14.9181Z" fill="#44C660"/>
<path d="M49.1233 16.1131C49.0714 16.1727 49.0144 16.2323 48.96 16.2894C48.8952 16.3594 48.8278 16.4319 48.7604 16.5019C48.5945 16.6756 48.426 16.8493 48.2523 17.0229C48.0009 17.277 47.7417 17.531 47.4773 17.785C47.3528 17.9069 47.2258 18.0261 47.0962 18.1453C46.6841 18.529 46.259 18.9126 45.8235 19.2911C45.6291 19.374 45.4243 19.457 45.2117 19.5373C44.206 19.9184 43.024 20.2631 41.6968 20.556C42.0519 19.7836 42.407 19.0267 42.7544 18.2853C43.1328 17.4843 43.5087 16.7041 43.8845 15.9446C43.9727 15.7658 44.0582 15.5869 44.1464 15.4106C44.3174 15.0685 44.4807 14.7315 44.6492 14.3997C44.7737 14.1586 44.8929 13.9176 45.0147 13.6817C45.0562 13.5961 45.1003 13.5132 45.1417 13.4302C45.2169 13.3188 45.3361 13.2592 45.4891 13.2384C45.7872 13.1969 46.2123 13.3136 46.6659 13.5236C46.8759 13.6221 47.0936 13.7387 47.3114 13.8683C47.3632 13.902 47.4176 13.9331 47.4695 13.9668C47.5602 14.0264 47.6509 14.086 47.7391 14.1483C47.8013 14.1897 47.8609 14.2338 47.9179 14.2779C48.102 14.4152 48.2756 14.5604 48.4338 14.7056C49.004 15.2292 49.3488 15.7735 49.1259 16.1027L49.1233 16.1131Z" fill="#FCB712"/>
</g>
<defs>
<clipPath id="clip0_109_10400">
<rect width="41.031" height="32" fill="white" transform="translate(9.48438 4)"/>
</clipPath>
</defs>
</svg>
