<svg width="60" height="40" viewBox="0 0 60 40" fill="none" xmlns="http://www.w3.org/2000/svg">
<g clip-path="url(#clip0_109_11572)">
<path d="M22.8611 4.25923L30.3706 26.492C30.5935 27.153 28.1517 27.9773 27.9288 27.3163L20.4193 5.08353C20.1912 4.41216 22.633 3.58786 22.8611 4.25923Z" fill="#D6AD8E"/>
<path d="M21.7537 5.00841C22.4278 4.78076 22.9108 4.4082 22.8325 4.17626C22.7542 3.94433 22.1442 3.94085 21.4701 4.1685C20.796 4.39614 20.313 4.76871 20.3913 5.00064C20.4697 5.23258 21.0796 5.23606 21.7537 5.00841Z" fill="#C4997C"/>
<path d="M23.001 4.67395L23.325 5.63045C23.5687 6.35366 22.6018 7.51494 21.3083 7.70935L20.9895 6.76322C22.3115 6.85913 23.211 5.29088 23.0036 4.67395H23.001Z" fill="#B78358"/>
<path d="M23.5896 6.41589L23.9136 7.37239C24.1573 8.0956 23.1904 9.25688 21.897 9.45129L21.5781 8.50516C22.9001 8.60107 23.7996 7.03282 23.5922 6.41589H23.5896Z" fill="#B78358"/>
<path d="M24.178 8.15515L24.502 9.11165C24.7457 9.83486 23.7788 10.9961 22.4853 11.1906L22.1665 10.2444C23.4885 10.3403 24.388 8.77208 24.1806 8.15515H24.178Z" fill="#B78358"/>
<path d="M24.7637 9.89709L25.0877 10.8536C25.3314 11.5768 24.3645 12.7381 23.071 12.9325L22.7522 11.9864C24.0742 12.0823 24.9737 10.514 24.7663 9.89709H24.7637Z" fill="#B78358"/>
<path d="M25.3521 11.6365L25.6761 12.593C25.9198 13.3162 24.9529 14.4775 23.6594 14.6719L23.3406 13.7257C24.6626 13.8217 25.562 12.2534 25.3547 11.6365H25.3521Z" fill="#B78358"/>
<path d="M25.9407 13.3784L26.2647 14.3349C26.5084 15.0581 25.5415 16.2194 24.248 16.4138L23.9292 15.4677C25.2512 15.5636 26.1507 13.9953 25.9433 13.3784H25.9407Z" fill="#B78358"/>
<path d="M26.5291 15.1177L26.8531 16.0742C27.0968 16.7974 26.1299 17.9587 24.8364 18.1531L24.5176 17.2069C25.8396 17.3029 26.739 15.7346 26.5317 15.1177H26.5291Z" fill="#B78358"/>
<path d="M27.1175 16.8596L27.4415 17.8161C27.6851 18.5393 26.7183 19.7006 25.4248 19.895L25.106 18.9489C26.4279 19.0448 27.3274 17.4765 27.1201 16.8596H27.1175Z" fill="#B78358"/>
<path d="M27.7058 18.599L28.0299 19.5555C28.2735 20.2787 27.3066 21.44 26.0132 21.6344L25.6943 20.6883C27.0163 20.7842 27.9158 19.2159 27.7084 18.599H27.7058Z" fill="#B78358"/>
<path d="M28.2918 20.3408L28.6158 21.2973C28.8595 22.0205 27.8926 23.1818 26.5991 23.3762L26.2803 22.4301C27.6023 22.526 28.5017 20.9578 28.2944 20.3408H28.2918Z" fill="#B78358"/>
<path d="M28.8802 22.0802L29.2042 23.0367C29.4478 23.7599 28.481 24.9212 27.1875 25.1156L26.8687 24.1695C28.1906 24.2654 29.0901 22.6971 28.8827 22.0802H28.8802Z" fill="#B78358"/>
<path d="M29.4685 23.8221L29.7926 24.7786C30.0362 25.5019 29.0693 26.6631 27.7759 26.8575L27.457 25.9114C28.779 26.0073 29.6785 24.4391 29.4711 23.8221H29.4685Z" fill="#B78358"/>
<path d="M29.9533 19.0863C33.465 19.0863 36.3118 16.2395 36.3118 12.7278C36.3118 9.21607 33.465 6.36926 29.9533 6.36926C26.4415 6.36926 23.5947 9.21607 23.5947 12.7278C23.5947 16.2395 26.4415 19.0863 29.9533 19.0863Z" fill="url(#paint0_linear_109_11572)"/>
<path d="M31.0444 17.0333C31.0444 17.5465 30.9822 18.0442 30.8682 18.5238C30.5753 18.3968 30.2642 18.332 29.9506 18.3242C29.7225 18.3268 29.4918 18.3631 29.2714 18.4331C28.9137 18.5445 28.5767 18.7415 28.2916 19.0267L28.1749 19.1433C27.2392 20.0791 25.7202 20.0791 24.7818 19.1433C24.3127 18.6741 23.7009 18.4408 23.084 18.4408C22.467 18.4408 21.8553 18.6741 21.3887 19.1433L20.6577 19.8743C20.2456 20.2864 19.6261 20.372 19.131 20.1283C18.6177 19.2133 18.3274 18.1557 18.3274 17.0333C18.3274 13.5209 21.1736 10.6774 24.6859 10.6774C26.9437 10.6774 28.9267 11.8542 30.0542 13.6298C30.679 14.6148 31.0444 15.7813 31.0444 17.0359V17.0333Z" fill="#B78358"/>
<path d="M24.6886 23.3919C28.2003 23.3919 31.0471 20.545 31.0471 17.0333C31.0471 13.5216 28.2003 10.6748 24.6886 10.6748C21.1769 10.6748 18.3301 13.5216 18.3301 17.0333C18.3301 20.545 21.1769 23.3919 24.6886 23.3919Z" fill="url(#paint1_linear_109_11572)"/>
<path d="M35.3863 10.6747C31.9154 10.6747 29.1003 13.4898 29.1003 16.9607C29.1003 19.8872 31.1015 22.3471 33.8103 23.047C33.9917 23.2544 34.2535 23.3892 34.5516 23.3892C34.7434 23.3892 34.9197 23.3321 35.0726 23.2362C35.1763 23.2414 35.28 23.244 35.3863 23.244C38.8572 23.244 41.6722 20.4289 41.6722 16.9581C41.6722 13.4872 38.8572 10.6721 35.3863 10.6721V10.6747Z" fill="url(#paint2_linear_109_11572)"/>
<path d="M39.2771 19.8716L38.5462 19.1407C38.0796 18.6715 37.4626 18.4382 36.8509 18.4382C36.2392 18.4382 35.6222 18.6715 35.153 19.1407C34.2147 20.0764 32.6957 20.0764 31.7599 19.1407L31.6433 19.024C31.3037 18.6818 30.8838 18.4667 30.4457 18.3734V18.3682C30.3032 18.3397 30.158 18.3241 30.0128 18.3215C30.0076 18.3215 30.0025 18.3215 29.9999 18.3215C29.9947 18.3215 29.9895 18.3215 29.9869 18.3215C29.8417 18.3215 29.6966 18.3397 29.554 18.3682V18.3734C29.1134 18.4667 28.696 18.6818 28.3565 19.024L28.2398 19.1407C27.304 20.0764 25.785 20.0764 24.8467 19.1407C24.3775 18.6715 23.7658 18.4382 23.1488 18.4382C22.5319 18.4382 21.9202 18.6715 21.4536 19.1407L20.7226 19.8716C20.2819 20.3123 19.608 20.3797 19.0947 20.0712L19.3799 20.7607L21.8942 26.8393C22.8948 29.2578 25.2537 30.8338 27.8691 30.8338C28.1387 31.1293 28.2528 31.4248 28.2528 31.7125C28.2528 32.7572 26.7493 33.6981 25.8524 34.1647C25.4014 34.398 25.3962 35.046 25.8421 35.2871C26.6353 35.72 28.0661 35.9533 29.554 35.9948C29.611 35.9974 29.6681 35.9974 29.7277 35.9999C29.7562 35.9999 29.7821 35.9999 29.8106 35.9999C29.8729 35.9999 29.9377 35.9999 29.9999 35.9999C30.0647 35.9999 30.1269 35.9999 30.1891 35.9999C30.2176 35.9999 30.2435 35.9999 30.272 35.9999C30.3291 35.9999 30.3861 35.9999 30.4457 35.9974C31.9336 35.9559 33.3619 35.72 34.1577 35.2897C34.6035 35.0486 34.5983 34.4006 34.1473 34.1673C33.2504 33.7007 31.747 32.7598 31.747 31.7151C31.747 31.4274 31.861 31.1319 32.1306 30.8364C34.7461 30.8364 37.1049 29.2604 38.1055 26.8419L40.6199 20.7633L40.905 20.0738C40.3918 20.3823 39.7178 20.3149 39.2771 19.8742V19.8716Z" fill="url(#paint3_linear_109_11572)"/>
</g>
<defs>
<linearGradient id="paint0_linear_109_11572" x1="29.9533" y1="6.37185" x2="29.9533" y2="19.0863" gradientUnits="userSpaceOnUse">
<stop stop-color="#FDEAAF"/>
<stop offset="1" stop-color="#D6BD76"/>
</linearGradient>
<linearGradient id="paint1_linear_109_11572" x1="24.6886" y1="10.6748" x2="24.6886" y2="23.3893" gradientUnits="userSpaceOnUse">
<stop stop-color="#EE81A7"/>
<stop offset="1" stop-color="#B53968"/>
</linearGradient>
<linearGradient id="paint2_linear_109_11572" x1="35.3863" y1="10.6747" x2="35.3863" y2="23.3892" gradientUnits="userSpaceOnUse">
<stop stop-color="#B78358"/>
<stop offset="1" stop-color="#87542E"/>
</linearGradient>
<linearGradient id="paint3_linear_109_11572" x1="29.9999" y1="18.3241" x2="29.9999" y2="35.9999" gradientUnits="userSpaceOnUse">
<stop stop-color="#BDEFE8"/>
<stop offset="1" stop-color="#5DBAAB"/>
</linearGradient>
<clipPath id="clip0_109_11572">
<rect width="23.3422" height="32" fill="white" transform="translate(18.3301 4)"/>
</clipPath>
</defs>
</svg>
