<svg width="60" height="40" viewBox="0 0 60 40" fill="none" xmlns="http://www.w3.org/2000/svg">
<g clip-path="url(#clip0_109_10241)">
<path d="M23.8359 29.4081C31.7799 29.4081 38.2197 26.3629 38.2197 22.6063C38.2197 18.8498 31.7799 15.8046 23.8359 15.8046C15.892 15.8046 9.45215 18.8498 9.45215 22.6063C9.45215 26.3629 15.892 29.4081 23.8359 29.4081Z" fill="#3D2B29"/>
<path d="M39.8866 12.046L38.2198 22.6064H9.45483L7.78809 12.046H39.8866Z" fill="#3D2B29"/>
<path d="M39.8866 12.046C39.8866 16.4915 32.7012 20.092 23.8386 20.092C14.9761 20.092 7.78809 16.4915 7.78809 12.046C7.78809 10.7266 8.42316 9.47979 9.54297 8.38072C12.2025 5.7808 17.6045 4 23.8386 4C30.0727 4 35.1585 5.67971 37.8932 8.16039C39.1634 9.3113 39.8866 10.6359 39.8866 12.046Z" fill="#533F38"/>
<path d="M23.836 23.327C32.6991 23.327 39.884 19.7247 39.884 15.281C39.884 10.8373 32.6991 7.23499 23.836 7.23499C14.973 7.23499 7.78809 10.8373 7.78809 15.281C7.78809 19.7247 14.973 23.327 23.836 23.327Z" fill="#533F38"/>
<path d="M39.8866 12.046H7.78809V15.281H39.8866V12.046Z" fill="#533F38"/>
<path d="M39.8866 12.046C39.8866 16.4915 32.7012 20.092 23.8386 20.092C14.9761 20.092 7.78809 16.4915 7.78809 12.046C7.78809 10.7266 8.42316 9.47973 9.54297 8.38066C11.7489 7.32566 15.6086 5.83777 18.6232 6.56098C23.1076 7.6419 24.2715 7.81817 26.7626 7.23234C29.2536 6.64652 34.736 6.48581 35.9725 7.45008C36.3276 7.72744 37.0404 7.95037 37.8932 8.15774C39.1634 9.30865 39.8866 10.6332 39.8866 12.0434V12.046Z" fill="#E68D25"/>
<path d="M24.5151 12.6785C24.5151 12.6785 23.0609 12.7122 22.2937 13.3006C21.5264 13.889 21.4046 14.8585 21.4046 14.8585C21.4046 14.8585 20.5569 13.7672 21.4046 12.9195C22.2522 12.0719 24.5151 12.6785 24.5151 12.6785Z" fill="#70E970"/>
<path d="M23.836 4C14.9735 4 7.78809 7.60308 7.78809 12.046C7.78809 16.4889 14.9735 20.092 23.836 20.092C32.6986 20.092 39.884 16.4889 39.884 12.046C39.884 7.60308 32.7012 4 23.836 4ZM23.836 19.2133C15.3468 19.2133 8.62535 16.1831 8.62535 12.046C8.62535 7.90895 15.3468 4.39401 23.836 4.39401C32.3253 4.39401 39.0467 7.91154 39.0467 12.0486C39.0467 16.1857 32.3253 19.2133 23.836 19.2133Z" fill="#8B746E"/>
<path d="M29.9844 9.08579C30.7732 9.08579 31.4127 8.44633 31.4127 7.65752C31.4127 6.86871 30.7732 6.22925 29.9844 6.22925C29.1956 6.22925 28.5562 6.86871 28.5562 7.65752C28.5562 8.44633 29.1956 9.08579 29.9844 9.08579Z" fill="#E8E158"/>
<path d="M24.6656 11.175C25.4544 11.175 26.0938 10.5356 26.0938 9.74675C26.0938 8.95794 25.4544 8.31848 24.6656 8.31848C23.8768 8.31848 23.2373 8.95794 23.2373 9.74675C23.2373 10.5356 23.8768 11.175 24.6656 11.175Z" fill="#E8E158"/>
<path d="M16.1968 8.61399C16.9856 8.61399 17.6251 7.97453 17.6251 7.18572C17.6251 6.3969 16.9856 5.75745 16.1968 5.75745C15.408 5.75745 14.7686 6.3969 14.7686 7.18572C14.7686 7.97453 15.408 8.61399 16.1968 8.61399Z" fill="#E8E158"/>
<path d="M19.292 12.2378C19.8388 12.2378 20.2822 11.7945 20.2822 11.2476C20.2822 10.7008 19.8388 10.2574 19.292 10.2574C18.7451 10.2574 18.3018 10.7008 18.3018 11.2476C18.3018 11.7945 18.7451 12.2378 19.292 12.2378Z" fill="#E8E158"/>
<path d="M23.6753 16.7949C24.2221 16.7949 24.6655 16.3515 24.6655 15.8047C24.6655 15.2578 24.2221 14.8145 23.6753 14.8145C23.1284 14.8145 22.6851 15.2578 22.6851 15.8047C22.6851 16.3515 23.1284 16.7949 23.6753 16.7949Z" fill="#E8E158"/>
<path d="M32.3486 13.1529C32.8955 13.1529 33.3388 12.7096 33.3388 12.1627C33.3388 11.6158 32.8955 11.1725 32.3486 11.1725C31.8017 11.1725 31.3584 11.6158 31.3584 12.1627C31.3584 12.7096 31.8017 13.1529 32.3486 13.1529Z" fill="#E8E158"/>
<path d="M13.9006 12.6474C14.2871 12.6474 14.6004 12.3341 14.6004 11.9476C14.6004 11.561 14.2871 11.2477 13.9006 11.2477C13.514 11.2477 13.2007 11.561 13.2007 11.9476C13.2007 12.3341 13.514 12.6474 13.9006 12.6474Z" fill="#E8E158"/>
<path d="M16.8996 16.5045C17.2861 16.5045 17.5995 16.1911 17.5995 15.8046C17.5995 15.4181 17.2861 15.1047 16.8996 15.1047C16.5131 15.1047 16.1997 15.4181 16.1997 15.8046C16.1997 16.1911 16.5131 16.5045 16.8996 16.5045Z" fill="#E8E158"/>
<path d="M29.9845 15.9809C30.3711 15.9809 30.6844 15.6676 30.6844 15.2811C30.6844 14.8945 30.3711 14.5812 29.9845 14.5812C29.598 14.5812 29.2847 14.8945 29.2847 15.2811C29.2847 15.6676 29.598 15.9809 29.9845 15.9809Z" fill="#E8E158"/>
<path d="M28.7065 13.6039C28.7065 13.6039 30.4899 13.6453 31.4335 14.3686C32.3744 15.0918 32.5248 16.2816 32.5248 16.2816C32.5248 16.2816 33.5668 14.944 32.5248 13.902C31.4827 12.8599 28.7091 13.6039 28.7091 13.6039H28.7065Z" fill="#70E970"/>
<path d="M36.8254 9.57305C36.8254 9.57305 35.8197 9.59637 35.2883 10.0033C34.7569 10.4103 34.6739 11.0817 34.6739 11.0817C34.6739 11.0817 34.0881 10.3274 34.6739 9.74153C35.2598 9.15571 36.8254 9.57305 36.8254 9.57305Z" fill="#70E970"/>
<path d="M12.7522 9.57305C12.7522 9.57305 11.7464 9.59637 11.215 10.0033C10.6836 10.4103 10.6007 11.0817 10.6007 11.0817C10.6007 11.0817 10.0149 10.3274 10.6007 9.74153C11.1865 9.15571 12.7522 9.57305 12.7522 9.57305Z" fill="#70E970"/>
<path d="M16.5132 13.8268C16.5132 13.8268 15.059 13.8605 14.2917 14.4489C13.5244 15.0373 13.4026 16.0068 13.4026 16.0068C13.4026 16.0068 12.555 14.9155 13.4026 14.0678C14.2502 13.2202 16.5132 13.8268 16.5132 13.8268Z" fill="#70E970"/>
<path d="M17.3867 10.0474C17.3867 10.0474 15.9325 10.0137 15.1652 9.42531C14.398 8.83689 14.2761 7.86743 14.2761 7.86743C14.2761 7.86743 13.4285 8.95872 14.2761 9.80635C15.1238 10.654 17.3867 10.0474 17.3867 10.0474Z" fill="#70E970"/>
<path d="M21.7998 9.62366C21.8515 9.5151 21.5708 9.27332 21.1727 9.08364C20.7747 8.89395 20.4101 8.82818 20.3583 8.93674C20.3066 9.0453 20.5873 9.28707 20.9854 9.47676C21.3834 9.66645 21.748 9.73222 21.7998 9.62366Z" fill="#F3FFF3"/>
<path d="M20.0127 15.6241C20.0644 15.5156 19.7837 15.2738 19.3856 15.0841C18.9876 14.8944 18.6229 14.8287 18.5712 14.9372C18.5195 15.0458 18.8002 15.2876 19.1983 15.4772C19.5963 15.6669 19.9609 15.7327 20.0127 15.6241Z" fill="#F3FFF3"/>
<path d="M11.7871 13.4965C11.8388 13.3879 11.5581 13.1461 11.16 12.9564C10.762 12.7668 10.3974 12.701 10.3456 12.8095C10.2939 12.9181 10.5746 13.1599 10.9727 13.3496C11.3707 13.5393 11.7353 13.605 11.7871 13.4965Z" fill="#F3FFF3"/>
<path d="M13.4741 8.96118C13.5258 8.85263 13.2451 8.61085 12.847 8.42116C12.449 8.23147 12.0844 8.16571 12.0326 8.27426C11.9809 8.38282 12.2616 8.6246 12.6597 8.81429C13.0577 9.00397 13.4224 9.06974 13.4741 8.96118Z" fill="#F3FFF3"/>
<path d="M30.0053 11.9846C30.0571 11.8761 29.7763 11.6343 29.3783 11.4446C28.9802 11.2549 28.6156 11.1891 28.5639 11.2977C28.5122 11.4063 28.7929 11.648 29.1909 11.8377C29.589 12.0274 29.9536 12.0932 30.0053 11.9846Z" fill="#F3FFF3"/>
<path d="M34.3593 8.96033C34.4111 8.85177 34.1303 8.60999 33.7323 8.42031C33.3342 8.23062 32.9696 8.16485 32.9179 8.27341C32.8662 8.38197 33.1469 8.62374 33.5449 8.81343C33.943 9.00312 34.3076 9.06889 34.3593 8.96033Z" fill="#F3FFF3"/>
<path d="M36.1743 14.0066C36.226 13.898 35.9453 13.6563 35.5472 13.4666C35.1492 13.2769 34.7846 13.2111 34.7328 13.3197C34.6811 13.4282 34.9618 13.67 35.3599 13.8597C35.7579 14.0494 36.1226 14.1152 36.1743 14.0066Z" fill="#F3FFF3"/>
<path d="M27.6665 16.8906C27.7182 16.7821 27.4375 16.5403 27.0394 16.3506C26.6414 16.1609 26.2768 16.0951 26.225 16.2037C26.1733 16.3123 26.454 16.554 26.8521 16.7437C27.2501 16.9334 27.6147 16.9992 27.6665 16.8906Z" fill="#F3FFF3"/>
<path d="M41.7269 16.0716C43.1863 21.5514 39.6143 28.742 26.1429 31.4042C25.6789 31.4949 25.5338 32.0833 25.9019 32.3814C28.6547 34.6003 32.6881 36 37.188 36C45.4855 36 52.2121 31.2383 52.2121 25.3645C52.2121 20.7893 48.1295 16.8907 42.4034 15.3899C41.9887 15.281 41.6154 15.6595 41.7269 16.0742V16.0716Z" fill="#E8C696"/>
<path d="M48.3291 22.7879C48.7701 22.7879 49.1275 22.5128 49.1275 22.1735C49.1275 21.8343 48.7701 21.5592 48.3291 21.5592C47.8882 21.5592 47.5308 21.8343 47.5308 22.1735C47.5308 22.5128 47.8882 22.7879 48.3291 22.7879Z" fill="#F1DABA"/>
<path d="M31.6617 34.3774C32.1026 34.3774 32.46 34.1023 32.46 33.763C32.46 33.4237 32.1026 33.1487 31.6617 33.1487C31.2207 33.1487 30.8633 33.4237 30.8633 33.763C30.8633 34.1023 31.2207 34.3774 31.6617 34.3774Z" fill="#F1DABA"/>
<path d="M38.9302 34.6158C39.3711 34.6158 39.7286 34.415 39.7286 34.1673C39.7286 33.9196 39.3711 33.7189 38.9302 33.7189C38.4893 33.7189 38.1318 33.9196 38.1318 34.1673C38.1318 34.415 38.4893 34.6158 38.9302 34.6158Z" fill="#F1DABA"/>
<path d="M43.8267 26.8264C44.2676 26.8264 44.6251 26.6257 44.6251 26.378C44.6251 26.1303 44.2676 25.9296 43.8267 25.9296C43.3858 25.9296 43.0283 26.1303 43.0283 26.378C43.0283 26.6257 43.3858 26.8264 43.8267 26.8264Z" fill="#F1DABA"/>
<path d="M34.8915 33.3068C35.5257 33.3068 36.0398 32.8635 36.0398 32.3166C36.0398 31.7697 35.5257 31.3264 34.8915 31.3264C34.2573 31.3264 33.7432 31.7697 33.7432 32.3166C33.7432 32.8635 34.2573 33.3068 34.8915 33.3068Z" fill="#DA9A43"/>
<path d="M35.3739 33.1461C36.0081 33.1461 36.5222 32.7388 36.5222 32.2363C36.5222 31.7338 36.0081 31.3264 35.3739 31.3264C34.7397 31.3264 34.2256 31.7338 34.2256 32.2363C34.2256 32.7388 34.7397 33.1461 35.3739 33.1461Z" fill="#9A5E28"/>
<path d="M43.3318 33.3327C43.9831 33.3327 44.5112 32.8777 44.5112 32.3165C44.5112 31.7553 43.9831 31.3004 43.3318 31.3004C42.6804 31.3004 42.1523 31.7553 42.1523 32.3165C42.1523 32.8777 42.6804 33.3327 43.3318 33.3327Z" fill="#DA9A43"/>
<path d="M43.8269 33.1668C44.4783 33.1668 45.0063 32.749 45.0063 32.2336C45.0063 31.7182 44.4783 31.3004 43.8269 31.3004C43.1755 31.3004 42.6475 31.7182 42.6475 32.2336C42.6475 32.749 43.1755 33.1668 43.8269 33.1668Z" fill="#9A5E28"/>
<path d="M45.6877 20.7271C46.3391 20.7271 46.8671 20.2721 46.8671 19.7109C46.8671 19.1498 46.3391 18.6948 45.6877 18.6948C45.0363 18.6948 44.5083 19.1498 44.5083 19.7109C44.5083 20.2721 45.0363 20.7271 45.6877 20.7271Z" fill="#DA9A43"/>
<path d="M46.1828 20.5639C46.8342 20.5639 47.3623 20.1461 47.3623 19.6307C47.3623 19.1153 46.8342 18.6975 46.1828 18.6975C45.5315 18.6975 45.0034 19.1153 45.0034 19.6307C45.0034 20.1461 45.5315 20.5639 46.1828 20.5639Z" fill="#9A5E28"/>
<path d="M39.5704 30.6991C39.9842 30.6991 40.3195 30.4101 40.3195 30.0536C40.3195 29.6972 39.9842 29.4082 39.5704 29.4082C39.1567 29.4082 38.8213 29.6972 38.8213 30.0536C38.8213 30.4101 39.1567 30.6991 39.5704 30.6991Z" fill="#DA9A43"/>
<path d="M39.8868 30.5954C40.3006 30.5954 40.636 30.3296 40.636 30.0018C40.636 29.674 40.3006 29.4082 39.8868 29.4082C39.4731 29.4082 39.1377 29.674 39.1377 30.0018C39.1377 30.3296 39.4731 30.5954 39.8868 30.5954Z" fill="#9A5E28"/>
<path d="M46.7091 25.9296C47.1228 25.9296 47.4582 25.6406 47.4582 25.2841C47.4582 24.9276 47.1228 24.6387 46.7091 24.6387C46.2954 24.6387 45.96 24.9276 45.96 25.2841C45.96 25.6406 46.2954 25.9296 46.7091 25.9296Z" fill="#DA9A43"/>
<path d="M47.0228 25.8259C47.4365 25.8259 47.7719 25.5601 47.7719 25.2323C47.7719 24.9044 47.4365 24.6387 47.0228 24.6387C46.6091 24.6387 46.2737 24.9044 46.2737 25.2323C46.2737 25.5601 46.6091 25.8259 47.0228 25.8259Z" fill="#9A5E28"/>
</g>
<defs>
<clipPath id="clip0_109_10241">
<rect width="44.4241" height="32" fill="white" transform="translate(7.78809 4)"/>
</clipPath>
</defs>
</svg>
