<svg width="60" height="40" viewBox="0 0 60 40" fill="none" xmlns="http://www.w3.org/2000/svg">
<g clip-path="url(#clip0_109_10196)">
<path d="M50.2553 28.5709L48.9592 30.8857L46.3645 34.5717C45.8616 35.4738 45.0943 36 44.2778 36H15.7202C14.9088 36 14.1389 35.4738 13.6335 34.5717L11.0387 30.8857L9.74268 28.5709H50.2579H50.2553Z" fill="#F5F5FC"/>
<path d="M41.4521 14.4541H17.7573V28.2262H41.4521V14.4541Z" fill="#FFCD24"/>
<path d="M17.2183 13.9149V28.7679H41.9888V13.9149H17.2183ZM18.2992 27.6896V14.9958H40.913V27.6896H18.2992Z" fill="#C46E00"/>
<path d="M17.3453 29.9914C21.6358 29.9914 25.114 26.5133 25.114 22.2228C25.114 17.9322 21.6358 14.4541 17.3453 14.4541C13.0548 14.4541 9.57666 17.9322 9.57666 22.2228C9.57666 26.5133 13.0548 29.9914 17.3453 29.9914Z" fill="#FFCD24"/>
<path d="M24.8986 20.4082C24.756 20.473 24.5953 20.5067 24.4113 20.5067C24.3983 20.5067 24.3802 20.5067 24.3672 20.5016C24.3879 20.5871 24.4061 20.6752 24.4242 20.7608C24.5227 21.2325 24.5746 21.7199 24.5746 22.2253C24.5746 21.681 24.6601 21.16 24.8208 20.6674C24.8467 20.5897 24.8727 20.5119 24.9038 20.4342V20.429C24.9038 20.429 24.9038 20.416 24.8986 20.4082ZM25.3937 20.1749C25.3859 20.1361 25.3755 20.092 25.3626 20.0531C25.3496 19.9935 25.3315 19.9313 25.3107 19.8717C25.2926 19.812 25.277 19.7498 25.2537 19.6902C25.1837 19.4699 25.106 19.2573 25.0152 19.0474C24.9375 18.8581 24.8545 18.6715 24.7612 18.49C24.5875 18.1453 24.3905 17.8161 24.1754 17.5024C24.0717 17.3521 23.9628 17.2043 23.8436 17.0618C23.7347 16.9192 23.6155 16.7766 23.4936 16.6419C22.9026 15.9912 22.2028 15.4287 21.4303 14.9932C21.0622 14.7807 20.6786 14.6044 20.282 14.4541C20.0876 14.3815 19.888 14.3115 19.6858 14.2519C18.9392 14.0316 18.1538 13.9149 17.3425 13.9149C17.2984 13.9149 17.2595 13.9149 17.2181 13.9201C16.2382 13.9331 15.2973 14.1197 14.4263 14.4463C14.1412 14.5552 13.8612 14.6744 13.5891 14.817C13.5061 14.8559 13.4283 14.8999 13.3506 14.9466C10.7818 16.3541 9.03467 19.0862 9.03467 22.2227C9.03467 26.8031 12.7648 30.5306 17.3425 30.5306C19.2633 30.5306 21.0415 29.8696 22.449 28.7653C22.6693 28.5968 22.8767 28.4154 23.0737 28.2261C23.2215 28.0888 23.3588 27.9488 23.4936 27.7984C23.5273 27.7647 23.5584 27.7259 23.5896 27.687C23.6803 27.5885 23.7632 27.4874 23.8436 27.3837C23.9602 27.2411 24.0691 27.0934 24.1754 26.943C24.3905 26.6268 24.5901 26.3002 24.7612 25.9554C24.8571 25.7688 24.9426 25.5847 25.0152 25.3955C25.106 25.1881 25.1837 24.9756 25.2537 24.7578C25.5129 23.9595 25.6503 23.1092 25.6503 22.2253C25.6503 21.5177 25.5648 20.8308 25.3911 20.1749H25.3937ZM24.3413 24.045C24.3413 24.045 24.3361 24.0502 24.3413 24.0502C24.2713 24.3224 24.1857 24.5842 24.0821 24.8408C23.9213 25.2555 23.7269 25.647 23.4962 26.0202C23.3925 26.1887 23.2837 26.352 23.167 26.5075C23.0556 26.6579 22.9389 26.8056 22.8119 26.9482C22.5838 27.2126 22.3375 27.4615 22.0706 27.6896C21.8502 27.884 21.6169 28.0602 21.3707 28.2287C21.0674 28.4309 20.7537 28.6098 20.422 28.7679C19.4888 29.2086 18.4441 29.4548 17.3451 29.4548C13.3558 29.4548 10.1156 26.2094 10.1156 22.2253C10.1156 19.5839 11.5361 17.2743 13.6539 16.0197C13.7187 15.9757 13.7783 15.9368 13.8431 15.9031C14.1153 15.7527 14.3952 15.618 14.6881 15.5013C15.4736 15.1903 16.3238 15.014 17.2181 15.001C17.2621 14.9958 17.301 14.9958 17.3425 14.9958C17.4799 14.9958 17.6198 15.001 17.752 15.0088C17.9387 15.0166 18.1201 15.0347 18.2964 15.0606C19.4499 15.211 20.5205 15.6387 21.4355 16.2686C21.9435 16.6185 22.4101 17.0333 22.8119 17.5024C22.9337 17.6372 23.0452 17.7798 23.1541 17.925C23.1593 17.9301 23.1618 17.9379 23.167 17.9431C23.2837 18.0986 23.3925 18.2619 23.4962 18.4304C23.7295 18.8011 23.9239 19.1951 24.0821 19.6099C24.1391 19.7446 24.1857 19.8768 24.2298 20.0168C24.2739 20.1464 24.3076 20.2709 24.3413 20.4005C24.3361 20.4005 24.3413 20.4056 24.3413 20.4056C24.349 20.4367 24.3594 20.4704 24.3672 20.5041C24.3879 20.5897 24.4061 20.6778 24.4242 20.7634C24.5227 21.2351 24.5746 21.7225 24.5746 22.2279C24.5746 22.8578 24.4916 23.467 24.3413 24.0502V24.045ZM24.8986 20.4082C24.756 20.473 24.5953 20.5067 24.4113 20.5067C24.3983 20.5067 24.3802 20.5067 24.3672 20.5016C24.3879 20.5871 24.4061 20.6752 24.4242 20.7608C24.5227 21.2325 24.5746 21.7199 24.5746 22.2253C24.5746 21.681 24.6601 21.16 24.8208 20.6674C24.8467 20.5897 24.8727 20.5119 24.9038 20.4342V20.429C24.9038 20.429 24.9038 20.416 24.8986 20.4082Z" fill="#C46E00"/>
<path d="M17.3454 27.8347C20.4448 27.8347 22.9574 25.3221 22.9574 22.2227C22.9574 19.1233 20.4448 16.6107 17.3454 16.6107C14.246 16.6107 11.7334 19.1233 11.7334 22.2227C11.7334 25.3221 14.246 27.8347 17.3454 27.8347Z" fill="#FFCD24"/>
<path d="M22.9079 19.6099C22.812 19.3973 22.7005 19.2003 22.5787 19.0059C22.4698 18.8297 22.3532 18.656 22.2236 18.4927C21.6585 17.7462 20.9197 17.137 20.0747 16.7197H20.0695C20.0125 16.6886 19.9606 16.6626 19.9062 16.6367C19.6936 16.5382 19.4707 16.4501 19.2426 16.3775C18.9393 16.279 18.6205 16.2012 18.2965 16.1494C18.115 16.1235 17.9388 16.1027 17.7521 16.0924C17.6173 16.0794 17.4799 16.0742 17.3426 16.0742C17.2985 16.0742 17.2596 16.0742 17.2181 16.0794C16.6219 16.0872 16.0491 16.1883 15.5099 16.3568C15.1989 16.4527 14.9059 16.5719 14.6208 16.7145C14.556 16.7482 14.486 16.7845 14.4212 16.8233C12.5004 17.8602 11.1914 19.8924 11.1914 22.228C11.1914 25.577 13.8795 28.3091 17.2181 28.3739C17.2622 28.3791 17.3011 28.3791 17.3426 28.3791C17.8014 28.3791 18.2446 28.3273 18.6775 28.2314C19.1985 28.1147 19.7014 27.9333 20.1628 27.6922C20.9742 27.2723 21.6766 26.6813 22.2262 25.9607C22.3558 25.7973 22.4724 25.6237 22.5813 25.4474C22.7031 25.253 22.8146 25.0534 22.9105 24.8434C23.2863 24.0502 23.4963 23.1637 23.4963 22.228C23.4963 21.2922 23.2838 20.4057 22.9105 19.6125L22.9079 19.6099ZM17.7547 27.28C17.6199 27.293 17.4825 27.2982 17.3452 27.2982C17.3011 27.2982 17.2596 27.2982 17.2207 27.293C14.4808 27.2282 12.2749 24.9782 12.2749 22.2254C12.2749 19.7965 13.9935 17.7591 16.285 17.2692C16.5831 17.2044 16.8941 17.1655 17.2078 17.1577H17.2207C17.2596 17.1525 17.3037 17.1525 17.3452 17.1525C17.4825 17.1525 17.6225 17.1577 17.7547 17.1707C17.9413 17.1837 18.1228 17.2096 18.2991 17.2433C19.7662 17.5232 21.013 18.4383 21.7337 19.6903C21.871 19.9287 21.9929 20.175 22.0888 20.4316C22.3013 20.9889 22.418 21.5929 22.418 22.2228C22.418 22.8527 22.3013 23.4566 22.0888 24.014C21.9929 24.2732 21.8736 24.5194 21.7337 24.7553C21.013 26.0073 19.7662 26.9223 18.2991 27.2023C18.1228 27.236 17.9413 27.2619 17.7547 27.2749V27.28Z" fill="#C46E00"/>
<path d="M17.3453 25.6755C19.2522 25.6755 20.798 24.1296 20.798 22.2228C20.798 20.3159 19.2522 18.77 17.3453 18.77C15.4384 18.77 13.8926 20.3159 13.8926 22.2228C13.8926 24.1296 15.4384 25.6755 17.3453 25.6755Z" fill="#FFCD24"/>
<path d="M18.2993 18.3475C18.1231 18.3034 17.9416 18.2697 17.755 18.2516C17.6202 18.2386 17.4828 18.2308 17.3454 18.2308C17.3013 18.2308 17.2625 18.2308 17.221 18.236C15.0747 18.3008 13.3535 20.0661 13.3535 22.2253C13.3535 24.3846 15.0747 26.1498 17.221 26.2146C17.2651 26.2198 17.3039 26.2198 17.3454 26.2198C17.4828 26.2198 17.6228 26.212 17.755 26.1991C17.9416 26.1809 18.1231 26.1472 18.2993 26.1032C20.0438 25.6755 21.3373 24.0994 21.3373 22.2279C21.3373 20.3564 20.0412 18.7804 18.2993 18.3527V18.3475ZM18.2993 24.973C18.1257 25.0378 17.9442 25.0819 17.755 25.1026C17.6202 25.1285 17.4828 25.1363 17.3454 25.1363C17.3013 25.1363 17.2625 25.1363 17.221 25.1285C15.6709 25.0689 14.4318 23.7858 14.4318 22.2227C14.4318 20.6597 15.6709 19.3792 17.221 19.3169C17.2651 19.3092 17.3039 19.3092 17.3454 19.3092C17.4828 19.3092 17.6228 19.3169 17.755 19.3429C17.9442 19.3636 18.1257 19.4077 18.2993 19.4725C19.4399 19.8665 20.259 20.9474 20.259 22.2227C20.259 23.4981 19.4399 24.579 18.2993 24.973Z" fill="#C46E00"/>
<path d="M29.6451 29.9914C33.9356 29.9914 37.4138 26.5133 37.4138 22.2228C37.4138 17.9322 33.9356 14.4541 29.6451 14.4541C25.3546 14.4541 21.8765 17.9322 21.8765 22.2228C21.8765 26.5133 25.3546 29.9914 29.6451 29.9914Z" fill="#FFCD24"/>
<path d="M37.1261 20.1309C37.1132 20.0738 37.095 20.0194 37.0795 19.9624C37.0484 19.8509 37.0095 19.7421 36.9706 19.6306C36.9758 19.6228 36.9784 19.6124 36.9836 19.6047H36.9888C37.0147 19.5476 37.0458 19.4932 37.0795 19.4362C37.0147 19.4232 36.9447 19.4103 36.8799 19.3921C36.8332 19.2625 36.7762 19.1381 36.7192 19.0111H36.7062C36.6414 19.107 36.5844 19.2107 36.53 19.3092C36.4314 19.2832 36.3278 19.2573 36.2241 19.2262C36.2552 19.291 36.2837 19.361 36.3148 19.4284C36.3407 19.4854 36.3615 19.5451 36.3848 19.6047C36.4885 19.8639 36.574 20.1231 36.644 20.3953C36.6388 20.3953 36.644 20.4005 36.644 20.4005C36.7944 20.9837 36.8773 21.5928 36.8773 22.2227C36.8773 21.5928 36.9939 20.9889 37.2065 20.4316C37.1858 20.3331 37.1598 20.2294 37.1287 20.1283L37.1261 20.1309ZM22.579 19.0033C22.5142 19.1329 22.4546 19.2677 22.4054 19.4051C22.3717 19.4777 22.3457 19.5528 22.3198 19.6306L22.3328 19.6565C22.3665 19.7265 22.4028 19.7939 22.4365 19.8691C22.4935 19.9857 22.5402 20.1024 22.5868 20.2242C22.605 20.2812 22.6257 20.3408 22.6464 20.4005C22.7164 20.1283 22.802 19.8691 22.9056 19.6099C22.8097 19.3973 22.6983 19.2003 22.5764 19.0059L22.579 19.0033ZM37.1261 20.1309C37.1132 20.0738 37.095 20.0194 37.0795 19.9624C37.0484 19.8509 37.0095 19.7421 36.9706 19.6306C36.9654 19.6228 36.9628 19.6099 36.9628 19.5995C36.854 19.5736 36.7477 19.5476 36.6336 19.5165C36.5766 19.5036 36.5118 19.4854 36.4522 19.4699C36.4263 19.5165 36.4055 19.5606 36.3822 19.6073C36.4859 19.8665 36.5714 20.1257 36.6414 20.3979C36.6362 20.3979 36.6414 20.403 36.6414 20.403C36.7918 20.9863 36.8747 21.5954 36.8747 22.2253C36.8747 21.5954 36.9914 20.9915 37.2039 20.4342C37.1832 20.3357 37.1573 20.232 37.1261 20.1309ZM37.5668 19.7161C37.5668 19.7161 37.5616 19.698 37.559 19.6902C37.5409 19.6306 37.5201 19.5684 37.4994 19.5088C37.4553 19.374 37.4087 19.2444 37.3517 19.1199C37.3439 19.094 37.3335 19.0733 37.3206 19.0474C37.2428 18.8581 37.1598 18.6715 37.0665 18.49C36.8929 18.1453 36.6958 17.8161 36.4807 17.5024C36.377 17.3521 36.2681 17.2043 36.1489 17.0618C36.04 16.9192 35.9208 16.7766 35.799 16.6419C35.208 15.9912 34.5081 15.4287 33.7356 14.9932C33.3675 14.7807 32.9839 14.6044 32.5873 14.4541C31.6723 14.1041 30.6795 13.9149 29.6478 13.9149C28.6161 13.9149 27.6233 14.1041 26.7083 14.4541C26.3117 14.6044 25.9281 14.7833 25.56 14.9932C24.7875 15.4287 24.0877 15.9912 23.4967 16.6419C23.3748 16.7766 23.2556 16.9192 23.1467 17.0618C23.0767 17.1447 23.0171 17.2225 22.9523 17.308C22.9056 17.3728 22.8616 17.4376 22.8149 17.5024C22.7501 17.5984 22.6853 17.6917 22.6205 17.7928V17.7979C22.5868 17.8498 22.5557 17.9016 22.5246 17.9535V17.9587C22.4157 18.1323 22.3172 18.3138 22.2265 18.4926C22.1306 18.6741 22.0502 18.8607 21.9725 19.05C21.8818 19.2625 21.804 19.4725 21.734 19.6928C21.4748 20.4912 21.3374 21.3414 21.3374 22.2253C21.3374 23.1092 21.4748 23.9595 21.734 24.7578C21.804 24.9782 21.8818 25.1907 21.9725 25.3955C22.0451 25.5847 22.1332 25.7714 22.2265 25.9554C22.4002 26.3002 22.5972 26.6294 22.8123 26.943C22.9212 27.0934 23.0275 27.2411 23.1441 27.3837C23.2271 27.4874 23.3074 27.5859 23.3982 27.687C23.4293 27.7259 23.4578 27.7647 23.4941 27.7984C23.6289 27.9488 23.7662 28.0888 23.914 28.2261C24.1136 28.4154 24.321 28.5968 24.5387 28.7653C25.9462 29.8696 27.7244 30.5306 29.6452 30.5306C31.566 30.5306 33.3442 29.8696 34.7517 28.7653C34.9721 28.5968 35.1794 28.4154 35.3764 28.2261C35.5242 28.0888 35.6616 27.9488 35.7964 27.7984C35.8301 27.7647 35.8612 27.7259 35.8923 27.687C35.983 27.5885 36.066 27.4874 36.1463 27.3837C36.263 27.2411 36.3718 27.0934 36.4781 26.943C36.6933 26.6268 36.8929 26.3002 37.0639 25.9554C37.1598 25.7688 37.2454 25.5847 37.318 25.3955C37.4087 25.1881 37.4865 24.9756 37.5564 24.7578C37.8157 23.9595 37.953 23.1092 37.953 22.2253C37.953 21.3414 37.8182 20.5067 37.5642 19.7187L37.5668 19.7161ZM36.644 24.045C36.644 24.045 36.6388 24.0502 36.644 24.0502C36.574 24.3224 36.4885 24.5842 36.3848 24.8408C36.2241 25.2555 36.0297 25.647 35.799 26.0202C35.6953 26.1887 35.5864 26.352 35.4698 26.5075C35.3583 26.6579 35.2417 26.8056 35.1146 26.9482C34.8865 27.2126 34.6403 27.4615 34.3733 27.6896C34.153 27.884 33.9197 28.0602 33.6734 28.2287C33.3701 28.4309 33.0565 28.6098 32.7247 28.7679C31.7915 29.2086 30.7469 29.4548 29.6478 29.4548C28.5487 29.4548 27.5015 29.2086 26.5709 28.7679C26.2391 28.6072 25.9229 28.4309 25.6222 28.2287C25.376 28.0602 25.1427 27.884 24.9223 27.6896C24.6553 27.4615 24.4091 27.21 24.181 26.9482C24.0566 26.8056 23.9399 26.6579 23.8259 26.5075C23.7092 26.352 23.6003 26.1887 23.4967 26.0202C23.2634 25.6495 23.069 25.2555 22.9108 24.8408C22.8071 24.5868 22.7216 24.3224 22.6516 24.0502V24.045C22.5013 23.4618 22.4183 22.8526 22.4183 22.2227C22.4183 21.5928 22.5013 20.9837 22.6516 20.4005V20.3953C22.7216 20.1231 22.8071 19.8639 22.9108 19.6047C22.9186 19.5787 22.929 19.558 22.9419 19.5321V19.5269C22.9679 19.4543 23.0016 19.3843 23.0327 19.3118C23.1182 19.1096 23.2193 18.91 23.3256 18.7156C23.3826 18.6171 23.437 18.5212 23.4993 18.4252C23.6029 18.2568 23.7118 18.0935 23.8285 17.9379C23.9399 17.7876 24.0566 17.6398 24.1836 17.4973C25.5082 15.9601 27.4678 14.9907 29.653 14.9907C31.8382 14.9907 33.7978 15.9627 35.1224 17.4973C35.2468 17.6398 35.3635 17.7876 35.4775 17.9379C35.5942 18.0935 35.7031 18.2568 35.8067 18.4252C35.8923 18.56 35.9752 18.7026 36.0478 18.8452C36.1126 18.9696 36.1774 19.0966 36.2344 19.2262C36.2656 19.291 36.2941 19.361 36.3252 19.4284C36.3511 19.4854 36.3718 19.5451 36.3952 19.6047C36.4988 19.8639 36.5844 20.1231 36.6544 20.3953C36.6492 20.3953 36.6544 20.4005 36.6544 20.4005C36.8047 20.9837 36.8877 21.5928 36.8877 22.2227C36.8877 22.8526 36.8047 23.4618 36.6544 24.045H36.644ZM22.579 19.0033C22.5142 19.1329 22.4546 19.2677 22.4054 19.4051C22.3717 19.4777 22.3457 19.5528 22.3198 19.6306L22.3328 19.6565C22.3665 19.7265 22.4028 19.7939 22.4365 19.8691C22.4935 19.9857 22.5402 20.1024 22.5868 20.2242C22.605 20.2812 22.6257 20.3408 22.6464 20.4005C22.7164 20.1283 22.802 19.8691 22.9056 19.6099C22.8097 19.3973 22.6983 19.2003 22.5764 19.0059L22.579 19.0033ZM37.1261 20.1309C37.1132 20.0738 37.095 20.0194 37.0795 19.9624C37.0484 19.8509 37.0095 19.7421 36.9706 19.6306C36.9758 19.6228 36.9784 19.6124 36.9836 19.6047H36.9888C37.0147 19.5476 37.0458 19.4932 37.0795 19.4362C37.0147 19.4232 36.9447 19.4103 36.8799 19.3921C36.8332 19.2625 36.7762 19.1381 36.7192 19.0111H36.7062C36.6414 19.107 36.5844 19.2107 36.53 19.3092C36.4314 19.2832 36.3278 19.2573 36.2241 19.2262C36.2552 19.291 36.2837 19.361 36.3148 19.4284C36.3407 19.4854 36.3615 19.5451 36.3848 19.6047C36.4885 19.8639 36.574 20.1231 36.644 20.3953C36.6388 20.3953 36.644 20.4005 36.644 20.4005C36.7944 20.9837 36.8773 21.5928 36.8773 22.2227C36.8773 21.5928 36.9939 20.9889 37.2065 20.4316C37.1858 20.3331 37.1598 20.2294 37.1287 20.1283L37.1261 20.1309Z" fill="#C46E00"/>
<path d="M29.6452 27.8347C32.7446 27.8347 35.2572 25.3221 35.2572 22.2227C35.2572 19.1233 32.7446 16.6107 29.6452 16.6107C26.5458 16.6107 24.0332 19.1233 24.0332 22.2227C24.0332 25.3221 26.5458 27.8347 29.6452 27.8347Z" fill="#FFCD24"/>
<path d="M34.2719 19.0474C34.2538 19.0267 34.2408 19.0033 34.2253 18.9826C34.1475 18.8737 34.0697 18.77 33.9842 18.6664C33.9842 18.6612 33.979 18.6586 33.9764 18.6534C33.9453 18.6197 33.9168 18.5808 33.8857 18.5445H33.8805C33.8105 18.4668 33.7431 18.389 33.668 18.3164C32.1023 17.6788 30.7077 17.0437 29.6631 17.0437C28.2556 17.0437 27.4131 17.4584 26.8403 18.0028C27.0658 17.855 27.2991 17.7228 27.5427 17.614C27.5427 17.6088 27.5479 17.6088 27.5479 17.6088C27.9678 17.4144 28.4163 17.2796 28.8829 17.207C28.9554 17.1992 29.0306 17.1888 29.1032 17.1811C29.1213 17.1759 29.1421 17.1759 29.1602 17.1759C29.2432 17.1681 29.3235 17.1577 29.4117 17.1577C29.4894 17.15 29.5672 17.15 29.6501 17.15C30.5833 17.15 31.4543 17.404 32.2086 17.8447C32.2086 17.8447 32.2112 17.8464 32.2164 17.8498C32.9707 18.2957 33.6032 18.9334 34.0386 19.6877C34.176 19.9261 34.2979 20.1724 34.3938 20.429C34.4145 20.3305 34.4404 20.2268 34.4715 20.1257C34.4845 20.0687 34.5026 20.0143 34.5182 19.9572C34.5493 19.8458 34.5882 19.7369 34.6271 19.6255C34.5182 19.4233 34.4015 19.2289 34.2771 19.0422L34.2719 19.0474ZM24.8987 20.4083C24.8987 20.4083 24.9039 20.4212 24.9039 20.429C24.9091 20.4161 24.9117 20.4109 24.9221 20.3979C24.9169 20.4031 24.9091 20.4031 24.9013 20.4057L24.8987 20.4083ZM34.7981 20.0065C34.7463 19.8847 34.6893 19.7654 34.6296 19.6436C34.6245 19.6384 34.6245 19.6358 34.6219 19.6306C34.513 19.4285 34.3964 19.234 34.2719 19.0474C34.1812 19.26 34.1034 19.4699 34.0335 19.6903C34.1708 19.9287 34.2927 20.175 34.3886 20.4316C34.6011 20.9889 34.7178 21.5929 34.7178 22.2228C34.7178 21.5929 34.8007 20.9837 34.9511 20.4005V20.3953C34.9044 20.2605 34.8552 20.1309 34.8007 20.0013L34.7981 20.0065ZM35.2103 19.6099C35.1144 19.3973 35.0029 19.2003 34.8811 19.0059C34.8629 18.98 34.85 18.9541 34.8292 18.9282C34.7904 18.8556 34.7437 18.7856 34.6945 18.7208C34.6426 18.643 34.5856 18.5653 34.526 18.4927C34.4689 18.4149 34.4093 18.3423 34.3445 18.2672C33.2169 16.9244 31.5294 16.0742 29.645 16.0742C27.6542 16.0742 25.8864 17.0229 24.764 18.4901C24.6343 18.6534 24.5177 18.8271 24.4088 19.0033C24.287 19.1978 24.1755 19.3973 24.0796 19.6073C24.0356 19.698 23.9941 19.7888 23.9578 19.8847C23.8878 20.0454 23.8282 20.2139 23.7712 20.3798C23.7452 20.4653 23.7193 20.5534 23.6986 20.639C23.5638 21.1444 23.4912 21.6758 23.4912 22.2228C23.4912 23.1585 23.7038 24.0451 24.077 24.8383C24.1729 25.0508 24.2844 25.2478 24.4062 25.4422C24.5151 25.6185 24.6318 25.7922 24.7614 25.9555C25.3083 26.6761 26.0134 27.2671 26.8247 27.687C27.2861 27.9281 27.7864 28.1095 28.31 28.2262C28.7429 28.3221 29.1861 28.3739 29.645 28.3739C30.1038 28.3739 30.547 28.3221 30.9799 28.2262C31.5009 28.1095 32.0038 27.9281 32.4652 27.687C33.2765 27.2671 33.979 26.6761 34.5286 25.9555C34.6582 25.7922 34.7748 25.6185 34.8837 25.4422C35.0055 25.2478 35.117 25.0482 35.2129 24.8383C35.5887 24.0451 35.7987 23.1585 35.7987 22.2228C35.7987 21.287 35.5861 20.4005 35.2129 19.6073L35.2103 19.6099ZM24.821 20.6649C24.8469 20.5871 24.8728 20.5094 24.9039 20.4316V20.4264C24.9091 20.4135 24.9117 20.4083 24.9221 20.3953C24.9687 20.2579 25.0309 20.1231 25.0957 19.9884C25.1476 19.8847 25.1994 19.7862 25.2591 19.6851C25.5494 19.1848 25.9226 18.7363 26.3633 18.3631C26.5136 18.2283 26.6744 18.1091 26.8429 17.995C27.0684 17.8472 27.3017 17.715 27.5453 17.6062C27.5453 17.601 27.5505 17.601 27.5505 17.601C27.9704 17.4066 28.4189 17.2718 28.8855 17.1992C28.958 17.1914 29.0332 17.1811 29.1058 17.1733C29.1239 17.1681 29.1447 17.1681 29.1628 17.1681C29.2458 17.1603 29.3261 17.15 29.4143 17.15C29.492 17.1422 29.5698 17.1422 29.6527 17.1422C30.5859 17.1422 31.4569 17.3962 32.2112 17.8369C32.2112 17.8369 32.2138 17.8386 32.219 17.8421C32.9733 18.2879 33.6058 18.9256 34.0412 19.6799C34.1786 19.9184 34.3004 20.1646 34.3964 20.4212C34.6089 20.9786 34.7256 21.5825 34.7256 22.2124C34.7256 22.8423 34.6089 23.4463 34.3964 24.0036C34.3004 24.2628 34.1812 24.509 34.0412 24.7449C33.1651 26.2587 31.5243 27.2826 29.6527 27.2826C27.7812 27.2826 26.1404 26.2587 25.2642 24.7449C25.1269 24.5065 25.005 24.2628 24.9091 24.0036C24.6966 23.4463 24.5799 22.8423 24.5799 22.2124C24.5799 21.6681 24.6655 21.147 24.8262 20.6545L24.821 20.6649ZM24.8987 20.4083C24.8987 20.4083 24.9039 20.4212 24.9039 20.429C24.9091 20.4161 24.9117 20.4109 24.9221 20.3979C24.9169 20.4031 24.9091 20.4031 24.9013 20.4057L24.8987 20.4083ZM34.7981 20.0065C34.7463 19.8847 34.6893 19.7654 34.6296 19.6436C34.6245 19.6384 34.6245 19.6358 34.6219 19.6306C34.513 19.4285 34.3964 19.234 34.2719 19.0474C34.2538 19.0267 34.2408 19.0033 34.2253 18.9826C34.1475 18.8737 34.0697 18.77 33.9842 18.6664C33.9842 18.6612 33.979 18.6586 33.9764 18.6534C33.9453 18.6197 33.9168 18.5808 33.8857 18.5445H33.8805C33.8105 18.4668 33.7431 18.389 33.668 18.3164C32.1023 17.6788 30.7077 17.0437 29.6631 17.0437C28.2556 17.0437 27.4131 17.4584 26.8403 18.0028C27.0658 17.855 27.2991 17.7228 27.5427 17.614C27.5427 17.6088 27.5479 17.6088 27.5479 17.6088C27.9678 17.4144 28.4163 17.2796 28.8829 17.207C28.9554 17.1992 29.0306 17.1888 29.1032 17.1811C29.1213 17.1759 29.1421 17.1759 29.1602 17.1759C29.2432 17.1681 29.3235 17.1577 29.4117 17.1577C29.4894 17.15 29.5672 17.15 29.6501 17.15C30.5833 17.15 31.4543 17.404 32.2086 17.8447C32.2086 17.8447 32.2112 17.8464 32.2164 17.8498C32.9707 18.2957 33.6032 18.9334 34.0386 19.6877C34.176 19.9261 34.2979 20.1724 34.3938 20.429C34.6063 20.9863 34.723 21.5903 34.723 22.2202C34.723 21.5903 34.8059 20.9811 34.9563 20.3979V20.3927C34.9096 20.2579 34.8603 20.1283 34.8059 19.9987L34.7981 20.0065Z" fill="#C46E00"/>
<path d="M29.6451 25.6755C31.552 25.6755 33.0979 24.1296 33.0979 22.2228C33.0979 20.3159 31.552 18.77 29.6451 18.77C27.7382 18.77 26.1924 20.3159 26.1924 22.2228C26.1924 24.1296 27.7382 25.6755 29.6451 25.6755Z" fill="#FFCD24"/>
<path d="M29.6452 18.2308C27.4445 18.2308 25.6533 20.022 25.6533 22.2227C25.6533 24.4235 27.4445 26.2146 29.6452 26.2146C31.8459 26.2146 33.6371 24.4235 33.6371 22.2227C33.6371 20.022 31.8459 18.2308 29.6452 18.2308ZM29.6452 25.1389C28.0407 25.1389 26.7317 23.8299 26.7317 22.2253C26.7317 20.6208 28.0407 19.3118 29.6452 19.3118C31.2498 19.3118 32.5588 20.6208 32.5588 22.2253C32.5588 23.8299 31.2498 25.1389 29.6452 25.1389Z" fill="#C46E00"/>
<path d="M41.9474 29.9914C46.2379 29.9914 49.716 26.5133 49.716 22.2228C49.716 17.9322 46.2379 14.4541 41.9474 14.4541C37.6569 14.4541 34.1787 17.9322 34.1787 22.2228C34.1787 26.5133 37.6569 29.9914 41.9474 29.9914Z" fill="#FFCD24"/>
<path d="M34.9639 18.8193C34.9432 18.8633 34.9198 18.9048 34.9043 18.954V18.9592C34.8965 18.9774 34.8861 18.9903 34.8835 19.0059C34.8654 18.98 34.8524 18.954 34.8317 18.9281C34.7928 18.8555 34.7462 18.7856 34.6969 18.7207C34.614 18.6896 34.5336 18.6611 34.4558 18.63C34.4351 18.6741 34.417 18.7156 34.3988 18.7596C34.3521 18.8555 34.3133 18.9489 34.2744 19.05C34.3988 19.2366 34.5155 19.431 34.6243 19.6332C34.5854 19.7446 34.5466 19.8535 34.5155 19.965C34.4973 20.022 34.4818 20.0764 34.4688 20.1335C34.4377 20.232 34.4118 20.3357 34.391 20.4367C34.6036 20.9941 34.7202 21.598 34.7202 22.2279C34.7202 21.598 34.8032 20.9889 34.9535 20.4056V20.4005C35.0235 20.1283 35.1091 19.8691 35.2127 19.6099C35.2724 19.4491 35.3423 19.2936 35.4149 19.1407C35.4357 19.094 35.459 19.05 35.4797 19.0033C35.3061 18.9463 35.135 18.8866 34.9665 18.8218L34.9639 18.8193ZM34.8809 19.0033C34.7824 19.2055 34.6943 19.4129 34.6217 19.628C34.6269 19.6332 34.6269 19.6358 34.6295 19.641C34.6891 19.7628 34.7462 19.882 34.798 20.0039C34.855 20.1335 34.9017 20.2631 34.9483 20.3979C35.0183 20.1257 35.1039 19.8665 35.2076 19.6073C35.1116 19.3947 35.0002 19.1977 34.8784 19.0033H34.8809ZM45.2573 14.607C45.1743 14.5681 45.0888 14.5344 45.0033 14.4981C44.7389 14.3945 44.4719 14.3037 44.1971 14.2312C43.4946 14.029 42.7559 13.9201 41.9912 13.9149H41.9471C40.9155 13.9149 39.9227 14.1041 39.0076 14.4541C38.611 14.6044 38.2274 14.7833 37.8593 14.9932C37.0869 15.4287 36.387 15.9912 35.796 16.6419C35.6741 16.7766 35.5549 16.9192 35.446 17.0618C35.3242 17.2043 35.2179 17.3521 35.1142 17.5024C34.925 17.7746 34.7513 18.0623 34.5958 18.3604C34.5699 18.4045 34.5492 18.446 34.5258 18.49C34.4999 18.5341 34.4792 18.5808 34.4532 18.6274C34.4325 18.6715 34.4144 18.713 34.3962 18.757C34.3496 18.8529 34.3107 18.9463 34.2718 19.0474C34.1811 19.2599 34.1033 19.4699 34.0333 19.6902C33.7741 20.4886 33.6367 21.3388 33.6367 22.2227C33.6367 23.1067 33.7741 23.9569 34.0333 24.7553C34.1033 24.9756 34.1811 25.1881 34.2718 25.3929C34.3444 25.5822 34.4325 25.7688 34.5258 25.9528C34.6995 26.2976 34.8965 26.6268 35.1116 26.9404C35.2205 27.0908 35.3268 27.2385 35.4434 27.3811C35.5264 27.4848 35.6067 27.5833 35.6975 27.6844C35.7286 27.7233 35.7571 27.7621 35.7934 27.7958C35.9282 27.9462 36.0656 28.0862 36.2133 28.2235C36.4129 28.4128 36.6203 28.5942 36.838 28.7627C38.2455 29.867 40.0238 30.528 41.9445 30.528C46.5249 30.528 50.2524 26.7979 50.2524 22.2201C50.2524 18.8141 48.1942 15.8849 45.2547 14.6018L45.2573 14.607ZM41.9471 29.4548C40.8455 29.4548 39.8008 29.2086 38.8703 28.7679C38.5385 28.6072 38.2222 28.4309 37.9215 28.2287C37.6753 28.0602 37.442 27.884 37.2217 27.6896C36.9547 27.4615 36.7084 27.21 36.4803 26.9482C36.3559 26.8056 36.2392 26.6579 36.1252 26.5075C36.0085 26.352 35.8997 26.1887 35.796 26.0202C35.5627 25.6495 35.3683 25.2555 35.2101 24.8408C35.1065 24.5868 35.0209 24.3224 34.9509 24.0502V24.045C34.8006 23.4618 34.7176 22.8526 34.7176 22.2227C34.7176 21.5928 34.8006 20.9837 34.9509 20.4005V20.3953C35.0209 20.1231 35.1065 19.8639 35.2101 19.6047C35.2698 19.444 35.3398 19.2884 35.4123 19.1355C35.4331 19.0888 35.4564 19.0448 35.4771 18.9981C35.5238 18.9022 35.573 18.8115 35.6249 18.7207C35.6819 18.6222 35.7364 18.5212 35.7986 18.4278C35.9023 18.2593 36.0111 18.096 36.1278 17.9405C36.2392 17.7902 36.3559 17.6424 36.4829 17.4999C37.5923 16.209 39.1554 15.3199 40.9155 15.0658C41.0917 15.0399 41.2732 15.0218 41.4546 15.0088C41.6179 14.9958 41.7838 14.9907 41.9497 14.9907H41.9938C42.7662 14.9958 43.5076 15.1203 44.2075 15.3536C44.5004 15.4495 44.7855 15.5661 45.0629 15.6957C45.1355 15.7294 45.2106 15.7683 45.278 15.8072C47.5954 17.0125 49.1792 19.4336 49.1792 22.2201C49.1792 26.2043 45.9364 29.4496 41.9497 29.4496L41.9471 29.4548ZM34.9639 18.8193C34.9432 18.8633 34.9198 18.9048 34.9043 18.954V18.9592C34.8965 18.9774 34.8861 18.9903 34.8835 19.0059C34.8654 18.98 34.8524 18.954 34.8317 18.9281C34.7928 18.8555 34.7462 18.7856 34.6969 18.7207C34.614 18.6896 34.5336 18.6611 34.4558 18.63C34.4351 18.6741 34.417 18.7156 34.3988 18.7596C34.3521 18.8555 34.3133 18.9489 34.2744 19.05C34.3988 19.2366 34.5155 19.431 34.6243 19.6332C34.6295 19.6384 34.6295 19.641 34.6321 19.6461C34.6917 19.768 34.7487 19.8872 34.8006 20.009C34.8576 20.1387 34.9043 20.2683 34.9509 20.403C35.0209 20.1309 35.1065 19.8717 35.2101 19.6124C35.2698 19.4517 35.3398 19.2962 35.4123 19.1433C35.4331 19.0966 35.4564 19.0525 35.4771 19.0059C35.3035 18.9489 35.1324 18.8892 34.9639 18.8244V18.8193Z" fill="#C46E00"/>
<path d="M41.9474 27.8347C45.0469 27.8347 47.5594 25.3221 47.5594 22.2227C47.5594 19.1233 45.0469 16.6107 41.9474 16.6107C38.848 16.6107 36.3354 19.1233 36.3354 22.2227C36.3354 25.3221 38.848 27.8347 41.9474 27.8347Z" fill="#FFCD24"/>
<path d="M37.4968 19.5088C37.4528 19.374 37.4061 19.2444 37.3491 19.12C37.3283 19.12 37.3024 19.1148 37.2765 19.1122C37.2065 19.2211 37.1417 19.3248 37.0769 19.4362C37.0432 19.4933 37.0121 19.5477 36.9862 19.6047H36.981C36.981 19.6047 36.9732 19.6229 36.968 19.6306C37.0069 19.7421 37.0458 19.851 37.0769 19.9624C37.0951 20.0195 37.1106 20.0739 37.1236 20.1309C37.1547 20.2294 37.1806 20.3331 37.2013 20.4342C37.2921 20.1828 37.4087 19.9417 37.5435 19.7136C37.5487 19.7058 37.5513 19.7006 37.5565 19.6928C37.5876 19.641 37.6161 19.584 37.6524 19.5321C37.6005 19.527 37.5487 19.5192 37.4968 19.5114V19.5088ZM37.191 19.6514C37.1262 19.6384 37.0562 19.6203 36.9888 19.6047H36.9836C36.9836 19.6047 36.9758 19.6229 36.9706 19.6306C37.0095 19.7421 37.0484 19.851 37.0795 19.9624C37.0976 20.0195 37.1132 20.0739 37.1262 20.1309C37.1573 20.2294 37.1832 20.3331 37.2039 20.4342C37.2946 20.1828 37.4113 19.9417 37.5461 19.7136C37.4294 19.6954 37.3076 19.6747 37.191 19.654V19.6514ZM44.8818 16.8208C44.8119 16.7819 44.7393 16.743 44.6667 16.7093C44.3893 16.5719 44.0964 16.4553 43.7957 16.3594C43.2255 16.1779 42.6215 16.0794 41.9916 16.0742H41.9475C41.7791 16.0742 41.6157 16.082 41.4524 16.095C41.271 16.1079 41.0895 16.1287 40.9133 16.1598C39.3502 16.4267 37.9919 17.2822 37.0665 18.4901C36.9369 18.6534 36.8203 18.8271 36.7114 19.0033C36.7062 19.0033 36.7062 19.0085 36.7062 19.0111C36.6414 19.107 36.5844 19.2107 36.53 19.3092C36.504 19.3611 36.4729 19.4181 36.4522 19.4699C36.4263 19.5166 36.4055 19.5606 36.3822 19.6073C36.0064 20.4005 35.7964 21.287 35.7964 22.2228C35.7964 23.1585 36.0089 24.0451 36.3822 24.8383C36.4781 25.0508 36.5896 25.2478 36.7114 25.4422C36.8203 25.6185 36.9369 25.7922 37.0665 25.9555C37.6135 26.6761 38.3185 27.2671 39.1299 27.687C39.5913 27.9281 40.0916 28.1095 40.6152 28.2262C41.0481 28.3221 41.4913 28.3739 41.9501 28.3739H41.9942C45.364 28.3532 48.1013 25.6029 48.1013 22.2228C48.1013 19.8924 46.8026 17.8628 44.8844 16.8182L44.8818 16.8208ZM41.9916 27.2956H41.9475C41.7791 27.2956 41.6157 27.2878 41.4524 27.2697C41.271 27.2515 41.0895 27.2256 40.9133 27.1867C39.4798 26.8886 38.2667 25.9866 37.559 24.7579C37.4217 24.5194 37.2998 24.2758 37.2039 24.0165C36.9914 23.4592 36.8747 22.8553 36.8747 22.2254C36.8747 21.5955 36.9914 20.9915 37.2039 20.4342C37.2946 20.1828 37.4113 19.9417 37.5461 19.7136C37.5513 19.7058 37.5539 19.7006 37.559 19.6928C37.5902 19.641 37.6187 19.584 37.655 19.5321C37.7327 19.4077 37.8157 19.2859 37.9064 19.1744C38.6322 18.2127 39.6924 17.5129 40.9159 17.2614C41.0921 17.2225 41.2736 17.1966 41.455 17.1785C41.6183 17.1603 41.7842 17.1525 41.9501 17.1525H41.9942C42.3234 17.1577 42.6448 17.1914 42.9559 17.2511C43.2799 17.3159 43.5936 17.4144 43.8968 17.544C43.9798 17.5777 44.0575 17.614 44.1353 17.6528C45.8435 18.4642 47.023 20.2087 47.023 22.2228C47.023 25.0067 44.7704 27.2723 41.9942 27.2956H41.9916ZM37.4968 19.5088C37.4528 19.374 37.4061 19.2444 37.3491 19.12C37.3283 19.12 37.3024 19.1148 37.2765 19.1122C37.2065 19.2211 37.1417 19.3248 37.0769 19.4362C37.0432 19.4933 37.0121 19.5477 36.9862 19.6047H36.981C36.981 19.6047 36.9732 19.6229 36.968 19.6306C37.0069 19.7421 37.0458 19.851 37.0769 19.9624C37.0951 20.0195 37.1106 20.0739 37.1236 20.1309C37.1547 20.2294 37.1806 20.3331 37.2013 20.4342C37.2921 20.1828 37.4087 19.9417 37.5435 19.7136C37.5487 19.7058 37.5513 19.7006 37.5565 19.6928C37.5876 19.641 37.6161 19.584 37.6524 19.5321C37.6005 19.527 37.5487 19.5192 37.4968 19.5114V19.5088Z" fill="#C46E00"/>
<path d="M41.9474 25.6755C43.8543 25.6755 45.4001 24.1296 45.4001 22.2228C45.4001 20.3159 43.8543 18.77 41.9474 18.77C40.0405 18.77 38.4946 20.3159 38.4946 22.2228C38.4946 24.1296 40.0405 25.6755 41.9474 25.6755Z" fill="#FFCD24"/>
<path d="M43.1214 18.4045H43.1162C43.0125 18.3734 42.9037 18.3475 42.7974 18.3216C42.5382 18.2645 42.266 18.236 41.9912 18.2308H41.9472C41.7787 18.2308 41.6154 18.2386 41.4521 18.2645C41.4521 18.2645 41.4495 18.2628 41.4443 18.2593C41.4443 18.2593 41.4391 18.2645 41.4365 18.2645C41.2602 18.2853 41.0814 18.3216 40.9155 18.3682C40.41 18.503 39.9434 18.7363 39.5391 19.0422C39.3187 19.2107 39.1165 19.4051 38.9299 19.6124C38.8703 19.685 38.8081 19.7602 38.7536 19.838C38.2534 20.5067 37.9604 21.331 37.9604 22.2253C37.9604 24.0683 39.2176 25.621 40.9181 26.0798C41.0944 26.1265 41.2732 26.1654 41.4572 26.1835C41.6206 26.2094 41.7865 26.2172 41.9523 26.2172H41.9964C44.1764 26.1965 45.9468 24.4131 45.9468 22.2253C45.9468 20.4342 44.7596 18.91 43.1292 18.4045H43.1214ZM41.9912 25.1337C41.9783 25.1389 41.9601 25.1389 41.9472 25.1389C41.7787 25.1389 41.6102 25.1259 41.4521 25.0922C41.2654 25.0663 41.084 25.0145 40.9129 24.9445C39.8164 24.5297 39.0362 23.4696 39.0362 22.2253C39.0362 20.9811 39.8138 19.9287 40.8999 19.5114C40.9051 19.5114 40.9077 19.5114 40.9129 19.5062C40.9699 19.488 41.0244 19.4673 41.0814 19.4465C41.2032 19.4077 41.3276 19.3766 41.4521 19.361C41.6128 19.3273 41.7813 19.3144 41.9472 19.3144C41.9601 19.3144 41.9783 19.3143 41.9912 19.3195C43.575 19.3377 44.8607 20.6363 44.8607 22.2279C44.8607 23.8195 43.575 25.1207 41.9912 25.1363V25.1337Z" fill="#C46E00"/>
<path d="M50.2553 28.5709L48.9592 30.8857H11.0387L9.74268 28.5709H50.2553Z" fill="#E6E6EF"/>
<path d="M53.3035 21.0719H6.69679C6.11699 21.0719 5.64697 21.5419 5.64697 22.1217V27.7596C5.64697 28.3394 6.11699 28.8094 6.69679 28.8094H53.3035C53.8833 28.8094 54.3533 28.3394 54.3533 27.7596V22.1217C54.3533 21.5419 53.8833 21.0719 53.3035 21.0719Z" fill="#F5F5FC"/>
<path opacity="0.16" d="M45.3301 15.2317C45.3301 15.4054 45.3171 15.5817 45.286 15.7528C45.2808 15.7709 45.2808 15.7916 45.273 15.8098C45.2134 16.1597 45.0838 16.4993 44.8894 16.8078C44.8842 16.8129 44.8842 16.8155 44.8816 16.8207C44.7857 16.9711 44.6743 17.1188 44.5498 17.2536L44.5446 17.2588C44.5239 17.2795 44.5006 17.3029 44.4798 17.3288C44.3762 17.4376 44.2647 17.5439 44.1299 17.658L44.104 17.6839C43.8266 17.9224 43.5052 18.1634 43.119 18.4097H43.1138C43.0697 18.4408 43.0308 18.4693 42.9894 18.4952C42.8209 18.6041 42.6394 18.7078 42.445 18.8115C42.3595 18.8633 42.2687 18.9074 42.1728 18.954C42.1651 18.9592 42.1599 18.9618 42.1521 18.9618C42.1003 18.9929 42.0432 19.0189 41.9888 19.0448C41.8721 19.1044 41.7503 19.1614 41.6259 19.2184C41.5663 19.2444 41.5092 19.2703 41.4496 19.2962C41.3589 19.3403 41.2682 19.3792 41.1723 19.4129C41.1412 19.431 41.1075 19.444 41.0764 19.4517C41.0193 19.4725 40.9649 19.4958 40.9079 19.5114C40.9027 19.5165 40.9001 19.5165 40.8949 19.5165C40.5709 19.6332 40.2469 19.711 39.9229 19.768C39.7725 19.7939 39.6248 19.812 39.4744 19.8198H39.4692C39.3344 19.8328 39.1971 19.8406 39.0597 19.8406C38.956 19.8457 38.8523 19.8457 38.7434 19.8457C38.4194 19.8406 38.0928 19.8069 37.7688 19.7602C37.7169 19.755 37.6651 19.7472 37.6081 19.7343C37.5899 19.7291 37.577 19.7291 37.5614 19.7265C37.5562 19.7265 37.5485 19.7265 37.5407 19.7213C37.424 19.7032 37.3022 19.6824 37.1856 19.6617C37.1207 19.6487 37.0508 19.6306 36.9834 19.615H36.9782C36.9782 19.615 36.9652 19.6099 36.9574 19.6099C36.8486 19.5839 36.7423 19.558 36.6282 19.5269C36.5712 19.514 36.5064 19.4958 36.4468 19.4803C36.4027 19.4725 36.3613 19.4595 36.3172 19.4466C36.3172 19.4466 36.3146 19.4448 36.3094 19.4414C36.058 19.3714 35.8039 19.291 35.5629 19.2029C35.511 19.1848 35.4592 19.1692 35.4073 19.1459C35.2829 19.107 35.1559 19.0629 35.0393 19.0163C34.9926 18.9981 34.9433 18.9826 34.8967 18.9644V18.9592C34.8708 18.9515 34.8448 18.9411 34.8241 18.9333C34.8034 18.9255 34.7852 18.9204 34.7671 18.9126C34.6841 18.8789 34.5986 18.8478 34.5208 18.8167C34.4768 18.7985 34.4353 18.783 34.3912 18.7648C34.215 18.6948 34.0465 18.6274 33.878 18.5523H33.8728C33.821 18.5315 33.7743 18.5134 33.725 18.4926H33.7199C33.1937 18.2671 32.6882 18.052 32.206 17.8576C32.206 17.8576 32.2035 17.8558 32.1983 17.8524C31.3662 17.5102 30.6093 17.2458 29.9638 17.1784C29.9146 17.1758 29.8628 17.1707 29.8135 17.1681C29.7617 17.1655 29.7098 17.1603 29.6606 17.1603C29.5698 17.1603 29.4843 17.1603 29.4013 17.1655C29.3158 17.1707 29.2329 17.1732 29.1499 17.1836C29.1318 17.1836 29.111 17.1836 29.0929 17.1888C29.0151 17.194 28.9451 17.2018 28.8726 17.2147C28.3386 17.2847 27.9005 17.4273 27.5376 17.6165C27.5376 17.6165 27.5324 17.6165 27.5324 17.6217C27.2395 17.772 26.9984 17.9587 26.7911 18.1609C26.1275 18.8089 25.8112 19.6358 25.3835 20.1801C25.3576 20.2242 25.3265 20.2631 25.2928 20.302C25.1839 20.4264 25.0647 20.5301 24.9299 20.6078C24.8988 20.6286 24.8729 20.6467 24.8444 20.6597C24.8392 20.6649 24.8314 20.6649 24.8236 20.6675C24.8184 20.6675 24.8158 20.6726 24.8107 20.6726C24.6888 20.7297 24.5592 20.7582 24.4141 20.7685C24.3881 20.7737 24.357 20.7737 24.3285 20.7737C24.3156 20.7737 24.2974 20.7737 24.2845 20.7685C24.2637 20.7737 24.2404 20.7737 24.2248 20.7685H24.2197C24.0071 20.7608 23.8386 20.7167 23.6935 20.6467C23.6883 20.6467 23.6883 20.6415 23.6857 20.6415C23.2632 20.4342 23.0636 20.0168 22.9314 19.5399V19.5347C22.9314 19.5347 22.9262 19.5347 22.9262 19.5295C22.8484 19.2521 22.7966 18.9566 22.7318 18.6715V18.6585C22.6747 18.4071 22.6099 18.166 22.5166 17.9587V17.9535C22.5166 17.9535 22.5114 17.9457 22.5114 17.9405V17.9353C22.4466 17.7928 22.3637 17.6683 22.26 17.5647C21.6249 16.9166 20.8706 16.7144 20.067 16.7196H20.0619C19.9582 16.7196 19.8623 16.7248 19.7586 16.7326C19.4734 16.7507 19.1883 16.7922 18.9006 16.8415H18.8954C18.7917 16.8596 18.688 16.8752 18.5843 16.8933H18.5792C18.4832 16.914 18.3847 16.9322 18.2862 16.9529C18.2344 16.9607 18.1774 16.9711 18.1229 16.984C17.9985 17.0099 17.8689 17.041 17.7419 17.0618C17.6849 17.0747 17.6304 17.0825 17.5734 17.0929C17.449 17.1188 17.3271 17.1395 17.2053 17.1629H17.1924C17.1353 17.1758 17.0835 17.1836 17.0291 17.194C16.7698 17.2329 16.5158 17.264 16.2696 17.2769C15.8367 17.2977 15.4193 17.2692 15.0305 17.1395C15.0227 17.1344 15.0098 17.1318 14.9994 17.1266C14.792 17.0566 14.5976 16.9633 14.4084 16.8285C14.4032 16.8285 14.3954 16.8233 14.3903 16.8207C14.1181 16.6341 13.8692 16.3749 13.6437 16.0353C13.6437 16.0301 13.6385 16.0301 13.6385 16.0275C13.6256 16.0094 13.6126 15.9938 13.5996 15.9757C13.5089 15.8331 13.4493 15.6828 13.4052 15.5298C13.3975 15.5039 13.3871 15.478 13.3845 15.4521C13.3456 15.2914 13.3249 15.128 13.3378 14.957L15.2638 14.7444L17.2053 14.5319L17.7393 14.4722H17.7445L17.8352 14.4645L19.673 14.2623L22.7629 13.9253H41.9758C42.7405 13.9305 43.4767 14.0368 44.1817 14.2415C44.4591 14.3141 44.7261 14.4048 44.9879 14.5085C45.0734 14.5422 45.1616 14.5785 45.2419 14.6174C45.2808 14.7988 45.3067 14.9803 45.3119 15.1643C45.3119 15.1903 45.3119 15.2162 45.3171 15.2421L45.3301 15.2317Z" fill="black"/>
<path d="M44.2567 14.8041C44.2567 14.9907 44.2386 15.1747 44.2049 15.3562C44.1349 15.7113 43.9975 16.0509 43.7953 16.3567C43.6994 16.5045 43.5932 16.6419 43.4661 16.7715C43.4532 16.7845 43.4402 16.7974 43.4273 16.8104C43.2847 16.9581 43.1292 17.1033 42.9529 17.251C42.6807 17.4791 42.3619 17.7124 41.9912 17.9457C41.8227 18.0494 41.6413 18.1583 41.452 18.2568C41.452 18.2568 41.4495 18.2585 41.4443 18.262C41.4443 18.262 41.4391 18.2672 41.4365 18.2672C41.2732 18.3579 41.0943 18.4486 40.9155 18.5341C40.747 18.6171 40.5707 18.6949 40.3893 18.7726C40.1093 18.8945 39.8242 18.9852 39.539 19.0448C38.9999 19.1692 38.4503 19.2081 37.9086 19.1744C37.7271 19.1666 37.5405 19.1485 37.3565 19.1226C37.3357 19.1226 37.3098 19.1174 37.2839 19.1148C37.0972 19.0889 36.9132 19.0552 36.7266 19.0163H36.7136C36.4881 18.9696 36.2652 18.9126 36.0448 18.853C35.9075 18.8141 35.7675 18.77 35.6301 18.7286C35.4538 18.6767 35.2802 18.6171 35.1091 18.5549C34.9406 18.4953 34.7721 18.4305 34.6036 18.3657C34.5207 18.3346 34.4351 18.3009 34.3522 18.2697C33.8467 18.0676 33.3594 17.855 32.8902 17.645C32.885 17.645 32.885 17.6399 32.8824 17.6399C31.7134 17.1344 30.6635 16.6808 29.8263 16.6211C29.7693 16.616 29.7096 16.616 29.6526 16.616C29.5541 16.616 29.4582 16.6211 29.3623 16.6237C29.2638 16.6289 29.1679 16.6315 29.0772 16.6445C29.0175 16.6497 28.9553 16.6574 28.9009 16.6652H28.8957C28.8231 16.673 28.7531 16.686 28.6832 16.6989C27.4234 16.94 26.8064 17.658 26.3658 18.3682C25.9847 18.9722 25.7359 19.5684 25.316 19.8691C25.246 19.9209 25.1734 19.9598 25.0956 19.9909C25.0101 20.0298 24.9142 20.0557 24.8105 20.0635C24.7664 20.0687 24.7249 20.0713 24.6757 20.0713C24.6031 20.0713 24.5331 20.0661 24.4683 20.0583C24.3828 20.0506 24.305 20.0324 24.2298 20.0117C24.1313 19.978 24.0406 19.9339 23.9629 19.8821C23.5948 19.641 23.4367 19.1951 23.3252 18.7156C23.2656 18.4616 23.2215 18.1972 23.1645 17.9483C23.1593 17.9405 23.1593 17.9302 23.1567 17.9224C23.1049 17.6969 23.0452 17.4869 22.9545 17.3055C22.9027 17.1888 22.8327 17.0851 22.7523 16.9996C22.3557 16.5849 21.9099 16.3645 21.4407 16.266C20.7512 16.1105 19.9995 16.222 19.2478 16.3749C18.9315 16.4345 18.6127 16.5045 18.3016 16.5641C18.1591 16.59 18.0217 16.616 17.8817 16.6367H17.8765C17.8324 16.6445 17.7987 16.6497 17.7547 16.6574C17.5732 16.6834 17.3918 16.7015 17.2207 16.7145C16.9485 16.7326 16.6893 16.7274 16.4353 16.6834H16.4301C16.1061 16.6367 15.8002 16.533 15.5099 16.3516C15.217 16.1649 14.95 15.8979 14.7063 15.5273C14.7011 15.5195 14.6934 15.5065 14.6882 15.4962C14.5897 15.3354 14.5145 15.1721 14.473 15.0011C14.4264 14.8248 14.4082 14.6382 14.4264 14.4437C14.473 13.4769 15.2584 12.3804 16.7023 11.3954C19.0922 9.75197 23.2941 8.39887 28.9475 8.40924C35.8401 8.41442 39.6946 9.87121 41.8435 11.3747C41.8486 11.3747 41.8512 11.3798 41.8564 11.3798C42.6678 11.9449 43.2328 12.5204 43.6346 13.0155C43.925 13.3784 44.109 13.7957 44.1945 14.2286C44.2386 14.4178 44.2542 14.6096 44.2542 14.8015L44.2567 14.8041Z" fill="url(#paint0_linear_109_10196)"/>
<path d="M20.7514 15.3277C22.0914 15.3277 23.1777 14.2414 23.1777 12.9015C23.1777 11.5615 22.0914 10.4752 20.7514 10.4752C19.4115 10.4752 18.3252 11.5615 18.3252 12.9015C18.3252 14.2414 19.4115 15.3277 20.7514 15.3277Z" fill="#9E3D20"/>
<path d="M28.9324 11.1128C30.8966 11.1128 32.4888 9.52058 32.4888 7.55642C32.4888 5.59226 30.8966 4 28.9324 4C26.9682 4 25.376 5.59226 25.376 7.55642C25.376 9.52058 26.9682 11.1128 28.9324 11.1128Z" fill="#9E3D20"/>
<path d="M37.6938 15.3847C39.5019 15.3847 40.9677 13.9189 40.9677 12.1108C40.9677 10.3027 39.5019 8.83691 37.6938 8.83691C35.8857 8.83691 34.4199 10.3027 34.4199 12.1108C34.4199 13.9189 35.8857 15.3847 37.6938 15.3847Z" fill="#9E3D20"/>
<path d="M37.266 12.4582C37.0275 12.453 36.8772 12.7174 36.9886 12.9274C37.0586 13.0596 37.1545 13.1814 37.2816 13.2203C37.4889 13.2825 37.6963 13.254 37.87 13.1944C38.137 13.1036 38.1577 12.7304 37.9037 12.6085C37.7378 12.5282 37.5226 12.4634 37.266 12.4582Z" fill="#BC4E35"/>
<path d="M39.2101 10.641C39.3785 10.6384 39.4848 10.8251 39.4071 10.9728C39.3578 11.0661 39.2904 11.1517 39.1997 11.1802C39.0519 11.2243 38.9068 11.2035 38.7824 11.162C38.5931 11.0972 38.5802 10.8328 38.759 10.7473C38.8783 10.6903 39.0286 10.6436 39.2101 10.641Z" fill="#BC4E35"/>
<path d="M37.6884 14.563C36.0191 14.563 34.6452 13.3109 34.4431 11.696C34.4275 11.8308 34.4146 11.9656 34.4146 12.103C34.4146 13.9097 35.8791 15.3769 37.6884 15.3769C39.4977 15.3769 40.9623 13.9123 40.9623 12.103C40.9623 11.9656 40.9519 11.8282 40.9338 11.696C40.7316 13.3109 39.3578 14.563 37.6884 14.563Z" fill="#89311D"/>
<path d="M36.107 10.5426C36.107 10.5426 35.9282 10.4829 35.9567 10.6436C35.9852 10.8044 36.3144 10.9262 36.3818 10.7914C36.4492 10.6566 36.3118 10.5633 36.107 10.5451V10.5426Z" fill="#BC4E35"/>
<path d="M28.3646 7.77679C28.0458 7.77161 27.8462 8.12155 27.9939 8.4015C28.0873 8.57776 28.2143 8.73848 28.3828 8.79032C28.6601 8.87327 28.9349 8.83438 29.1656 8.75662C29.5207 8.63738 29.5466 8.13969 29.2122 7.97898C28.9919 7.87011 28.7068 7.78457 28.3646 7.77938V7.77679Z" fill="#BC4E35"/>
<path d="M30.9491 5.36342C31.1746 5.36083 31.3145 5.60708 31.2109 5.80668C31.1461 5.9311 31.0553 6.04516 30.9361 6.08145C30.7391 6.14107 30.5447 6.11255 30.3814 6.05812C30.1299 5.97258 30.1118 5.62264 30.3503 5.50599C30.5084 5.43082 30.708 5.36861 30.9516 5.36342H30.9491Z" fill="#BC4E35"/>
<path d="M27.4182 5.75232C27.4182 5.75232 27.1823 5.67197 27.2186 5.88452C27.2549 6.09708 27.693 6.26298 27.7837 6.07893C27.8745 5.89489 27.6878 5.77824 27.4182 5.74973V5.75232Z" fill="#BC4E35"/>
<path d="M21.0933 13.3084C21.2852 13.3058 21.4044 13.5157 21.3163 13.6842C21.2592 13.7905 21.1841 13.8864 21.083 13.9175C20.9171 13.9668 20.7512 13.9435 20.6112 13.8968C20.3986 13.8242 20.3805 13.5261 20.5827 13.4276C20.7149 13.3628 20.886 13.311 21.0933 13.3058V13.3084Z" fill="#BC4E35"/>
<path d="M19.5382 11.8542C19.4034 11.8542 19.3178 12.002 19.3801 12.1212C19.4189 12.1964 19.4734 12.2664 19.5459 12.2871C19.6652 12.3234 19.7818 12.3053 19.8803 12.2742C20.0307 12.2223 20.0436 12.0124 19.8985 11.9424C19.8052 11.8957 19.6833 11.8594 19.5356 11.8568L19.5382 11.8542Z" fill="#BC4E35"/>
<path d="M22.0188 11.7738C22.0188 11.7738 22.1614 11.7246 22.1406 11.8542C22.1199 11.9838 21.8555 12.0823 21.8011 11.9708C21.7466 11.8594 21.8581 11.7894 22.0214 11.7738H22.0188Z" fill="#BC4E35"/>
<path d="M20.7514 14.7989C19.4917 14.7989 18.4574 13.8398 18.3382 12.6111C18.3304 12.6888 18.3252 12.7692 18.3252 12.8496C18.3252 14.1897 19.4113 15.2758 20.7514 15.2758C22.0916 15.2758 23.1777 14.1897 23.1777 12.8496C23.1777 12.7692 23.1725 12.6888 23.1647 12.6111C23.0455 13.8398 22.0112 14.7989 20.7514 14.7989Z" fill="#89311D"/>
<path d="M28.9324 10.4597C27.079 10.4597 25.5574 9.04177 25.3915 7.22986C25.3812 7.33873 25.376 7.4476 25.376 7.55906C25.376 9.5239 26.9676 11.1155 28.9324 11.1155C30.8972 11.1155 32.4888 9.5239 32.4888 7.55906C32.4888 7.4476 32.481 7.33873 32.4733 7.22986C32.3074 9.04177 30.7858 10.4597 28.9324 10.4597Z" fill="#89311D"/>
</g>
<defs>
<linearGradient id="paint0_linear_109_10196" x1="29.339" y1="6.32775" x2="29.339" y2="26.3209" gradientUnits="userSpaceOnUse">
<stop stop-color="#F23920"/>
<stop offset="1" stop-color="#D62300"/>
</linearGradient>
<clipPath id="clip0_109_10196">
<rect width="48.7064" height="32" fill="white" transform="translate(5.64697 4)"/>
</clipPath>
</defs>
</svg>
