<svg width="60" height="40" viewBox="0 0 60 40" fill="none" xmlns="http://www.w3.org/2000/svg">
<g clip-path="url(#clip0_109_10322)">
<path d="M30.3748 36C40.3802 36 48.4913 32.1644 48.4913 27.433C48.4913 22.7016 40.3802 18.866 30.3748 18.866C20.3693 18.866 12.2583 22.7016 12.2583 27.433C12.2583 32.1644 20.3693 36 30.3748 36Z" fill="#3D2B29"/>
<path d="M50.5882 14.1353L48.4911 27.4329H12.2582L10.1611 14.1353H50.5882Z" fill="#3D2B29"/>
<path d="M50.5883 14.1353C50.5883 17.277 47.7422 20.0842 43.2707 21.9428C39.7713 23.3996 35.274 24.2731 30.3748 24.2731C24.9235 24.2731 19.9751 23.1922 16.3384 21.4322C12.5305 19.5866 10.1587 16.9996 10.1587 14.1353C10.1587 12.4737 10.9597 10.9055 12.3698 9.52126C15.7188 6.2422 22.5232 4 30.3774 4C38.2316 4 44.6342 6.11519 48.0791 9.24131C49.6785 10.6903 50.5909 12.3623 50.5909 14.1353H50.5883Z" fill="#533F38"/>
<path d="M30.3747 28.3454C41.5383 28.3454 50.5882 23.8077 50.5882 18.2101C50.5882 12.6125 41.5383 8.07483 30.3747 8.07483C19.211 8.07483 10.1611 12.6125 10.1611 18.2101C10.1611 23.8077 19.211 28.3454 30.3747 28.3454Z" fill="#533F38"/>
<path d="M50.5882 14.1353H10.1611V18.2101H50.5882V14.1353Z" fill="#533F38"/>
<path d="M30.3747 4C19.2103 4 10.1611 8.53884 10.1611 14.1353C10.1611 19.7317 19.2103 24.2706 30.3747 24.2706C41.539 24.2706 50.5882 19.7317 50.5882 14.1353C50.5882 8.53884 41.539 4 30.3747 4ZM30.3747 23.1611C19.6795 23.1611 11.2161 19.3455 11.2161 14.1353C11.2161 8.92507 19.6795 4.4951 30.3747 4.4951C41.0698 4.4951 49.5332 8.92507 49.5332 14.1353C49.5332 19.3455 41.0698 23.1611 30.3747 23.1611Z" fill="#8B746E"/>
<path d="M20.7761 8.404C20.7761 8.404 21.8855 6.41583 24.3766 6.57913C26.8676 6.74244 26.1807 5.49303 28.3685 5.38416C30.5563 5.27529 30.2426 6.41583 31.9197 6.41583C33.5968 6.41583 36.0594 5.84556 37.3243 6.89019C38.5893 7.93483 38.6878 9.04167 40.1316 8.97687C41.5755 8.91206 43.7995 9.45382 43.7451 10.8639C43.6906 12.2741 39.5899 16.9425 39.5899 16.9425L28.4748 19.221L18.6479 11.7323L20.7761 8.40141V8.404Z" fill="#DDA040"/>
<path d="M22.0282 10.4881C22.0282 10.4881 21.6601 7.17539 20.1877 7.17539C18.7154 7.17539 18.4718 5.125 16.8517 4.6299C15.5504 4.23071 12.7509 4.38365 11.7192 6.10483C11.0738 7.18316 11.8696 10.1797 10.1587 11.9579C9.95915 12.1653 8.58013 14.1379 10.1587 16.6808C11.7374 19.2237 15.5867 19.9883 15.5867 19.9883L22.938 18.2438L22.0282 10.4881Z" fill="#97400B"/>
<path d="M39.1545 13.8501C39.1545 13.8501 39.5226 10.5373 40.995 10.5373C42.4673 10.5373 41.6534 9.41236 43.2735 8.91726C44.5747 8.51807 47.3742 8.671 48.4059 10.3922C49.0513 11.4705 48.1337 10.5918 49.8419 12.3726C50.0415 12.58 51.4206 14.5526 49.8419 17.0955C48.3204 19.545 41.7467 21.4243 41.7467 21.4243L34.9268 18.0053L39.1571 13.8527L39.1545 13.8501Z" fill="#44C660"/>
<path d="M42.6562 13.6505C42.5863 16.73 23.4588 20.4005 20.4183 13.6505C19.7262 12.1134 19.8635 8.07483 31.5385 8.07483C34.745 8.07483 35.9893 10.0138 38.2159 11.2761C40.5385 12.5929 42.6848 12.3596 42.6562 13.6505Z" fill="white"/>
<path d="M32.1039 10.4519C32.1039 12.4556 24.8433 12.4556 24.8433 10.4519C24.8433 8.44815 26.4685 6.82288 28.4723 6.82288C30.476 6.82288 32.1013 8.44815 32.1013 10.4519H32.1039Z" fill="#FCB712"/>
<path d="M29.6777 7.81042C29.8954 7.85968 30.108 7.93744 30.3024 8.04631L29.9836 8.40662C29.7684 8.29775 29.5325 8.23035 29.2837 8.20961L29.6777 7.81042Z" fill="#FFCE6C"/>
<path d="M31.4661 9.33722L30.9398 9.56273C30.8491 9.25686 30.6806 8.9795 30.4629 8.75917L30.8025 8.39368C31.0902 8.64771 31.3183 8.97172 31.4661 9.33722Z" fill="#FFCE6C"/>
<path d="M24.3015 23.804C24.0112 23.7573 23.7235 23.7107 23.4409 23.6588C23.7261 23.7107 24.0112 23.7599 24.3015 23.804Z" fill="#1E8637"/>
<path d="M22.4167 23.454C22.1548 23.3969 21.8956 23.3399 21.6416 23.2777C21.8982 23.3399 22.1548 23.3969 22.4167 23.454Z" fill="#1E8637"/>
<path d="M23.3473 23.6407C23.0725 23.5888 22.8003 23.537 22.5308 23.48C22.8003 23.537 23.0725 23.5914 23.3473 23.6407Z" fill="#1E8637"/>
<path d="M18.1633 22.2098C17.9663 22.1347 17.7719 22.0595 17.5801 21.9791C17.7719 22.0569 17.9663 22.1347 18.1633 22.2098Z" fill="#1E8637"/>
<path d="M18.9564 22.4976C18.7465 22.425 18.5391 22.3524 18.3369 22.2772C18.5417 22.3524 18.7491 22.4276 18.9564 22.4976Z" fill="#1E8637"/>
<path d="M16.3359 21.4244C16.3359 21.4244 16.3385 21.4296 16.3411 21.4322C16.4474 21.4841 16.5589 21.5333 16.6677 21.5826C16.5563 21.5307 16.4474 21.4789 16.3385 21.4244H16.3359Z" fill="#1E8637"/>
<path d="M42.8246 21.0848C41.7359 19.7394 39.2967 18.3449 39.0997 17.8031C37.9643 14.6874 35.5355 15.9886 33.8454 15.4261C32.1579 14.8636 29.7809 15.2369 28.0934 14.1326C26.406 13.0284 23.2176 12.6214 21.302 13.5494C20.1174 14.1223 20.9495 14.5292 17.5538 15.3639C14.184 16.1908 15.5656 19.9313 15.5864 19.9883C19.0806 21.9609 24.3763 23.1611 30.3719 23.1611C35.1544 23.1611 39.4885 22.3964 42.822 21.0848H42.8246Z" fill="#1E8637"/>
<path d="M17.3985 21.9039C17.2145 21.8261 17.0304 21.7484 16.8516 21.6654C17.0304 21.7458 17.2145 21.8261 17.3985 21.9039Z" fill="#1E8637"/>
<path d="M30.3745 24.2706C28.6326 24.2706 26.9399 24.1592 25.3276 23.9518C26.9425 24.1592 28.6326 24.2706 30.3745 24.2706C30.7219 24.2706 31.064 24.2654 31.4062 24.2577C31.064 24.2654 30.7193 24.2706 30.3745 24.2706Z" fill="#1E8637"/>
<path d="M39.9296 23.0677C39.7067 23.1274 39.4786 23.187 39.2505 23.2414C39.4786 23.1844 39.7067 23.1274 39.9296 23.0677Z" fill="#1E8637"/>
<path d="M40.7458 22.8345C40.5436 22.8967 40.3363 22.9537 40.1289 23.0133C40.3363 22.9563 40.5411 22.8967 40.7458 22.8345Z" fill="#1E8637"/>
<path d="M39.0945 23.2804C38.8146 23.3478 38.5294 23.4126 38.2417 23.4722C38.5294 23.41 38.812 23.3478 39.0945 23.2804Z" fill="#1E8637"/>
<path d="M42.3585 22.298C42.1563 22.3731 41.9515 22.4457 41.7441 22.5157C41.9515 22.4457 42.1563 22.3706 42.3585 22.298Z" fill="#1E8637"/>
<path d="M38.2418 23.4747C37.643 23.6017 37.0287 23.7158 36.4014 23.8117C37.0287 23.7132 37.643 23.6017 38.2418 23.4747Z" fill="#1E8637"/>
<path d="M41.5497 22.5804C41.3527 22.6452 41.1556 22.7101 40.9561 22.7723C41.1556 22.7101 41.3552 22.6452 41.5497 22.5804Z" fill="#1E8637"/>
<path d="M42.5034 22.2435C42.7652 22.145 43.0218 22.0439 43.2733 21.9402C43.0218 22.0439 42.7652 22.1476 42.5034 22.2461V22.2435Z" fill="#1E8637"/>
<path d="M32.389 24.2213C32.078 24.2369 31.7643 24.2498 31.4507 24.2576C31.7669 24.2498 32.078 24.2369 32.389 24.2213Z" fill="#1E8637"/>
<path d="M35.3027 23.9673C35.0538 23.9984 34.8024 24.0269 34.5483 24.0554C34.8024 24.0295 35.0538 23.9984 35.3027 23.9673Z" fill="#1E8637"/>
<path d="M36.3184 23.8247C36.0436 23.8662 35.7663 23.9077 35.4863 23.9439C35.7663 23.9077 36.0436 23.8688 36.3184 23.8247Z" fill="#1E8637"/>
</g>
<defs>
<clipPath id="clip0_109_10322">
<rect width="41.1762" height="32" fill="white" transform="translate(9.41211 4)"/>
</clipPath>
</defs>
</svg>
