<svg width="60" height="40" viewBox="0 0 60 40" fill="none" xmlns="http://www.w3.org/2000/svg">
<path d="M47.8991 23.5421C37.2568 23.5062 14.7805 29.5393 12.046 30.9605C11.2248 31.1153 10.6303 30.1918 11.1114 29.5089C14.4487 24.7808 22.8873 13.168 27.6569 8.34315C27.6762 8.3238 27.6956 8.30444 27.7149 8.28509C28.8182 7.17358 29.7195 6.43534 30.3112 6.24179C31.1822 5.95423 32.3075 6.07589 33.5877 6.49893C35.443 7.11275 37.6245 8.36251 39.8171 9.92194C41.1222 10.851 42.4355 11.8906 43.6853 12.9717C46.5028 15.5901 48.7258 18.7781 49.0244 22.3421C49.0244 22.3476 49.0244 22.3504 49.0244 22.3559C49.0742 23.0029 48.5489 23.5476 47.8991 23.5449V23.5421Z" fill="url(#paint0_linear_109_10118)"/>
<path d="M49.323 21.7089C49.0244 18.1449 46.8013 14.9569 43.9839 12.3385C42.77 11.2104 41.4429 10.1901 40.1157 9.28876C37.8788 7.77633 35.6337 6.60952 33.8863 5.86575C33.5158 5.70815 33.1701 5.5699 32.8494 5.45101C30.2614 4.49157 28.0024 5.25746 27.6541 8.34038C27.6734 8.32103 27.69 8.30167 27.7121 8.28232C31.5167 4.58834 49.688 18.8776 46.1654 22.8813C45.6262 23.4923 23.338 25.2398 12.115 30.9217C12.115 30.9217 12.115 30.9217 12.1123 30.9217C12.0901 30.9328 12.068 30.9439 12.0459 30.9549C14.4321 30.1586 15.8284 29.6692 16.8707 29.3181C16.8707 29.3181 16.8763 29.3181 16.879 29.3153C18.2532 28.8536 19.0053 28.6296 20.6034 28.2508C20.9463 28.1706 21.2891 28.0904 21.632 28.0158C28.0411 26.6057 36.0789 25.7236 46.9838 24.7918C47.7801 24.7227 48.4354 24.3329 49.0271 23.3928C49.3313 22.9117 49.3617 22.143 49.3257 21.7062L49.323 21.7089Z" fill="#C46E00"/>
<path d="M38.6306 20.5062C40.3348 20.5062 41.7163 19.2497 41.7163 17.6997C41.7163 16.1498 40.3348 14.8933 38.6306 14.8933C36.9264 14.8933 35.5449 16.1498 35.5449 17.6997C35.5449 19.2497 36.9264 20.5062 38.6306 20.5062Z" fill="#D62300"/>
<path d="M28.6053 16.5688C30.0285 16.5688 31.1822 15.5203 31.1822 14.2269C31.1822 12.9335 30.0285 11.885 28.6053 11.885C27.1821 11.885 26.0283 12.9335 26.0283 14.2269C26.0283 15.5203 27.1821 16.5688 28.6053 16.5688Z" fill="#D62300"/>
<path d="M21.7509 24.142C23.055 24.142 24.1122 23.1814 24.1122 21.9964C24.1122 20.8114 23.055 19.8508 21.7509 19.8508C20.4468 19.8508 19.3896 20.8114 19.3896 21.9964C19.3896 23.1814 20.4468 24.142 21.7509 24.142Z" fill="#D62300"/>
<path d="M46.6159 21.6177C46.6159 22.1043 44.2602 22.0324 43.9533 22.3836C43.486 22.9144 17.266 28.0683 17.2632 28.0683C17.2632 28.0683 12.7315 28.9724 11.2024 29.3789C11.125 29.4784 10.9536 29.7522 10.937 29.7826C10.6301 30.3411 10.1711 32.2683 12.1619 31.8895C12.9637 31.7374 13.9259 29.5282 15.6706 29.0748C16.7766 28.7872 17.9572 31.3669 19.0273 31.201C20.548 30.9632 21.0291 27.8858 23.0226 28.096C25.0161 28.3061 22.4199 36.4185 27.1313 35.5752C31.8428 34.7291 27.1396 26.9043 30.3331 26.6886C33.441 26.4757 31.1626 30.6978 34.7267 30.2747C37.2898 29.9706 35.758 27.2637 36.6594 25.7679C36.6759 25.7402 36.6925 25.7153 36.7119 25.6877C36.7174 25.6822 36.7202 25.6739 36.7257 25.6683C36.7423 25.6434 36.7617 25.6186 36.781 25.5937C36.7865 25.5881 36.7921 25.5799 36.7976 25.5743C36.817 25.5494 36.8391 25.5246 36.8612 25.5024C36.8667 25.4969 36.8723 25.4914 36.8778 25.4858C36.8999 25.461 36.9248 25.4388 36.9497 25.414C36.9524 25.4112 36.958 25.4084 36.9607 25.4057C36.9856 25.3835 37.0105 25.3614 37.0354 25.3421C37.0409 25.3393 37.0464 25.3338 37.0492 25.331C37.0769 25.3089 37.1045 25.2895 37.1349 25.2674C37.1405 25.2619 37.1488 25.2591 37.1543 25.2536C37.1847 25.2342 37.2151 25.2149 37.2483 25.1955C37.2566 25.19 37.2621 25.1872 37.2704 25.1817C37.3036 25.1623 37.3368 25.143 37.3727 25.1264C37.3782 25.1236 37.3838 25.1209 37.3921 25.1181C37.428 25.1015 37.4667 25.0822 37.5054 25.0656C37.5082 25.0656 37.511 25.0656 37.5137 25.0628C37.5552 25.0462 37.5967 25.0296 37.6409 25.013C37.6492 25.013 37.6547 25.0075 37.663 25.0047C37.7045 24.9909 37.7487 24.9771 37.793 24.9633C37.8013 24.9633 37.8123 24.9577 37.8206 24.955C37.8649 24.9411 37.9119 24.9301 37.9616 24.9163C37.9699 24.9163 37.9782 24.9135 37.9865 24.9107C38.0363 24.8997 38.0888 24.8886 38.1414 24.8776C38.1469 24.8776 38.1497 24.8776 38.1552 24.8776C38.2077 24.8665 38.263 24.8582 38.3211 24.8499C38.3266 24.8499 38.3322 24.8499 38.3377 24.8499C38.3957 24.8416 38.4538 24.8333 38.5146 24.8278C38.5257 24.8278 38.534 24.8278 38.5451 24.825C38.6059 24.8195 38.6667 24.814 38.7303 24.8084C38.7414 24.8084 38.7524 24.8084 38.7635 24.8084C38.8271 24.8057 38.8934 24.8001 38.9626 24.8001C38.9709 24.8001 38.9819 24.8001 38.9902 24.8001C39.0621 24.8001 39.1368 24.7974 39.2114 24.7974C39.2501 24.7974 39.2861 24.7974 39.3248 24.8001C39.3303 24.8001 39.3386 24.8001 39.3441 24.8001C39.3773 24.8001 39.4105 24.8057 39.4437 24.8084C39.4492 24.8084 39.4547 24.8084 39.4603 24.8084C39.4934 24.8112 39.5238 24.8167 39.5543 24.8223C39.5847 24.8278 39.6123 24.8333 39.64 24.8416C39.6455 24.8416 39.651 24.8416 39.6538 24.8444C39.6814 24.8527 39.7063 24.8582 39.7312 24.8665C39.7367 24.8665 39.7395 24.8693 39.745 24.872C39.7699 24.8803 39.7948 24.8886 39.8169 24.8997C39.8391 24.9107 39.8612 24.9218 39.8833 24.9329C39.8861 24.9329 39.8916 24.9356 39.8944 24.9384C39.9137 24.9494 39.9331 24.9605 39.9524 24.9743C39.9552 24.9743 39.9579 24.9771 39.9607 24.9799C39.9994 25.0047 40.0354 25.0352 40.0658 25.0628L40.0713 25.0683C40.0879 25.0822 40.1017 25.0988 40.1155 25.1153C40.146 25.1513 40.1764 25.1872 40.204 25.2259C40.2178 25.2425 40.2289 25.2619 40.24 25.2812C40.2649 25.3199 40.287 25.3587 40.3091 25.4001C40.5524 25.8646 40.6658 26.4232 41.7165 26.4232C42.5183 26.4232 42.828 25.7623 43.0823 25.1402C43.0989 25.0987 43.1155 25.0573 43.1321 25.0186C43.1432 24.9909 43.1542 24.9605 43.1681 24.9329C43.1736 24.9218 43.1791 24.908 43.1819 24.8969C43.1902 24.8748 43.2012 24.8527 43.2095 24.8306C43.2151 24.8167 43.2206 24.8029 43.2261 24.7918C43.2344 24.7725 43.2427 24.7531 43.251 24.7338C43.2565 24.72 43.2621 24.7061 43.2704 24.6923C43.2786 24.6729 43.2869 24.6564 43.2952 24.637C43.3008 24.6232 43.3091 24.6094 43.3146 24.5983C43.3229 24.5817 43.3312 24.5651 43.3395 24.5485C43.345 24.5347 43.3533 24.5236 43.3616 24.5098C43.3699 24.4932 43.3782 24.4794 43.3892 24.4628C43.3975 24.4518 43.4031 24.4379 43.4114 24.4269C43.4197 24.413 43.4307 24.3992 43.439 24.3854C43.4473 24.3743 43.4556 24.3633 43.4611 24.3522C43.4694 24.3384 43.4805 24.3273 43.4916 24.3135C43.4998 24.3024 43.5081 24.2941 43.5164 24.2831C43.5275 24.272 43.5386 24.261 43.5469 24.2499C43.5551 24.2416 43.5634 24.2333 43.5717 24.225C43.5828 24.214 43.5939 24.2057 43.6049 24.1974C43.6132 24.1891 43.6243 24.1836 43.6326 24.1753C43.6436 24.167 43.6575 24.1587 43.6713 24.1504C43.6796 24.1448 43.6906 24.1393 43.6989 24.1338C43.7127 24.1255 43.7266 24.12 43.7404 24.1144C43.7487 24.1117 43.7598 24.1061 43.7681 24.1034C43.7846 24.0978 43.8012 24.0951 43.8178 24.0895C43.8261 24.0895 43.8344 24.084 43.8427 24.084C43.8703 24.0785 43.898 24.0785 43.9257 24.0785C44.8713 24.0785 44.957 24.9716 45.9607 24.7974C45.98 24.7946 45.9994 24.7891 46.0187 24.7835C46.0215 24.7835 46.027 24.7835 46.0298 24.7808C46.0464 24.7753 46.0657 24.767 46.0823 24.7559C46.0851 24.7559 46.0878 24.7531 46.0906 24.7504C46.1072 24.7421 46.1238 24.731 46.1376 24.7172C46.1376 24.7172 46.1376 24.7172 46.1404 24.7172C46.157 24.7034 46.1708 24.6895 46.1874 24.6757C46.1901 24.6729 46.1929 24.6702 46.1957 24.6674C46.2095 24.6508 46.2233 24.6342 46.2371 24.6176C46.2371 24.6176 46.2399 24.6121 46.2427 24.6094C46.2565 24.5928 46.2676 24.5734 46.2814 24.5541C46.2814 24.5541 46.2814 24.5513 46.2842 24.5485C46.298 24.5292 46.309 24.5071 46.3201 24.4822C46.3201 24.4794 46.3256 24.4739 46.3256 24.4711C46.3367 24.449 46.3477 24.4241 46.3588 24.3992C46.3588 24.3992 46.3588 24.3965 46.3588 24.3937C46.3699 24.3688 46.3809 24.3439 46.3892 24.3163C46.3892 24.3163 46.3892 24.3107 46.392 24.308C46.403 24.2803 46.4113 24.2527 46.4196 24.2223C46.4196 24.2195 46.4196 24.214 46.4224 24.2112C46.4418 24.1504 46.4583 24.0868 46.4749 24.0204V24.0149C46.4832 23.9817 46.4888 23.9485 46.4971 23.9126C46.4971 23.9126 46.4971 23.9071 46.4971 23.9043C46.5109 23.8324 46.5247 23.7605 46.5358 23.6859C46.5358 23.6859 46.5358 23.6859 46.5358 23.6831C46.6712 22.7651 46.5938 21.6204 46.5938 21.6204L46.6159 21.6177Z" fill="#FFCD24"/>
<path d="M23.2466 17.8574C23.4374 18.0979 24.7839 17.0362 24.5931 16.7957L24.994 17.3016C25.135 17.4814 23.7913 18.5431 23.6475 18.3634L23.2466 17.8574Z" fill="#698C31"/>
<path d="M17.0945 24.6094C16.8152 24.485 16.1157 26.0499 16.3949 26.1744L15.806 25.9117C15.5959 25.8177 16.2954 24.2527 16.5055 24.3467L17.0945 24.6094Z" fill="#698C31"/>
<path d="M30.0098 21.2195C29.819 20.979 28.4724 22.0407 28.6632 22.2812L28.2623 21.7753C28.1213 21.5955 29.4651 20.5338 29.6088 20.7135L30.0098 21.2195Z" fill="#698C31"/>
<path d="M36.1616 14.4676C36.4409 14.592 37.1404 13.027 36.8612 12.9026L37.4501 13.1653C37.6602 13.2593 36.9607 14.8242 36.7506 14.7302L36.1616 14.4676Z" fill="#698C31"/>
<path d="M31.3533 9.68691C31.074 9.56248 30.3745 11.1274 30.6537 11.2519L30.0648 10.9892C29.8547 10.8952 30.5542 9.33023 30.7643 9.42424L31.3533 9.68691Z" fill="#698C31"/>
<path d="M42.7172 19.8978C42.9357 20.1135 41.7301 21.3328 41.5117 21.1172L41.9707 21.5706C42.1338 21.731 43.3394 20.5116 43.1762 20.3513L42.7172 19.8978Z" fill="#698C31"/>
<defs>
<linearGradient id="paint0_linear_109_10118" x1="29.9822" y1="9.33024" x2="29.9822" y2="40.0295" gradientUnits="userSpaceOnUse">
<stop stop-color="#FFEB39"/>
<stop offset="0.33" stop-color="#FED545"/>
<stop offset="0.64" stop-color="#FDD239"/>
<stop offset="0.94" stop-color="#FCC026"/>
<stop offset="1" stop-color="#FCF322"/>
</linearGradient>
</defs>
</svg>
