<svg width="60" height="40" viewBox="0 0 60 40" fill="none" xmlns="http://www.w3.org/2000/svg">
<g clip-path="url(#clip0_109_11594)">
<path d="M31.1264 31.4379C35.4423 27.3371 39.6934 27.1556 45.4661 26.9561C43.2602 27.9981 44.1934 29.4393 41.7749 30.7587C43.8668 30.1781 45.1369 31.7515 47.3247 31.5675C42.5966 36.2437 37.993 36.083 31.3623 33.9497L31.1238 31.4353L31.1264 31.4379Z" fill="url(#paint0_linear_109_11594)"/>
<path d="M33.6925 33.5375C33.55 33.9652 33.4126 34.2218 33.4126 34.2218C33.4126 34.2218 33.3607 34.8569 32.7231 35.3701C32.088 35.8782 30.8749 36.2644 28.5523 35.7745C23.8968 34.7921 23.7439 32.1559 23.7439 32.1559L25.2577 27.4511L25.6569 26.2095C25.6569 26.2095 25.9161 25.4863 27.6736 25.8466C29.4311 26.2095 32.6375 28.1821 33.1015 28.8457C34.3665 30.6446 34.0191 32.5499 33.6925 33.5375Z" fill="url(#paint1_linear_109_11594)"/>
<path d="M33.6925 33.5375C29.7862 32.5836 25.4858 30.7768 25.2551 27.4511L25.6543 26.2095C25.6543 26.2095 25.9135 25.4863 27.671 25.8466C29.4285 26.2095 32.635 28.1821 33.099 28.8457C34.3639 30.6446 34.0166 32.5499 33.69 33.5375H33.6925Z" fill="url(#paint2_linear_109_11594)"/>
<path d="M27.7202 29.5145C27.6814 29.9136 27.6036 30.3854 27.4455 30.8753C27.1396 31.824 26.5279 32.8402 25.2888 33.5323C23.4121 34.5821 21.1466 33.5867 18.7177 31.4897C17.1832 30.1651 16.9266 28.3765 16.9447 27.2385C16.9551 26.575 17.0588 26.1317 17.0588 26.1317L17.3361 23.3711C17.3361 23.3711 18.5518 23.0471 20.1927 23.0419C21.1569 23.0419 22.2664 23.1481 23.3629 23.5033C23.7517 23.6277 24.1379 23.7832 24.5138 23.9725C27.7721 25.6236 27.8758 27.9229 27.7177 29.517L27.7202 29.5145Z" fill="url(#paint3_linear_109_11594)"/>
<path d="M23.3887 23.0392C23.3913 23.1948 23.3861 23.3477 23.3654 23.5006C23.2591 24.3975 22.7718 25.2011 22.0564 25.8413C21.1906 26.6112 19.9852 27.1348 18.6918 27.2878C18.0541 27.3629 17.4761 27.3474 16.9473 27.2359C15.3583 26.9093 14.1944 25.7402 13.1472 23.6406C11.7474 20.8437 13.8963 17.9431 13.8963 17.9431C13.8963 17.9431 13.9352 17.9379 14.0104 17.9275C14.718 17.8238 18.5336 17.2795 20.4518 17.2225C20.807 17.2121 21.0973 17.2199 21.2891 17.2458C22.0512 17.3573 22.6059 18.49 22.9532 19.8509C23.2228 20.9007 23.3654 22.0827 23.3887 23.0392Z" fill="url(#paint4_linear_109_11594)"/>
<path d="M25.2836 15.351C25.2395 16.0923 25.1332 16.7844 24.9777 17.3755C24.8247 17.9613 24.6277 18.4486 24.4048 18.783C24.0678 19.2859 23.5598 19.628 22.9532 19.8509C21.9812 20.2061 20.7603 20.2475 19.612 20.1542C18.3599 20.0531 17.1909 19.7861 16.5247 19.584C15.6382 19.317 14.591 19.0526 14.0129 17.925C13.5256 16.984 13.3701 15.4391 13.9118 12.7848C14.7983 8.42997 17.8674 7.39052 19.3605 7.14167C19.8634 7.05872 20.19 7.06391 20.19 7.06391C24.3737 7.64455 25.4883 11.9993 25.2887 15.3458L25.2836 15.351Z" fill="url(#paint5_linear_109_11594)"/>
<path d="M29.6489 15.8149C29.1408 16.4293 28.5239 16.9192 27.78 17.2121C27.3626 17.378 26.9038 17.4843 26.4035 17.5128C25.924 17.5413 25.447 17.492 24.9779 17.3754C24.0421 17.1473 23.1426 16.6496 22.3365 15.9808C19.7366 13.8242 18.1061 9.86078 19.3555 7.14421C19.9595 5.83518 21.2322 4.81388 23.3889 4.42506C29.3119 3.35709 31.2172 4.53133 31.8315 5.39711C32.1218 5.80408 32.1244 6.14365 32.1244 6.14365C32.1244 6.14365 32.2929 12.6396 29.6489 15.8149Z" fill="url(#paint6_linear_109_11594)"/>
<path d="M39.2578 18.8349C38.6667 19.5658 38.0135 20.0687 37.3344 20.3953C33.6769 22.1554 29.2184 18.8763 29.2184 18.8763C28.56 18.4331 28.0908 17.8654 27.7772 17.2122C27.505 16.6445 27.352 16.0172 27.2924 15.351C26.9632 11.5432 29.7938 6.54033 31.8313 5.39461C32.1423 5.22093 32.4326 5.13539 32.6919 5.15613C35.2944 5.37128 39.6155 7.30761 40.9349 9.81939C42.5861 12.9611 43.0086 14.1975 39.2578 18.8323V18.8349Z" fill="url(#paint7_linear_109_11594)"/>
<path d="M27.7203 29.5145C27.6814 29.9136 27.6037 30.3854 27.4455 30.8753C26.2402 30.3413 23.8243 28.0421 22.0565 25.8414C21.2374 24.8253 20.5556 23.8299 20.1953 23.0419C21.1596 23.0419 22.269 23.1481 23.3655 23.5033C23.7543 23.6277 24.1406 23.7832 24.5164 23.9725C27.7747 25.6236 27.8784 27.9229 27.7203 29.517V29.5145Z" fill="url(#paint8_linear_109_11594)"/>
<path d="M37.3344 20.3953C33.6769 22.1553 29.2184 18.8763 29.2184 18.8763C28.56 18.433 28.0909 17.8653 27.7772 17.2121C27.505 16.6444 27.3521 16.0171 27.2925 15.351C28.0986 15.4261 28.8866 15.5868 29.6461 15.8124C33.0626 16.8181 35.8958 19.0759 37.3318 20.3927L37.3344 20.3953Z" fill="url(#paint9_linear_109_11594)"/>
<path d="M23.3889 23.0392C23.3915 23.1948 23.3863 23.3477 23.3655 23.5006C23.2593 24.3975 22.7719 25.2011 22.0565 25.8413C21.2374 24.8252 20.5556 23.8298 20.1953 23.0418C20.0631 22.7567 19.975 22.5001 19.9361 22.2771C19.8324 21.6784 19.6588 20.9344 19.6121 20.1568C19.5499 19.1562 19.6925 18.0986 20.452 17.2225C20.8071 17.2121 21.0974 17.2199 21.2892 17.2458C22.0513 17.3573 22.606 18.49 22.9534 19.8509C23.223 20.9007 23.3655 22.0827 23.3889 23.0392Z" fill="url(#paint10_linear_109_11594)"/>
<path d="M29.6489 15.815C29.1408 16.4293 28.5239 16.9192 27.7799 17.2122C27.3626 17.3781 26.9038 17.4843 26.4035 17.5128C25.924 17.5414 25.447 17.4921 24.9778 17.3755C24.0421 17.1474 23.1426 16.6497 22.3364 15.9809C23.0985 15.688 24.0628 15.4702 25.2733 15.351C25.2733 15.351 25.2785 15.351 25.2811 15.351C25.9628 15.2862 26.6342 15.2914 27.2926 15.351C28.0988 15.4262 28.8868 15.5869 29.6463 15.8124L29.6489 15.815Z" fill="url(#paint11_linear_109_11594)"/>
<path d="M25.2837 15.351C25.2396 16.0923 25.1334 16.7844 24.9778 17.3754C24.8249 17.9612 24.6279 18.4486 24.405 18.7829C24.068 19.2858 23.5599 19.628 22.9534 19.8509C21.9813 20.206 20.7604 20.2475 19.6121 20.1542C19.5499 19.1536 19.6925 18.096 20.452 17.2199C20.8693 16.7377 21.4759 16.3126 22.3364 15.9808C23.0985 15.6879 24.0628 15.4702 25.2733 15.351C25.2733 15.351 25.2785 15.351 25.2811 15.351H25.2837Z" fill="url(#paint12_linear_109_11594)"/>
<path d="M39.6103 12.0305C39.447 12.0305 39.2941 11.9242 39.2448 11.7609C39.2397 11.7428 38.6201 9.81163 37.0985 8.87328C35.0067 7.58239 33.0056 7.45278 32.9848 7.45278C32.7723 7.43982 32.6116 7.25837 32.6245 7.04841C32.6375 6.83844 32.8137 6.67514 33.0289 6.6881C33.117 6.69328 35.2374 6.82548 37.5029 8.22265C39.2734 9.31394 39.9525 11.4447 39.9784 11.5354C40.0406 11.7376 39.9292 11.9527 39.7244 12.015C39.6855 12.0279 39.6492 12.0331 39.6103 12.0331V12.0305Z" fill="url(#paint13_linear_109_11594)"/>
<path d="M21.4938 7.81046C21.4057 7.81046 21.315 7.77935 21.245 7.71714C21.0843 7.57976 21.0661 7.3361 21.2035 7.17538C21.2683 7.10021 22.8158 5.33496 25.5583 5.33496C26.9036 5.33496 27.9949 5.66935 28.039 5.68231C28.2412 5.74452 28.3552 5.95967 28.2904 6.16185C28.2282 6.36404 28.0131 6.4781 27.8109 6.41329C27.8005 6.4107 26.7818 6.09964 25.5583 6.09964C23.1657 6.09964 21.7997 7.65752 21.7867 7.67307C21.7116 7.76121 21.6027 7.80786 21.4964 7.80786L21.4938 7.81046Z" fill="url(#paint14_linear_109_11594)"/>
<path d="M15.5501 16.7974C15.3998 16.7974 15.2598 16.7093 15.1976 16.5641C15.1587 16.4734 14.2618 14.3038 15.4749 11.8464C16.0711 10.6385 16.854 9.80898 16.8851 9.77269C17.0302 9.61976 17.2739 9.61198 17.4268 9.75973C17.5798 9.90489 17.5875 10.1486 17.4398 10.3015C17.432 10.3093 16.7036 11.0869 16.1619 12.186C15.1043 14.3297 15.8949 16.2453 15.9026 16.2634C15.9856 16.4578 15.8949 16.6833 15.7005 16.7663C15.6512 16.787 15.5994 16.7974 15.5501 16.7974Z" fill="url(#paint15_linear_109_11594)"/>
<path d="M16.5143 25.4785C16.4599 25.4785 16.4028 25.4656 16.3484 25.4397C16.2836 25.4085 14.7568 24.6594 14.241 22.7516C13.9895 21.821 14.0155 21.0045 14.0181 20.9682C14.0258 20.7557 14.2099 20.5923 14.4147 20.5975C14.6272 20.6053 14.7931 20.7842 14.7853 20.9941C14.7853 21.0019 14.762 21.7355 14.9823 22.5468C15.4075 24.1177 16.6672 24.7372 16.6802 24.7424C16.872 24.8331 16.9524 25.0638 16.8616 25.253C16.7968 25.3904 16.6595 25.4708 16.5143 25.4708V25.4785Z" fill="url(#paint16_linear_109_11594)"/>
<path d="M22.5981 32.5888C22.5981 32.5888 22.5748 32.5888 22.5644 32.5888C22.4918 32.5836 20.7991 32.4177 19.6456 30.8131C19.0831 30.0303 18.8213 29.2553 18.811 29.2242C18.7436 29.022 18.8524 28.8068 19.0546 28.7394C19.2568 28.672 19.4746 28.7809 19.5394 28.9831C19.5394 28.9909 19.7778 29.683 20.2703 30.3673C21.2139 31.6763 22.5773 31.8215 22.6344 31.8267C22.8443 31.8474 22.9999 32.034 22.9817 32.244C22.9636 32.4436 22.7977 32.5939 22.6007 32.5939L22.5981 32.5888Z" fill="url(#paint17_linear_109_11594)"/>
<path d="M29.9392 35.3676C29.5167 35.3676 29.0035 35.2872 28.4695 35.015C27.8396 34.6962 27.4041 34.2789 27.386 34.2607C27.233 34.113 27.2304 33.8693 27.3782 33.719C27.5259 33.566 27.7696 33.5634 27.9199 33.7112C27.9225 33.7138 28.2932 34.0663 28.8142 34.3307C29.7993 34.8284 30.6728 34.4888 30.7091 34.4759C30.9061 34.3981 31.129 34.4914 31.2094 34.6884C31.2897 34.8828 31.1964 35.1058 31.002 35.1861C30.9735 35.1991 30.551 35.3676 29.9392 35.3676Z" fill="url(#paint18_linear_109_11594)"/>
</g>
<defs>
<linearGradient id="paint0_linear_109_11594" x1="31.1264" y1="31.1709" x2="47.3273" y2="31.1709" gradientUnits="userSpaceOnUse">
<stop stop-color="#A52319"/>
<stop offset="1" stop-color="#D53C2C"/>
</linearGradient>
<linearGradient id="paint1_linear_109_11594" x1="23.7439" y1="30.8728" x2="33.9984" y2="30.8728" gradientUnits="userSpaceOnUse">
<stop stop-color="#F99466"/>
<stop offset="1" stop-color="#AD4323"/>
</linearGradient>
<linearGradient id="paint2_linear_109_11594" x1="25.2577" y1="29.6415" x2="33.9984" y2="29.6415" gradientUnits="userSpaceOnUse">
<stop stop-color="#A52319"/>
<stop offset="1" stop-color="#D53C2C"/>
</linearGradient>
<linearGradient id="paint3_linear_109_11594" x1="16.9447" y1="28.4957" x2="27.7643" y2="28.4957" gradientUnits="userSpaceOnUse">
<stop stop-color="#F99466"/>
<stop offset="1" stop-color="#AD4323"/>
</linearGradient>
<linearGradient id="paint4_linear_109_11594" x1="12.6728" y1="22.2745" x2="23.3887" y2="22.2745" gradientUnits="userSpaceOnUse">
<stop stop-color="#F99466"/>
<stop offset="1" stop-color="#AD4323"/>
</linearGradient>
<linearGradient id="paint5_linear_109_11594" x1="13.5671" y1="13.6324" x2="25.3043" y2="13.6324" gradientUnits="userSpaceOnUse">
<stop stop-color="#F99466"/>
<stop offset="1" stop-color="#AD4323"/>
</linearGradient>
<linearGradient id="paint6_linear_109_11594" x1="18.9278" y1="10.7603" x2="32.127" y2="10.7603" gradientUnits="userSpaceOnUse">
<stop stop-color="#F99466"/>
<stop offset="1" stop-color="#AD4323"/>
</linearGradient>
<linearGradient id="paint7_linear_109_11594" x1="27.2665" y1="13.0362" x2="42.148" y2="13.0362" gradientUnits="userSpaceOnUse">
<stop stop-color="#F99466"/>
<stop offset="1" stop-color="#AD4323"/>
</linearGradient>
<linearGradient id="paint8_linear_109_11594" x1="20.1953" y1="26.956" x2="27.7644" y2="26.956" gradientUnits="userSpaceOnUse">
<stop stop-color="#A52319"/>
<stop offset="1" stop-color="#D53C2C"/>
</linearGradient>
<linearGradient id="paint9_linear_109_11594" x1="27.2951" y1="18.1349" x2="37.3344" y2="18.1349" gradientUnits="userSpaceOnUse">
<stop stop-color="#A52319"/>
<stop offset="1" stop-color="#D53C2C"/>
</linearGradient>
<linearGradient id="paint10_linear_109_11594" x1="19.5991" y1="21.528" x2="23.3889" y2="21.528" gradientUnits="userSpaceOnUse">
<stop stop-color="#A52319"/>
<stop offset="1" stop-color="#D53C2C"/>
</linearGradient>
<linearGradient id="paint11_linear_109_11594" x1="22.3364" y1="16.4138" x2="29.6489" y2="16.4138" gradientUnits="userSpaceOnUse">
<stop stop-color="#A52319"/>
<stop offset="1" stop-color="#D53C2C"/>
</linearGradient>
<linearGradient id="paint12_linear_109_11594" x1="19.5991" y1="17.7746" x2="25.2837" y2="17.7746" gradientUnits="userSpaceOnUse">
<stop stop-color="#A52319"/>
<stop offset="1" stop-color="#D53C2C"/>
</linearGradient>
<linearGradient id="paint13_linear_109_11594" x1="32.6219" y1="9.35801" x2="39.994" y2="9.35801" gradientUnits="userSpaceOnUse">
<stop stop-color="#F99466" stop-opacity="0"/>
<stop offset="1" stop-color="white"/>
</linearGradient>
<linearGradient id="paint14_linear_109_11594" x1="21.1102" y1="6.57401" x2="28.3086" y2="6.57401" gradientUnits="userSpaceOnUse">
<stop stop-color="#F99466" stop-opacity="0"/>
<stop offset="1" stop-color="white"/>
</linearGradient>
<linearGradient id="paint15_linear_109_11594" x1="14.8425" y1="13.2254" x2="17.5461" y2="13.2254" gradientUnits="userSpaceOnUse">
<stop stop-color="#F99466" stop-opacity="0"/>
<stop offset="1" stop-color="white"/>
</linearGradient>
<linearGradient id="paint16_linear_109_11594" x1="16.9005" y1="23.0393" x2="14.0155" y2="23.0393" gradientUnits="userSpaceOnUse">
<stop stop-color="#F99466" stop-opacity="0"/>
<stop offset="1" stop-color="white"/>
</linearGradient>
<linearGradient id="paint17_linear_109_11594" x1="22.9817" y1="30.6524" x2="18.7902" y2="30.6524" gradientUnits="userSpaceOnUse">
<stop stop-color="#F99466" stop-opacity="0"/>
<stop offset="1" stop-color="white"/>
</linearGradient>
<linearGradient id="paint18_linear_109_11594" x1="31.2379" y1="34.4837" x2="27.2693" y2="34.4837" gradientUnits="userSpaceOnUse">
<stop stop-color="#F99466" stop-opacity="0"/>
<stop offset="1" stop-color="white"/>
</linearGradient>
<clipPath id="clip0_109_11594">
<rect width="34.6544" height="32" fill="white" transform="translate(12.6729 4)"/>
</clipPath>
</defs>
</svg>
