<svg width="60" height="40" viewBox="0 0 60 40" fill="none" xmlns="http://www.w3.org/2000/svg">
<g clip-path="url(#clip0_109_10133)">
<path d="M43.5688 19.9987C43.5688 28.8353 36.5519 36 27.8967 36C19.2415 36 12.2246 28.8353 12.2246 19.9987C12.2246 11.1621 19.2415 4 27.8967 4C36.5519 4 43.5688 11.1621 43.5688 19.9987Z" fill="#131C21"/>
<path d="M31.7772 4C31.7772 4 31.7538 4 31.7409 4C31.7357 4 31.7279 4 31.7227 4H27.5675C20.7735 5.8482 15.7759 12.6189 15.7759 19.9987C15.7759 27.3785 20.7735 33.5867 27.5675 35.4349V35.9974H31.3676C31.5024 36 31.6372 35.9974 31.7746 35.9974C40.6112 35.9974 47.7759 28.8327 47.7759 19.9961C47.7759 11.1595 40.6138 4 31.7772 4Z" fill="#131C21"/>
<path d="M41.7648 19.9987C41.7648 28.1898 35.4089 34.8309 27.5676 34.8309C19.7264 34.8309 13.373 28.1898 13.373 19.9987C13.373 11.8075 19.729 5.16382 27.5676 5.16382C35.4063 5.16382 41.7648 11.8049 41.7648 19.9987Z" fill="#F1FAFF"/>
<path d="M34.7971 13.9641C33.9287 12.3155 32.1998 11.1776 31.3988 10.7162C31.1292 10.5607 30.8182 10.4959 30.5123 10.5296C30.5123 10.5296 22.4663 8.17071 19.8145 14.0704C17.1654 19.9701 18.7336 20.9785 18.0596 22.399C17.3909 23.8117 17.5594 27.1685 20.784 28.1302C20.7918 28.1328 20.7995 28.1354 20.8099 28.138C20.8203 28.1406 20.8281 28.1432 20.8384 28.1458C20.841 28.1458 20.8462 28.1458 20.8488 28.1484C21.2998 28.2831 22.023 28.3713 23.104 28.4983C23.104 28.4983 28.1509 29.7192 31.2096 28.2935C34.2709 26.8678 36.6453 25.7662 37.0367 23.7262C37.4281 21.6861 37.8144 18.179 37.8144 18.179C38.1954 16.9788 35.948 16.1545 34.7945 13.9641H34.7971Z" fill="#D6E4EA"/>
<path d="M37.3529 18.2594C37.3529 18.2594 37.3192 18.6923 37.2544 19.3403C37.2492 19.3948 37.244 19.4518 37.2388 19.5114C37.2103 19.7914 37.1792 20.1024 37.1429 20.4342C37.1326 20.5223 37.1222 20.6131 37.1144 20.7038C37.0833 20.963 37.0522 21.23 37.0185 21.4996C37.0055 21.6136 36.99 21.7303 36.9744 21.8469C36.9433 22.0828 36.9122 22.3187 36.8759 22.5468C36.8578 22.679 36.8371 22.8112 36.8163 22.9382C36.78 23.1689 36.7411 23.3867 36.7023 23.5914C36.6997 23.6096 36.6945 23.6277 36.6893 23.6459C36.6582 23.8014 36.6141 23.9492 36.5571 24.0917C36.132 25.1908 35.0433 25.9969 33.5736 26.7798C33.374 26.8886 33.1666 26.9949 32.9514 27.1012C32.6222 27.2671 32.2775 27.4304 31.9224 27.5989C31.7046 27.7026 31.4817 27.8063 31.2536 27.9125C31.2043 27.9359 31.1525 27.9592 31.1032 27.9825C31.0721 27.9981 31.0384 28.011 31.0073 28.024C31.0047 28.0266 31.0021 28.0266 30.9996 28.0266C30.8233 28.1069 30.6418 28.1769 30.4526 28.2366C30.2582 28.2988 30.0586 28.3532 29.8538 28.4025C29.649 28.4491 29.4391 28.488 29.2291 28.5217C29.0969 28.5398 28.9647 28.558 28.8299 28.5735H28.8273L28.6977 28.5865H28.6951C28.3296 28.6254 27.9616 28.6435 27.5987 28.6461C27.565 28.6487 27.5339 28.6487 27.5002 28.6487H27.4198C27.3057 28.6487 27.1943 28.6461 27.0828 28.6461C26.7847 28.6383 26.4944 28.6228 26.2145 28.6046L26.1237 28.5969C25.8645 28.5761 25.6131 28.5528 25.3772 28.5243C25.2554 28.5113 25.1387 28.4958 25.0273 28.4828C24.0889 28.3584 23.4305 28.208 23.3242 28.1821C23.5057 28.2003 23.7027 28.2236 23.91 28.2495C26.9532 28.6098 28.3737 22.4716 29.0891 20.2191C29.4132 19.1952 31.0747 18.9359 32.8244 18.8504C32.954 18.8426 33.0862 18.8374 33.2158 18.8323C33.5528 18.8193 33.8924 18.8115 34.2242 18.8037C34.3538 18.8012 34.4808 18.7986 34.6078 18.796C34.8904 18.7908 35.1625 18.783 35.4192 18.7726C35.5514 18.7649 35.681 18.7597 35.8028 18.7519C36.1709 18.726 36.4949 18.6897 36.7489 18.6301C36.92 18.5912 37.06 18.5394 37.1637 18.4745C37.2622 18.4175 37.327 18.3449 37.3529 18.2594Z" fill="#7DAC40"/>
<path d="M30.4295 10.9081L26.9119 24.9264C26.9119 24.9264 24.2835 28.742 21.1315 27.8399C20.6493 27.7026 20.2372 27.5081 19.8872 27.2748C19.8043 27.2204 19.7239 27.1634 19.6487 27.1038C17.9483 25.7714 17.9379 23.4229 18.4641 22.3161C19.1096 20.95 17.6035 19.9806 20.149 14.3115C21.7173 10.8225 25.2452 10.3378 27.7285 10.4804C28.0395 10.4985 28.3376 10.527 28.6098 10.5607C29.6985 10.6929 30.4295 10.9081 30.4295 10.9081Z" fill="#FFBF7E"/>
<path d="M37.3527 18.2594C36.9872 19.4129 29.8044 17.9665 29.0889 20.2191C28.3735 22.4716 26.953 28.6098 23.9098 28.2495C23.6973 28.2236 23.4977 28.2003 23.3111 28.1795C20.7889 27.884 20.299 27.8089 20.6256 26.785C20.9729 25.6859 22.1964 25.7714 21.6184 23.6536C21.0403 21.5333 20.3534 16.2375 22.5153 13.7776C24.3272 11.7168 28.9749 11.0636 30.4291 10.9081C30.7246 10.877 31.0227 10.9392 31.2819 11.0869C32.0518 11.5302 33.7133 12.6241 34.548 14.2105C35.6574 16.3153 37.7182 17.1059 37.3527 18.2594Z" fill="#FD8C59"/>
<g opacity="0.4">
<path d="M27.7281 10.4803C25.7452 10.9314 23.4641 11.7064 22.2743 13.0155C19.9077 15.6206 20.1591 21.274 20.8097 23.5836C21.2037 24.986 20.8123 25.3955 20.3587 25.8699C20.1176 26.1239 19.8662 26.3857 19.7314 26.8057C19.6977 26.9016 19.6692 27.0027 19.6484 27.1038C19.7236 27.1634 19.804 27.2204 19.8869 27.2748C19.8947 27.1712 19.9258 27.0441 19.9776 26.886C20.0943 26.5231 20.3146 26.2924 20.5479 26.0488C21.0119 25.5614 21.494 25.0586 21.0586 23.5136C20.4209 21.2507 20.1669 15.7217 22.4661 13.1891C23.7803 11.7427 26.5072 10.9625 28.6095 10.5607C28.3373 10.527 28.0392 10.4985 27.7281 10.4803Z" fill="white"/>
</g>
<path d="M27.5676 5.16382C19.729 5.16382 13.373 11.8049 13.373 19.9987C13.373 28.1924 19.729 34.8309 27.5676 34.8309C35.4063 34.8309 41.7648 28.1898 41.7648 19.9987C41.7648 11.8075 35.4089 5.16382 27.5676 5.16382ZM40.492 21.5125L40.448 21.7095C40.4169 21.8443 40.3961 21.9531 40.378 22.0594L40.3624 22.1449C40.2302 23.0159 40.0151 23.8765 39.7248 24.6982C39.6677 24.8615 39.6315 24.9237 39.6315 24.9237C39.3567 25.3333 39.2634 25.7428 39.1882 26.0746C39.1001 26.466 39.0508 26.6475 38.8357 26.8186L38.7216 26.9093L38.6464 27.0363C38.5609 27.1841 38.4728 27.3292 38.382 27.4718C38.2913 27.617 38.2006 27.7569 38.1047 27.8969C38.0295 28.0058 37.9543 28.1147 37.8766 28.2209C37.3841 28.5346 37.086 28.983 36.8164 29.3848C36.679 29.5922 36.5494 29.7866 36.4042 29.9473C36.2798 30.0536 36.1761 30.1443 36.0776 30.2324L35.9351 30.3594C35.8003 30.4787 35.6629 30.5979 35.5229 30.7094C35.4607 30.7612 35.4114 30.8001 35.3752 30.826C34.7556 30.896 34.4368 31.3859 34.2424 31.6866C34.2035 31.7462 34.1517 31.8266 34.1102 31.881L33.9573 31.8551L33.7421 31.9536C33.6332 32.0055 33.5451 32.0469 33.4622 32.091L33.3662 32.1377C32.9411 32.3606 32.5005 32.5628 32.0572 32.7339C31.8654 32.8064 31.7228 32.8557 31.6269 32.8816L31.601 32.8894L31.5751 32.8972C31.2744 33.0008 30.362 33.3171 30.0198 33.3352H29.9654L29.9161 33.3482C29.7269 33.3845 29.5376 33.4156 29.3484 33.4415C29.1929 33.4648 29.0348 33.4856 28.8767 33.5011C28.7678 33.4804 28.6356 33.4622 28.4723 33.4622C28.2779 33.4622 28.0705 33.4933 27.8865 33.5245C27.5702 33.5504 27.2592 33.5633 26.9559 33.5633C26.7978 33.5633 26.65 33.5607 26.51 33.553C26.3675 33.527 26.2456 33.5063 26.129 33.4882L26.1031 33.483C24.9833 33.3508 23.8868 33.0682 22.8421 32.6379C22.6166 32.5446 22.5311 32.498 22.4974 32.4772L22.3367 32.3735L22.1423 32.3554C21.7794 32.3243 21.4787 32.0884 21.1313 31.811C20.9006 31.627 20.6622 31.4378 20.3796 31.2926C20.237 31.1915 20.0997 31.0878 19.9649 30.9867C19.672 30.7638 19.3842 30.5253 19.1121 30.2791C18.9876 30.165 18.8684 30.0536 18.7517 29.9395C18.5496 29.6907 18.2955 29.5144 18.0519 29.3433C17.6268 29.0478 17.4401 28.8923 17.4116 28.6357L17.3935 28.4568L17.2976 28.3013C17.1913 28.138 17.098 27.998 17.0124 27.8658L16.9269 27.7388C16.7195 27.4277 16.5225 27.1037 16.3411 26.7719C16.2477 26.606 16.1622 26.4375 16.0792 26.2716L16.0015 26.1161L15.8641 26.0072C15.6904 25.8699 15.6334 25.608 15.5582 25.1907C15.4934 24.8278 15.4182 24.4208 15.1953 24.0372C15.1487 23.8791 15.1072 23.721 15.0657 23.5628C14.9672 23.187 14.8843 22.7982 14.8169 22.4093C14.7909 22.2512 14.7676 22.0983 14.7495 21.9428C14.8324 21.3336 14.7417 20.7607 14.6613 20.2527C14.5914 19.812 14.5266 19.3999 14.6043 19.0551C14.651 18.814 14.6743 18.617 14.695 18.446L14.708 18.35C14.765 17.8575 14.848 17.3676 14.9543 16.8907C14.9828 16.7611 15.0165 16.6366 15.045 16.5563L15.0657 16.4941L15.0761 16.4293C15.0994 16.2737 15.1953 16.0819 15.286 15.8953C15.4312 15.5972 15.6049 15.2421 15.5816 14.8429C15.6127 14.7599 15.6489 14.6744 15.6826 14.5914C15.9237 14.0108 16.2063 13.4405 16.5199 12.9065C16.5536 12.8521 16.5795 12.8106 16.5977 12.7821C17.1628 12.3752 17.4453 11.7919 17.6708 11.3227C17.886 10.8769 18.0285 10.597 18.2618 10.4829L18.3785 10.4259L18.4692 10.3326C18.6014 10.2004 18.7336 10.0707 18.8632 9.94891C18.9591 9.85819 19.055 9.76746 19.1665 9.66896L19.2676 9.57305C19.6538 9.20497 20.0919 8.78763 20.6414 8.52064L20.6855 8.49991L20.7244 8.47398C20.8358 8.4014 20.9473 8.32882 21.0588 8.26143C21.1728 8.19144 21.2869 8.12664 21.4009 8.05924C21.5124 7.99703 21.5772 7.96333 21.6135 7.94519C22.1811 7.86742 22.5518 7.55377 22.8033 7.33863C22.8344 7.3127 22.8707 7.2816 22.9044 7.25309L22.9614 7.26605L23.345 7.15199C23.415 7.13125 23.4824 7.11311 23.5705 7.0846C24.1615 6.885 24.7707 6.72688 25.385 6.61801C25.5483 6.5895 25.665 6.57394 25.7376 6.57394C25.7713 6.57654 25.805 6.57654 25.8413 6.57654C26.313 6.57654 26.7511 6.46767 27.1373 6.37176C27.4406 6.29658 27.7283 6.224 27.9616 6.224C28.0368 6.224 28.099 6.23178 28.1586 6.24733C28.2364 6.26548 28.3038 6.29658 28.3738 6.34584L28.5345 6.45989L28.7315 6.48063C28.9389 6.50396 29.1411 6.5221 29.3406 6.54025C29.8513 6.5895 30.3334 6.63356 30.7508 6.73984C30.8026 6.75539 30.8389 6.76576 30.8622 6.77354C31.3677 7.24272 32.0157 7.38528 32.5394 7.50193C32.9256 7.58747 33.2885 7.66783 33.4647 7.8415L33.5114 7.88816L33.5658 7.92704C33.7862 8.07998 33.9702 8.19403 34.1335 8.29513L34.1568 8.31068C34.9449 8.80059 35.6862 9.37864 36.3576 10.0293C36.4742 10.1433 36.5364 10.2211 36.552 10.2444L36.5727 10.2755L36.5961 10.3066C36.819 10.5892 37.0652 10.8354 37.3037 11.0739C37.6433 11.4109 37.9621 11.7297 38.0943 12.0537L38.1254 12.1289L38.1695 12.1963C38.2758 12.3544 38.3794 12.5125 38.4779 12.6758C38.7553 13.1269 39.0093 13.6012 39.2297 14.0782C39.2582 14.1456 39.2815 14.1948 39.2945 14.2285C39.3074 14.8895 39.6159 15.3795 39.8647 15.7735C40.098 16.1441 40.2173 16.3489 40.181 16.5978L40.1602 16.7274C40.1602 16.7274 40.2225 17.0747 40.2458 17.1862C40.3547 17.7331 40.4324 18.293 40.4791 18.8529C40.4946 19.0681 40.4946 19.1666 40.4895 19.2106C40.4117 19.6591 40.5128 20.092 40.6035 20.4756C40.7305 21.02 40.7513 21.2247 40.6268 21.3647L40.492 21.5125Z" fill="#D6E4EA"/>
<path d="M18.0592 17.798C18.2234 17.4198 18.2149 17.0517 18.0403 16.9759C17.8656 16.9001 17.5909 17.1452 17.4267 17.5234C17.2625 17.9015 17.271 18.2696 17.4456 18.3454C17.6203 18.4213 17.895 18.1762 18.0592 17.798Z" fill="#D6E4EA"/>
<path d="M20.8932 11.1313C21.1004 11.0444 21.1154 10.6089 20.9265 10.1588C20.7376 9.70861 20.4165 9.41417 20.2093 9.50113C20.002 9.58808 19.9871 10.0235 20.1759 10.4737C20.3648 10.9238 20.6859 11.2183 20.8932 11.1313Z" fill="#D6E4EA"/>
<path d="M18.8779 12.795C18.9244 12.309 18.7808 11.8977 18.557 11.8763C18.3333 11.8549 18.1142 12.2314 18.0677 12.7174C18.0211 13.2033 18.1648 13.6147 18.3885 13.6361C18.6122 13.6575 18.8313 13.2809 18.8779 12.795Z" fill="#D6E4EA"/>
<path d="M16.2628 20.1392C16.427 19.761 16.4185 19.3929 16.2439 19.3171C16.0692 19.2412 15.7945 19.4864 15.6303 19.8645C15.4661 20.2427 15.4746 20.6108 15.6492 20.6866C15.8239 20.7625 16.0986 20.5173 16.2628 20.1392Z" fill="#D6E4EA"/>
<path d="M16.0268 18.3372C16.2505 18.3158 16.3941 17.9045 16.3476 17.4185C16.3011 16.9326 16.082 16.556 15.8582 16.5774C15.6345 16.5988 15.4908 17.0102 15.5374 17.4961C15.5839 17.9821 15.803 18.3586 16.0268 18.3372Z" fill="#D6E4EA"/>
<path d="M39.1555 17.6483C39.3302 17.5724 39.3386 17.2044 39.1744 16.8262C39.0102 16.448 38.7355 16.2029 38.5609 16.2787C38.3862 16.3545 38.3777 16.7226 38.542 17.1008C38.7062 17.479 38.9809 17.7241 39.1555 17.6483Z" fill="#D6E4EA"/>
<path d="M17.0452 16.2578C17.2198 16.1819 17.2283 15.8139 17.0641 15.4357C16.8999 15.0575 16.6252 14.8124 16.4505 14.8882C16.2759 14.964 16.2674 15.3321 16.4316 15.7103C16.5958 16.0885 16.8705 16.3336 17.0452 16.2578Z" fill="#D6E4EA"/>
<path d="M35.7922 11.3013C35.9811 10.8511 35.9662 10.4157 35.7589 10.3288C35.5517 10.2418 35.2305 10.5363 35.0417 10.9864C34.8528 11.4366 34.8677 11.872 35.075 11.959C35.2822 12.0459 35.6034 11.7515 35.7922 11.3013Z" fill="#D6E4EA"/>
<path d="M37.5824 14.4676C37.8062 14.4462 37.9498 14.0348 37.9033 13.5489C37.8567 13.0629 37.6376 12.6864 37.4139 12.7078C37.1902 12.7292 37.0465 13.1405 37.093 13.6265C37.1396 14.1124 37.3587 14.489 37.5824 14.4676Z" fill="#D6E4EA"/>
<path d="M38.7372 20.8398C38.9609 20.8183 39.1046 20.407 39.0581 19.9211C39.0115 19.4351 38.7924 19.0586 38.5687 19.08C38.3449 19.1014 38.2013 19.5127 38.2478 19.9987C38.2944 20.4846 38.5135 20.8612 38.7372 20.8398Z" fill="#D6E4EA"/>
<path d="M39.173 23.0926C39.3372 22.7145 39.3287 22.3464 39.154 22.2706C38.9794 22.1947 38.7047 22.4398 38.5405 22.818C38.3763 23.1962 38.3847 23.5643 38.5594 23.6401C38.734 23.7159 39.0087 23.4708 39.173 23.0926Z" fill="#D6E4EA"/>
<path d="M35.7609 29.5935C35.9681 29.5065 35.983 29.0711 35.7942 28.6209C35.6053 28.1708 35.2842 27.8763 35.0769 27.9633C34.8697 28.0502 34.8548 28.4857 35.0436 28.9358C35.2325 29.386 35.5536 29.6804 35.7609 29.5935Z" fill="#D6E4EA"/>
<path d="M37.9038 26.3693C37.9503 25.8834 37.8066 25.4721 37.5829 25.4506C37.3592 25.4292 37.1401 25.8058 37.0935 26.2917C37.047 26.7777 37.1907 27.189 37.4144 27.2104C37.6381 27.2319 37.8572 26.8553 37.9038 26.3693Z" fill="#D6E4EA"/>
<path d="M16.0232 23.6409C16.1978 23.5651 16.2063 23.197 16.0421 22.8189C15.8779 22.4407 15.6032 22.1956 15.4285 22.2714C15.2539 22.3472 15.2454 22.7153 15.4096 23.0935C15.5738 23.4717 15.8485 23.7168 16.0232 23.6409Z" fill="#D6E4EA"/>
<path d="M17.386 21.8275C17.5606 21.7516 17.5691 21.3836 17.4049 21.0054C17.2407 20.6272 16.966 20.3821 16.7913 20.4579C16.6167 20.5337 16.6082 20.9018 16.7724 21.28C16.9366 21.6582 17.2113 21.9033 17.386 21.8275Z" fill="#D6E4EA"/>
<path d="M19.8093 29.1394C19.9982 28.6893 19.9833 28.2539 19.776 28.1669C19.5687 28.08 19.2476 28.3744 19.0588 28.8246C18.8699 29.2747 18.8848 29.7101 19.0921 29.7971C19.2993 29.884 19.6205 29.5896 19.8093 29.1394Z" fill="#D6E4EA"/>
<path d="M17.1737 27.2134C17.3975 27.192 17.5411 26.7807 17.4946 26.2947C17.448 25.8088 17.2289 25.4322 17.0052 25.4536C16.7815 25.4751 16.6378 25.8864 16.6844 26.3723C16.7309 26.8583 16.95 27.2349 17.1737 27.2134Z" fill="#D6E4EA"/>
<path d="M30.2414 9.57635C30.3032 9.39625 30.0371 9.14181 29.6471 9.00806C29.2571 8.8743 28.8909 8.91188 28.8291 9.09198C28.7674 9.27209 29.0334 9.52652 29.4234 9.66028C29.8134 9.79403 30.1797 9.75646 30.2414 9.57635Z" fill="#D6E4EA"/>
<path d="M28.6831 8.01997C29.0842 7.92421 29.3734 7.69645 29.3292 7.51126C29.285 7.32606 28.924 7.25356 28.523 7.34932C28.122 7.44508 27.8327 7.67284 27.8769 7.85803C27.9212 8.04323 28.2821 8.11573 28.6831 8.01997Z" fill="#D6E4EA"/>
<path d="M23.5165 9.25103C23.7426 8.81837 23.7644 8.38324 23.5652 8.27914C23.366 8.17505 23.0212 8.4414 22.7951 8.87407C22.569 9.30673 22.5472 9.74186 22.7464 9.84595C22.9456 9.95005 23.2904 9.68369 23.5165 9.25103Z" fill="#D6E4EA"/>
<path d="M26.7924 8.48992C26.9275 8.31026 26.7206 7.92683 26.3304 7.63351C25.9402 7.3402 25.5143 7.24807 25.3793 7.42773C25.2442 7.6074 25.4511 7.99083 25.8413 8.28415C26.2316 8.57746 26.6574 8.66959 26.7924 8.48992Z" fill="#D6E4EA"/>
<path d="M32.7309 9.62873C33.1475 9.37416 33.3901 9.01233 33.2729 8.82054C33.1557 8.62876 32.723 8.67965 32.3065 8.93421C31.8899 9.18878 31.6473 9.55061 31.7645 9.7424C31.8817 9.93418 32.3144 9.88329 32.7309 9.62873Z" fill="#D6E4EA"/>
<path d="M31.2345 8.41932C31.502 8.25584 31.6577 8.02329 31.5823 7.89991C31.5069 7.77653 31.229 7.80905 30.9614 7.97254C30.6939 8.13602 30.5382 8.36857 30.6136 8.49195C30.689 8.61533 30.967 8.58281 31.2345 8.41932Z" fill="#D6E4EA"/>
<path d="M30.1801 30.5509C30.5489 30.3666 30.7789 30.0792 30.6938 29.9088C30.6087 29.7385 30.2407 29.7498 29.8719 29.9341C29.5031 30.1184 29.2731 30.4059 29.3582 30.5762C29.4433 30.7465 29.8113 30.7352 30.1801 30.5509Z" fill="#D6E4EA"/>
<path d="M30.0628 32.0768C30.0821 31.8874 29.7652 31.7 29.355 31.6583C28.9448 31.6165 28.5967 31.7363 28.5774 31.9257C28.5581 32.1151 28.875 32.3025 29.2852 32.3442C29.6954 32.386 30.0435 32.2663 30.0628 32.0768Z" fill="#D6E4EA"/>
<path d="M27.0749 32.3558C27.4228 32.0133 27.577 31.6059 27.4194 31.4457C27.2617 31.2855 26.8518 31.4333 26.5039 31.7758C26.156 32.1182 26.0018 32.5257 26.1595 32.6859C26.3172 32.8461 26.727 32.6983 27.0749 32.3558Z" fill="#D6E4EA"/>
<path d="M22.2011 29.5561C22.2862 29.3858 22.0563 29.0983 21.6874 28.914C21.3186 28.7297 20.9506 28.7184 20.8655 28.8887C20.7804 29.0591 21.0104 29.3465 21.3792 29.5308C21.7481 29.7151 22.116 29.7264 22.2011 29.5561Z" fill="#D6E4EA"/>
<path d="M22.272 31.3182C22.6822 31.2764 22.9991 31.089 22.9798 30.8996C22.9605 30.7102 22.6124 30.5905 22.2022 30.6322C21.792 30.6739 21.4751 30.8613 21.4944 31.0507C21.5136 31.2402 21.8618 31.3599 22.272 31.3182Z" fill="#D6E4EA"/>
<path d="M25.3998 31.6618C25.5575 31.5017 25.4033 31.0942 25.0554 30.7517C24.7075 30.4093 24.2977 30.2615 24.14 30.4217C23.9823 30.5818 24.1365 30.9893 24.4844 31.3318C24.8323 31.6742 25.2421 31.822 25.3998 31.6618Z" fill="#D6E4EA"/>
<path d="M33.7983 30.2566C33.889 30.051 33.6005 29.7245 33.1539 29.5275C32.7073 29.3304 32.2716 29.3373 32.1809 29.543C32.0902 29.7486 32.3787 30.075 32.8253 30.2721C33.2719 30.4692 33.7075 30.4623 33.7983 30.2566Z" fill="#D6E4EA"/>
<path d="M32.2416 31.3939C32.3 31.2616 32.1148 31.0517 31.8279 30.9252C31.5411 30.7986 31.2612 30.8032 31.2029 30.9355C31.1445 31.0678 31.3297 31.2777 31.6165 31.4042C31.9034 31.5308 32.1832 31.5262 32.2416 31.3939Z" fill="#D6E4EA"/>
<g opacity="0.4">
<path d="M22.9872 27.0882C22.6891 27.0882 22.4169 26.9845 22.2951 26.7201C22.1551 26.4142 22.3262 26.0565 22.5672 25.8621C22.7331 25.7273 22.9249 25.6496 23.1116 25.5718C23.1764 25.5459 23.2412 25.5174 23.306 25.4888C24.3428 25.0119 24.9313 23.9154 25.2449 23.0807C25.416 22.6193 25.5534 22.1372 25.683 21.668C25.8411 21.1003 26.007 20.5145 26.2377 19.9572C27.4016 17.1655 30.437 15.2395 33.4594 15.3665C34.0245 15.3899 34.4341 15.4806 34.7892 15.6543C35.1987 15.8564 36.1371 16.8259 36.2252 17.1396C36.3211 17.4791 36.1241 17.8083 35.8883 17.9872C35.6472 18.166 35.3543 18.236 35.0743 18.2827C34.333 18.4071 33.5968 18.3553 32.8866 18.3086C31.7927 18.2334 30.7584 18.1634 29.8045 18.7156C28.988 19.1848 28.2933 20.0168 27.6841 21.2507C27.5001 21.6214 27.3083 22.0491 27.1061 22.5027C26.7484 23.2985 26.3803 24.1202 26.007 24.7501C25.5171 25.577 24.6721 26.6423 23.4175 27.0234C23.2775 27.0675 23.1271 27.0908 22.9846 27.0908L22.9872 27.0882ZM33.1691 15.618C30.3463 15.618 27.5675 17.448 26.4814 20.0557C26.2558 20.5975 26.0925 21.1781 25.937 21.738C25.8048 22.2124 25.6674 22.7023 25.4912 23.1715C25.162 24.0528 24.5347 25.2115 23.4175 25.7247C23.3501 25.7558 23.2827 25.7843 23.2153 25.8129C23.039 25.8854 22.8705 25.9554 22.7331 26.0669C22.5724 26.1965 22.4506 26.4324 22.5335 26.6164C22.645 26.8627 23.0338 26.873 23.3475 26.7771C24.5217 26.4194 25.3227 25.4059 25.7893 24.6205C26.1548 24.001 26.5202 23.187 26.8754 22.399C27.0802 21.9454 27.272 21.5151 27.4586 21.1392C28.0911 19.8561 28.8195 18.9903 29.6801 18.4926C30.704 17.9016 31.7771 17.9742 32.9099 18.052C33.6046 18.0986 34.3252 18.1479 35.038 18.0287C35.2869 17.9872 35.5435 17.9276 35.7405 17.7824C35.9012 17.6632 36.0438 17.4325 35.9842 17.2147C35.9271 17.0125 35.0691 16.082 34.6829 15.8927C34.3641 15.7346 33.9856 15.6543 33.4568 15.6335C33.3635 15.6283 33.2676 15.6283 33.1743 15.6283L33.1691 15.618Z" fill="white"/>
</g>
<g opacity="0.4">
<path d="M22.7643 25.1441C22.6191 25.1441 22.5155 25.0948 22.4533 25.0015C22.3003 24.7605 22.5155 24.3094 22.8706 23.5681C23.1842 22.9123 23.5731 22.0983 23.8115 21.1937C24.1744 19.825 25.1672 16.4967 26.5307 15.1332C27.9356 13.7309 29.2395 12.8262 31.3806 12.6629C32.0701 12.6111 32.9229 12.6474 33.4232 13.4095C33.6565 13.7646 33.7083 14.0886 33.5735 14.3452C33.3765 14.7237 32.814 14.9207 31.855 14.9492C29.4443 15.0166 27.2928 16.5952 25.9526 19.2807C25.8204 19.5451 25.6494 20.0687 25.4524 20.6726C24.838 22.5597 23.9956 25.1467 22.7643 25.1467V25.1441ZM31.7746 12.904C31.6502 12.904 31.5258 12.9092 31.4013 12.9196C29.338 13.0777 28.0782 13.9538 26.7147 15.3147C25.3953 16.6315 24.4207 19.908 24.063 21.2559C23.8167 22.1839 23.4227 23.0108 23.1039 23.6769C22.8654 24.1746 22.5958 24.7397 22.6736 24.8616C22.6814 24.8745 22.7176 24.8849 22.7643 24.8849C23.8063 24.8849 24.6488 22.3005 25.2061 20.5897C25.4057 19.9754 25.5794 19.4466 25.7194 19.164C27.1036 16.3904 29.338 14.76 31.8472 14.69C32.8996 14.6615 33.2417 14.4204 33.3454 14.226C33.4569 14.0108 33.3325 13.7413 33.208 13.552C32.8633 13.0258 32.3189 12.904 31.7746 12.904Z" fill="white"/>
</g>
<g opacity="0.4">
<path d="M23.3059 18.0987C22.943 18.0987 22.7875 17.6762 22.7616 17.3133C22.7408 16.9944 23.1193 15.5739 23.2696 15.1566C23.4588 14.6226 23.7673 14.1457 24.1872 13.7387L24.3272 13.6013C24.5916 13.3343 24.8949 13.031 25.2811 12.8677C25.657 12.707 26.178 12.6915 26.4917 13.0181C26.8649 13.4069 26.7249 14.0523 26.3932 14.493C26.2273 14.7133 25.8903 14.9233 25.5637 15.1255C25.2733 15.3043 24.9753 15.491 24.8379 15.6595C24.5527 16.012 24.4102 16.4812 24.2857 16.8959C24.0991 17.5154 23.9202 18.1013 23.3059 18.1013V18.0987ZM24.3687 13.9227C23.9799 14.3038 23.6921 14.747 23.5133 15.2421C23.3474 15.7087 23.0052 17.0514 23.0208 17.2951C23.0337 17.5051 23.1245 17.8395 23.3059 17.8395C23.7103 17.8395 23.8425 17.4714 24.0395 16.8182C24.1717 16.3801 24.322 15.885 24.6383 15.4936C24.8016 15.2914 25.1074 15.1022 25.4289 14.9026C25.7347 14.7133 26.051 14.5163 26.1884 14.3349C26.4476 13.9927 26.5772 13.4769 26.3076 13.1969C26.0821 12.961 25.6725 12.9844 25.3874 13.1062C25.0478 13.2514 24.7653 13.5365 24.5138 13.7853L24.3713 13.9253L24.3687 13.9227Z" fill="white"/>
</g>
<g opacity="0.4">
<path d="M22.6527 21.8469C22.3935 21.8469 22.1291 21.7251 21.9658 21.5099C21.7481 21.2196 21.7196 20.7919 21.8958 20.4419C21.9399 20.3564 21.9943 20.2735 22.0462 20.1957C22.1524 20.0376 22.2509 19.8898 22.2406 19.7343C22.2354 19.6643 22.2069 19.5865 22.1784 19.5062C22.1317 19.3766 22.0773 19.2288 22.1136 19.0681C22.1239 19.0189 22.1576 18.9515 22.2484 18.8996C22.5205 18.7441 23.1738 18.8478 23.2697 18.8789C23.5937 18.9774 23.7648 19.3429 23.7337 19.8587C23.7103 20.2398 23.6403 20.6208 23.5289 20.9863C23.4511 21.2377 23.3137 21.5929 23.0053 21.7588C22.8964 21.8184 22.7746 21.8443 22.6501 21.8443L22.6527 21.8469ZM22.3676 19.1329C22.3494 19.2159 22.3831 19.3092 22.4246 19.4155C22.4583 19.5088 22.4946 19.6073 22.5024 19.7161C22.5179 19.9598 22.3831 20.162 22.2639 20.3383C22.2147 20.4108 22.1654 20.4834 22.1291 20.5586C21.9969 20.8204 22.0151 21.1392 22.1758 21.3518C22.3391 21.5695 22.6657 21.6499 22.886 21.5306C23.1089 21.4088 23.2152 21.134 23.2852 20.9085C23.3915 20.5612 23.4563 20.2009 23.4796 19.8406C23.4978 19.5399 23.4356 19.1951 23.1997 19.1251C23.0234 19.0707 22.4505 19.0448 22.3702 19.1329H22.3676Z" fill="white"/>
</g>
<g opacity="0.3">
<path d="M37.2545 19.3403C37.2493 19.3948 37.2441 19.4518 37.2389 19.5114C35.3311 20.162 33.1226 19.9573 31.1811 20.3176C30.2376 20.4731 29.9861 21.0226 29.8332 21.9143C29.0607 25.2478 27.9331 27.1608 25.3773 28.5243C25.2555 28.5113 25.1388 28.4958 25.0273 28.4828C27.5365 26.9275 28.5475 25.2115 29.3303 21.7977C29.4288 21.3959 29.4988 20.9189 29.8202 20.5016C30.1287 20.105 30.6212 19.9184 31.0878 19.8406C31.9691 19.6929 32.8323 19.6903 33.6877 19.6643C34.8697 19.6073 36.101 19.6229 37.2545 19.3403Z" fill="black"/>
</g>
<g opacity="0.3">
<path d="M37.1431 20.4342C37.1327 20.5223 37.1224 20.6131 37.1146 20.7038C35.4945 21.0097 33.7474 20.9293 32.174 21.2222C31.2304 21.3777 30.979 21.9247 30.8261 22.819C30.191 25.5589 29.3148 27.3423 27.5988 28.6461C27.5651 28.6487 27.534 28.6487 27.5003 28.6487H27.42C27.3059 28.6487 27.1945 28.6461 27.083 28.6461C28.8379 27.2593 29.6596 25.5874 30.3232 22.7023C30.4217 22.3005 30.4917 21.821 30.8131 21.4063C31.1216 21.0097 31.6141 20.823 32.0807 20.7427C32.962 20.5975 33.8252 20.5949 34.6806 20.569C35.4919 20.5301 36.3266 20.5223 37.1431 20.4342Z" fill="black"/>
</g>
<g opacity="0.3">
<path d="M37.0184 21.4995C37.0054 21.6136 36.9899 21.7302 36.9743 21.8469C35.6938 21.9765 34.377 21.9816 33.1665 22.2072C32.2255 22.3601 31.9715 22.9096 31.8211 23.8013C31.3623 25.7688 30.7817 27.2463 29.8537 28.4024C29.6489 28.449 29.439 28.4879 29.229 28.5216C30.2322 27.3318 30.818 25.8491 31.3157 23.6873C31.4142 23.2855 31.4842 22.806 31.8056 22.3912C32.1141 21.9946 32.6092 21.808 33.0732 21.7276C33.9545 21.5825 34.8177 21.5799 35.6731 21.5539C36.1163 21.5332 36.5674 21.5202 37.0184 21.4995Z" fill="black"/>
</g>
<g opacity="0.3">
<path d="M36.8758 22.5468C36.8576 22.679 36.8369 22.8112 36.8162 22.9382C35.9115 23.0004 35.0094 23.0496 34.1592 23.2077C33.2183 23.3607 32.9642 23.9102 32.8139 24.8019C32.565 25.8699 32.2825 26.7927 31.9222 27.5988C31.7044 27.7025 31.4815 27.8062 31.2534 27.9125C31.6837 27.026 32.0129 25.9762 32.3084 24.6879C32.4069 24.2861 32.4769 23.8065 32.7983 23.3918C33.1068 22.9952 33.6019 22.8086 34.0659 22.7282C34.9472 22.583 35.8104 22.5805 36.6658 22.5545C36.7358 22.5519 36.8058 22.5468 36.8758 22.5468Z" fill="black"/>
</g>
<g opacity="0.3">
<path d="M36.689 23.6459C36.6579 23.8014 36.6139 23.9492 36.5568 24.0917C36.0773 24.1332 35.6081 24.185 35.1519 24.2706C34.211 24.4261 33.9569 24.9756 33.8066 25.8673C33.734 26.1836 33.6562 26.4869 33.5733 26.7798C33.3737 26.8886 33.1663 26.9949 32.9512 27.1012C33.0756 26.6839 33.1896 26.2354 33.3011 25.7533C33.3996 25.3489 33.4696 24.872 33.791 24.4546C34.0995 24.0606 34.5946 23.874 35.0586 23.7936C35.6081 23.7029 36.1525 23.6666 36.689 23.6459Z" fill="black"/>
</g>
<g opacity="0.4">
<path d="M19.4206 25.7792C19.3817 25.7792 19.3402 25.774 19.3013 25.7637C19.125 25.717 18.9799 25.5667 18.8762 25.3178C18.6351 24.7423 18.5729 24.2239 18.6922 23.7807C18.7414 23.594 18.7958 23.4152 18.8477 23.2337C19.1017 22.3705 19.3428 21.554 19.1717 20.4446C18.6818 17.2277 20.7192 14.4464 20.74 14.4178L21.3076 13.7335L20.9629 14.5475C20.9629 14.5475 20.4496 15.7709 20.0893 17.8317C19.7964 19.5088 20.0012 21.7614 20.2345 22.7568C20.2552 22.8501 20.2811 22.9486 20.3071 23.0471C20.517 23.8662 20.7762 24.8875 19.8249 25.6159C19.685 25.7248 19.5476 25.7792 19.418 25.7792H19.4206ZM20.784 14.563C20.3719 15.211 19.0602 17.4558 19.4309 20.4057C19.5787 21.5748 19.3609 22.4146 19.0991 23.3063C19.0473 23.4852 18.9928 23.664 18.9436 23.8455C18.8399 24.2317 18.8969 24.6931 19.1173 25.2141C19.1665 25.3308 19.2495 25.4785 19.3687 25.5096C19.4491 25.5304 19.5528 25.4967 19.6694 25.4085C20.4859 24.7838 20.2578 23.8947 20.0582 23.1093C20.0323 23.0082 20.0064 22.9097 19.9856 22.8138C19.7938 21.9921 19.4439 19.6695 19.8379 17.785C20.1489 16.2997 20.5974 15.1359 20.784 14.563Z" fill="white"/>
</g>
</g>
<defs>
<clipPath id="clip0_109_10133">
<rect width="35.5512" height="32" fill="white" transform="translate(12.2246 4)"/>
</clipPath>
</defs>
</svg>
