<svg width="60" height="40" viewBox="0 0 60 40" fill="none" xmlns="http://www.w3.org/2000/svg">
<g clip-path="url(#clip0_109_10461)">
<path d="M50.443 15.0659C50.373 16.8934 47.2676 18.5161 42.4773 19.5555C39.0272 20.3046 34.6983 20.7505 29.9988 20.7505C29.0656 20.7505 28.148 20.7323 27.2485 20.6986C17.3336 20.3254 9.66859 17.951 9.55713 15.0659H50.4456H50.443Z" fill="#1A292D"/>
<path d="M29.9986 22.1269C41.9911 22.1269 51.7129 18.9656 51.7129 15.0659C51.7129 11.1662 41.9911 8.00488 29.9986 8.00488C18.006 8.00488 8.28418 11.1662 8.28418 15.0659C8.28418 18.9656 18.006 22.1269 29.9986 22.1269Z" fill="#1A292D"/>
<path d="M46.614 11.652C45.7949 11.3305 44.8617 11.035 43.83 10.7681C43.7108 10.2807 43.5605 9.8634 43.4023 9.51086C44.4159 9.77008 45.3542 10.0578 46.2122 10.3715C46.2122 10.3792 46.22 10.387 46.22 10.3948L46.233 10.4285C46.3703 10.7784 46.5025 11.1854 46.614 11.652Z" fill="#304044"/>
<path d="M29.9984 10.6255C40.4629 10.6255 49.0844 12.8366 50.2923 15.688C50.3882 15.4625 50.4427 15.2344 50.4427 15.0011C50.4427 11.8257 41.2898 9.25171 29.9984 9.25171C18.7071 9.25171 9.5542 11.8257 9.5542 15.0037C9.5542 15.237 9.60863 15.4651 9.70454 15.6906C10.9125 12.8392 19.5339 10.6281 29.9984 10.6281V10.6255Z" fill="#1A292D"/>
<path d="M51.6818 15.4625C51.0727 26.9068 41.5984 36 29.9986 36C18.3987 36 8.92702 26.9068 8.31787 15.4625C8.81815 18.4045 14.8578 20.8645 23.1009 21.7614C25.0709 21.9765 27.1679 22.1009 29.3453 22.1217C29.4957 22.1217 29.6434 22.1217 29.7938 22.1217H29.9986C33.1739 22.1217 36.1886 21.8987 38.9077 21.4996C39.8383 21.3648 40.73 21.2066 41.5854 21.033C43.2392 20.6934 44.7427 20.2813 46.0543 19.8121C49.3126 18.6508 51.3941 17.1318 51.6792 15.4573L51.6818 15.4625Z" fill="#1A292D"/>
<path d="M50.6294 12.8599C50.6294 12.8599 50.6191 12.8496 50.6139 12.8444C50.5387 12.7718 50.4583 12.6992 50.3754 12.6266C50.3365 12.5929 50.3002 12.5566 50.2587 12.523C50.1836 12.4581 50.098 12.3959 50.0177 12.3311C49.971 12.2948 49.9295 12.2586 49.8803 12.2223C49.8155 12.1756 49.7455 12.1238 49.6729 12.0745C49.6159 12.0356 49.5589 11.9967 49.4993 11.9579C49.4759 11.9423 49.4526 11.9268 49.4293 11.9112C49.3437 11.8568 49.2582 11.8023 49.1675 11.7453C49.113 11.7142 49.0586 11.6805 49.0016 11.6468C48.8486 11.5587 48.6905 11.4705 48.5272 11.3824C48.4624 11.3487 48.3924 11.315 48.325 11.2787C48.2421 11.2372 48.1617 11.1932 48.0762 11.1517C48.0658 11.1465 48.0554 11.1413 48.0451 11.1362C47.9725 11.1025 47.8999 11.0662 47.8247 11.0325C47.7288 10.9884 47.6303 10.9417 47.5318 10.8977C47.4566 10.864 47.3841 10.8329 47.3063 10.7992C47.1948 10.7525 47.0834 10.7059 46.9693 10.6592C46.9019 10.6307 46.8371 10.6048 46.7671 10.5788C46.5831 10.5063 46.3965 10.4337 46.2046 10.3637C46.2046 10.3715 46.2124 10.3792 46.2124 10.387L46.2254 10.4207C46.3628 10.7707 46.495 11.1776 46.6064 11.6442C46.8967 11.7583 47.1715 11.8749 47.4307 11.9916C47.4644 12.0071 47.4955 12.0227 47.5266 12.0382C47.607 12.0745 47.6847 12.1134 47.7625 12.1523C47.817 12.1782 47.8714 12.2067 47.9258 12.2352C47.9621 12.2534 47.9984 12.2741 48.0347 12.2923C48.1099 12.3311 48.1876 12.3726 48.2602 12.4141C48.3613 12.4711 48.4598 12.5281 48.5557 12.5852C48.5557 12.5852 48.5609 12.5878 48.5635 12.5903C48.6516 12.6422 48.732 12.6966 48.8149 12.7511C48.8564 12.7796 48.8979 12.8055 48.9393 12.834C49.0119 12.8833 49.0845 12.9351 49.1519 12.9844C49.2374 13.0492 49.3178 13.114 49.3956 13.1788C49.3982 13.1814 49.4033 13.1839 49.4059 13.1865C49.4681 13.2384 49.5226 13.2902 49.5796 13.3447C49.6003 13.3628 49.6211 13.381 49.6392 13.3991C49.6729 13.4302 49.7014 13.4639 49.7325 13.495C49.7662 13.5313 49.8025 13.5676 49.8336 13.6013C49.8621 13.6324 49.8881 13.6661 49.914 13.6972C49.9451 13.7335 49.9736 13.7724 50.0021 13.8087C50.0255 13.8398 50.0488 13.8735 50.0695 13.9046C50.0954 13.9434 50.1214 13.9823 50.1447 14.0186C50.1628 14.0497 50.1836 14.0808 50.1991 14.1119C50.2225 14.1534 50.2406 14.1923 50.2587 14.2338C50.2717 14.2649 50.2873 14.2934 50.3002 14.3245C50.3184 14.3712 50.3339 14.4152 50.3495 14.4619C50.3573 14.4878 50.3676 14.5137 50.3754 14.5396C50.3935 14.607 50.4091 14.677 50.4195 14.7444C50.4246 14.7833 50.4272 14.8248 50.4298 14.8637C50.4324 14.9077 50.4402 14.9518 50.4402 14.9959C50.4402 15.0166 50.4402 15.0399 50.4402 15.0581C50.3935 16.3153 48.9108 17.4739 46.4379 18.4123C45.3103 18.84 43.9754 19.2236 42.4745 19.5477C41.5362 19.7524 40.5278 19.9339 39.4702 20.0894C36.637 20.5068 33.415 20.7426 29.996 20.7426C29.6797 20.7426 29.3635 20.7426 29.0498 20.7349C28.4407 20.7271 27.8393 20.7115 27.2457 20.6908C25.5427 20.6286 23.9044 20.5016 22.3647 20.3279C14.9201 19.4854 9.64765 17.448 9.55433 15.0581C9.55433 15.0373 9.55433 15.014 9.55433 14.9959C9.55433 12.4737 15.3218 10.3326 23.3471 9.55495C25.4312 9.35276 27.6682 9.24389 29.9986 9.24389C35.3332 9.24389 40.1883 9.81675 43.8276 10.7577C43.7084 10.2704 43.5581 9.85304 43.3999 9.50051C39.7087 8.55957 35.0558 7.99707 29.9986 7.99707C27.6527 7.99707 25.3897 8.1189 23.2719 8.34442C14.5727 9.2724 8.28418 11.9319 8.28418 15.0658C8.28418 15.2006 8.29455 15.3302 8.31788 15.4624C8.81816 18.4045 14.8579 20.8645 23.1009 21.7613C25.0709 21.9765 27.1679 22.1009 29.3453 22.1217C29.4957 22.1217 29.6434 22.1217 29.7938 22.1217H29.9986C33.1739 22.1217 36.1886 21.8987 38.9078 21.4995C39.8383 21.3648 40.73 21.2066 41.5854 21.033C43.2392 20.6934 44.7427 20.2812 46.0543 19.8121C49.3126 18.6508 51.3941 17.1318 51.6792 15.4573C51.7026 15.3251 51.7129 15.1955 51.7129 15.0607C51.7129 14.2908 51.3293 13.5494 50.6268 12.8547L50.6294 12.8599Z" fill="#304044"/>
<path d="M31.8156 9.83496H19.5029V19.1174H31.8156V9.83496Z" fill="white"/>
<path d="M19.5029 9.83487L28.337 5.82483H39.3354L31.8156 9.83487H19.5029Z" fill="#F6F7F0"/>
<path d="M39.3352 5.82483V13.2409L31.8154 19.1173V9.83487L39.3352 5.82483Z" fill="#E4E5DF"/>
<path d="M42.6327 16.3879C42.2958 16.7586 42.3243 17.334 42.7001 17.6736C42.9749 17.9224 43.1797 18.2568 43.0423 18.6586C42.9853 18.8323 42.6483 19.1926 42.0988 19.6359C41.2693 19.8069 40.3905 19.9625 39.4755 20.0973C38.3064 20.2683 37.0726 20.4109 35.7843 20.5146C33.9516 20.6675 32.0101 20.7505 30.0012 20.7505C29.6824 20.7505 29.3661 20.7479 29.0551 20.7427C28.6715 20.7401 28.2904 20.7323 27.9146 20.7168C29.0058 19.8225 31.1729 17.8965 31.5358 16.4242C31.9661 14.6693 31.5643 12.2353 34.1538 11.5406C34.8459 11.354 35.3903 10.8355 35.6236 10.159C35.7013 9.93346 35.818 9.70535 35.9528 9.50057C36.1913 9.14027 36.4868 8.85254 36.7589 8.76181C37.0467 8.6659 37.3007 8.55963 37.5236 8.44039C38.3609 8.0075 38.7808 7.42686 39.0011 6.57664C39.2785 5.52941 39.9317 4.10114 41.5311 4.00264C43.5841 3.87822 43.7033 7.64978 43.6385 9.26987C43.6281 9.51872 43.6696 9.76497 43.7551 9.99567C43.8148 10.159 43.9003 10.3145 44.004 10.4571C44.4757 11.1077 45.1342 12.313 44.6468 13.4873C44.2139 14.5345 43.2963 15.6569 42.6353 16.3853L42.6327 16.3879Z" fill="#1E8637"/>
<path d="M49.971 15.7424C49.818 16.1079 49.6081 16.4838 49.3722 16.8467C48.6853 17.417 47.6899 17.9484 46.4405 18.4227C45.3129 18.8478 43.9754 19.2341 42.4771 19.5581C42.3527 19.5866 42.2257 19.6125 42.0986 19.6384C41.2692 19.8095 40.3904 19.965 39.4754 20.0998C38.3063 20.2709 37.0725 20.4135 35.7842 20.5172C36.3052 19.8951 36.7199 19.2496 36.8599 18.6767C37.2902 16.9219 36.8884 14.4878 39.478 13.7932C40.1701 13.6065 40.7118 13.0881 40.9477 12.4115C41.1655 11.7894 41.6554 11.1595 42.0831 11.0144C42.4615 10.8874 42.783 10.7422 43.0551 10.5789C43.2858 10.4441 43.4777 10.2912 43.6384 10.1227C43.6798 10.0812 43.7161 10.0397 43.7524 9.99826C44.0246 9.67424 44.2035 9.29319 44.3253 8.8292C44.6026 7.78197 45.2559 6.3537 46.8552 6.2552C48.9082 6.13078 49.0274 9.90235 48.9626 11.5224C48.9626 11.5561 48.96 11.5924 48.96 11.6261C48.9652 12.0175 49.0948 12.3934 49.3281 12.7122C49.5044 12.9559 49.7066 13.2773 49.8647 13.6454C50.1317 14.2597 50.2743 15.0063 49.971 15.745V15.7424Z" fill="#44C660"/>
<path d="M22.7925 19.3325C22.8676 19.4958 22.9091 19.6747 22.9091 19.8691C22.9091 20.0506 22.8728 20.2268 22.8028 20.385C22.6551 20.372 22.5099 20.3538 22.3648 20.3383C21.5197 20.245 20.7058 20.1335 19.923 20.0065C19.9204 19.9987 19.9178 19.9935 19.9126 19.9884C18.3029 19.7162 17.0897 19.4621 16.1203 19.2263C16.1073 19.2237 16.0944 19.2211 16.0814 19.2185C13.9792 18.7027 13.0538 18.2827 11.8121 17.995C11.527 18.1453 11.2004 18.2309 10.853 18.2309C10.7468 18.2309 10.6431 18.2231 10.5394 18.2024C9.72028 18.0805 9.05669 17.474 8.85451 16.6834C8.81044 16.5175 8.78711 16.3464 8.78711 16.1649C8.78711 15.6361 8.9867 15.1566 9.31331 14.7911C9.0878 14.4878 8.95301 14.1094 8.95301 13.7024C8.95301 13.5443 8.97115 13.3914 9.01003 13.2462C9.17593 12.6085 9.67103 12.1082 10.3035 11.9372C10.2906 11.8516 10.2802 11.7635 10.2802 11.6702C10.2802 10.6566 11.0993 9.83752 12.1128 9.83752C12.6675 9.83752 13.1652 10.0838 13.4996 10.4778C13.7251 10.737 13.8755 11.061 13.9247 11.4187C13.961 11.4161 13.9973 11.411 14.0362 11.4084C14.0803 11.4058 14.1243 11.4032 14.171 11.4032C15.3115 11.4032 16.2369 12.3312 16.2369 13.4717C16.2369 13.5028 16.2343 13.5313 16.2317 13.5624C16.2628 13.5624 16.2914 13.5572 16.3225 13.5572C17.2842 13.5572 18.0851 14.2105 18.3184 15.097C18.5362 14.9389 18.8006 14.8455 19.0883 14.8455C19.6482 14.8455 20.12 15.1929 20.3144 15.6828C20.558 15.4054 20.908 15.2292 21.302 15.2292C22.033 15.2292 22.6214 15.8176 22.6214 16.5486C22.6214 16.8648 22.5073 17.15 22.3233 17.3781C22.7536 17.5932 23.0491 18.0365 23.0491 18.5523C23.0491 18.8452 22.9506 19.1148 22.7873 19.3351L22.7925 19.3325Z" fill="url(#paint0_linear_109_10461)"/>
</g>
<defs>
<linearGradient id="paint0_linear_109_10461" x1="8.7897" y1="15.1099" x2="23.0569" y2="15.1099" gradientUnits="userSpaceOnUse">
<stop stop-color="#F23920"/>
<stop offset="1" stop-color="#D62300"/>
</linearGradient>
<clipPath id="clip0_109_10461">
<rect width="43.4314" height="32" fill="white" transform="translate(8.28418 4)"/>
</clipPath>
</defs>
</svg>
